<svg viewBox="72.30802259887005 143.12130000000002 459.0718644067797 555.6474000000001" xmlns="http://www.w3.org/2000/svg" data-name="Capa 1" id="Capa_1" style="max-height: 500px" width="459.0718644067797" height="555.6474000000001">
  <defs>
    <style>
      .cls-1 {
        fill: #f0d387;
      }

      .cls-2 {
        fill: #803014;
      }

      .cls-3 {
        fill: #fcf1dc;
      }

      .cls-4 {
        fill: #c65617;
      }

      .cls-5 {
        fill: #802f13;
      }

      .cls-6 {
        fill: #f1d488;
      }

      .cls-7 {
        fill: #fffffd;
      }

      .cls-8 {
        fill: #82ae9d;
      }

      .cls-9 {
        fill: #e05f10;
      }
    </style>
  </defs>
  <g>
    <rect height="452.59" width="321.31" y="217.22" x="112.51" class="cls-3"/>
    <path d="M433.35,217.69c-103.9,2.98-217.33,5.46-320.83,5.5,0,0,5.97-5.97,5.97-5.97-.1,65.24-2.15,160.05-3.45,226.29-.46,36.66-.62,76.61-.39,113.15.21,37.72.92,75.43,1.52,113.15,0,0-3.65-3.65-3.65-3.65,102.37-2.26,218.83-2.87,321.31-3.44,0,0-7.09,7.09-7.09,7.09-.17-27.95.13-83.94.38-111.87.91-110.79,3.65-229.38,6.24-340.25h0ZM434.29,216.75c3.23,129.81,6.1,266.02,6.64,395.83-.13,3.27.07,62.28-.02,64.36,0,0-7.09-.04-7.09-.04-103.85-.62-221.29-1.19-325.01-3.51,2.48-110.07,1.86-232.33-.97-343.02-.84-39.7-1.41-79.41-1.28-119.11,0,0,5.96,0,5.96,0,105.36-.08,216.21,2.46,321.78,5.5h0Z" class="cls-5"/>
  </g>
  <g>
    <polygon points="243.28 212.26 289.24 473.15 384.11 548.85 433.27 594.55 433.82 669.81 148.74 671.22 142.15 222.17 243.28 212.26" class="cls-8"/>
    <path d="M243.68,211.73c18.35,86.2,35.8,173.41,51.42,260.38,0,0-2.15-3.62-2.15-3.62,7.97,6.23,15.8,12.62,23.71,18.93,22.89,18.22,47.75,38.95,70.31,57.82.32.2,48.09,46.79,48.39,47.03,0,0,1.01.98,1.01.98-.5,24.78-.55,51.82-.48,76.53,0,0,0,2.1,0,2.1-12.57-.04-25.14.02-37.71.15-80.62.57-168.67,4.03-249.43,5.11,0,0-5.83.1-5.83.1,0,0-.14-5.95-.14-5.95-.84-39.12-3.13-130.62-3.63-168.38-1.5-90.58-1.58-189.99-.84-280.7,0,0,.02-3.62.02-3.62,0,0,3.43-.24,3.43-.24,28.5-2.11,73.06-4.8,101.9-6.63h0ZM242.88,212.79c-28.26,3.72-72.39,9.71-100.35,13.18,0,0,3.45-3.86,3.45-3.86,1.13,28.06,2.93,84.19,3.77,112.23,3.3,107.07,4.49,229.21,4.93,336.79,0,0-5.97-5.85-5.97-5.85,0,0,35.64.24,35.64.24,81.18.8,168.51,3.23,249.46,2.21,0,0-2.07,2.1-2.07,2.1-.13-12.54-.29-25.09-.6-37.63-.15-9.43-.65-28.22-.97-37.62,0,0,.99,2.24.99,2.24.06.09-51.06-45.39-49.92-44.36-23.49-17.85-49.07-37.44-71.98-55.73-8.5-6.78-17.08-13.48-25.5-20.37,0,0-.37-2.17-.37-2.17-14.59-83.99-28.41-176.64-40.51-261.39h0Z" class="cls-5"/>
  </g>
  <path d="M317.89,670.28c.05.27-.17.66-.52.88l-1.36-1.35c-2.09-.2-3.35-.43-4.01-.65-.58-.22-1.07-.45.03-.65,1.8-.33,5.53-.48,1.56-1.21,0,0,7.63.04,7.63.04,1.04.34,2.01.84,2.44,1.77,1.22,1.7.17,3.16-1.92,3-1.01-.06-2.3-.56-3.85-1.84h0ZM316.95,669.34c-2.16-2.19-3.93-3.74-6.12-3.4-.43.18-.09.66.33.95.59.48,1.52.55,2.43.57,0,0,7.63.04,7.63.04-1.28.16-2.09.34-1.76.55.24.21,2.24.44,3.27.64,1.1.2.6.37.01.55-.66.18-1.92.36-4.02.55l-1.36-1.35c-.31.22-.5.61-.41.88h0Z" class="cls-5"/>
  <g>
    <rect height="103.45" width="51.41" y="204.74" x="419.87" class="cls-1"/>
    <path d="M471.76,308.66c-18.73,3.22-38.14,5.13-57.48,5.45-.29-10.56-.75-21.24.02-31.78.55-8.62,1.74-17.24,2.53-25.86,1.77-17.24,1.08-34.48-.61-51.73l-.32-3.28,3.97-.37c17.46-2.05,40.29-2.69,57.95-3.39,0,0,.24,7.04.24,7.04,1.29,34.5-1.71,70.06-6.3,103.93h0ZM470.82,307.72c-3.7-34.8-7.74-68.3-6.3-102.98,0,0,6.78,6.78,6.78,6.78-15.22-.4-36.48-1.48-51.41-3.13,0,0,3.65-3.65,3.65-3.65-1.69,17.24-2.38,34.48-.61,51.73.78,8.62,1.98,17.24,2.53,25.86.63,8.62.44,17.24.19,25.86,0,0-5.76-5.76-5.76-5.76,16.34.49,34.39,3.16,50.94,5.29h0Z" class="cls-5"/>
  </g>
  <g>
    <rect height="518.18" width="51.41" y="151.62" x="105.55" class="cls-1"/>
    <path d="M157.44,670.28c-16.62.85-38.15,2.03-54.69,2.54-1.59-44.18-2.37-88.38-2.87-132.56-1.85-91.78,3.39-183.53,3.68-275.28.03-37.71-.76-75.68-1.65-113.35,0,0-.07-3.55-.07-3.55,0,0,3.72-.09,3.72-.09,0,0,51.41-1.3,51.41-1.3,0,0,4.82-.12,4.82-.12,1.15,45.19,1.32,90.47,1.69,135.86,1.21,127.96-1.87,260.31-6.04,387.86h0ZM156.49,669.33c-5.71-172.72-8.23-345.16-4.47-517.71,0,0,4.95,4.95,4.95,4.95,0,0-51.41-1.3-51.41-1.3l3.65-3.65c-.42,21.59-1.06,43.18-1.31,64.77-1.5,75.55,1.8,151.19,3.3,226.7.92,75.58-.31,151.15-2.73,226.7,0,0-2.91-2.91-2.91-2.91,14.41.53,36.21,1.72,50.94,2.44h0Z" class="cls-5"/>
  </g>
  <g>
    <g>
      <polygon points="84.83 242.16 84.83 227.59 100.73 216.68 84.83 206.19 84.83 190.75 508.25 190.75 508.25 242.16 84.83 242.16" class="cls-1"/>
      <path d="M84.36,242.63c-.34-4.94-.87-10.35-1.11-15.78,5.35-4.08,10.67-8.2,16.07-12.22,0,0,.04,4.13.04,4.13l-16.33-9.83-1.41-.85-.07-1.89-.54-15.44s-.13-3.7-.13-3.7c0,0,3.95-.12,3.95-.12,52.92-1.62,105.84-2.53,158.78-1.97,88.22,2.46,176.4,5.83,264.64,1.89,0,0,3.79-.12,3.79-.12,0,0,.11,4.02.11,4.02.55,18.87,1.19,37.77,1.54,56.64,0,0-5.44.11-5.44.11-140.76,3.13-283.57.98-423.89-4.86h0ZM85.3,241.69c106.81-3.86,212.01-7.07,318.37-6.22,34.78.3,69.61.61,104.58,1.36l-5.33,5.33c.35-17.14.95-34.28,1.44-51.41l3.9,3.9c-35.28-1.12-70.57-1.96-105.85-1.9-52.93-.22-105.85,3.05-158.78,3.79-52.94.56-105.86-.35-158.78-1.97,0,0,3.82-3.82,3.82-3.82,0,0-.54,15.44-.54,15.44,0,0-1.48-2.74-1.48-2.74,2.51,1.88,16.49,11.85,18.53,13.38,0,0-3.04,1.91-3.04,1.91-5.44,3.43-10.95,6.75-16.43,10.12l.67-1.27c-.25,4.47-.76,9.12-1.07,14.1h0Z" class="cls-5"/>
    </g>
    <path d="M136.04,217.3c.04,1.87,1.42,3.96.9,6.27-.39,2.9-3.48,4.79-6.2,3.81-3.5-1.2-4.07-5.15-6.33-7.45-.58-.72-1.36-1.54-1.95-2.64-3.14-4.69,2.09-12.1,8.28-11.65,2.99.14,5.99,2.12,6.3,5.27.5,2.34-.79,4.49-1,6.37h0ZM134.71,217.3c-.25-1.59-2.87-1.11-3.76-.06-.95.94-1.26,2.17-.21,2.66,1.07.28,1.57-1.6.64-2.23-.32-.29-1.06-.49-1.63-.36-.95.08-1.88,1.33-.78,1.68,1.04.19,2.08-1.86,1.77-2.71-.09-.43-.37-.53-.44-.27-.27,1.72,4.1,3.67,4.41,1.3h0Z" class="cls-5"/>
    <path d="M450.88,217.3c.04,1.87,1.42,3.96.9,6.27-.39,2.9-3.48,4.79-6.2,3.81-3.5-1.2-4.07-5.15-6.33-7.45-.58-.72-1.36-1.54-1.95-2.64-3.14-4.69,2.09-12.1,8.28-11.65,2.99.14,5.99,2.12,6.3,5.27.5,2.34-.79,4.49-1,6.37h0ZM449.55,217.3c-.25-1.59-2.87-1.11-3.76-.06-.95.94-1.26,2.17-.21,2.66,1.07.28,1.57-1.6.64-2.23-.32-.29-1.06-.49-1.63-.36-.95.08-1.88,1.33-.78,1.68,1.04.19,2.08-1.86,1.77-2.71-.09-.43-.37-.53-.44-.27-.27,1.72,4.1,3.67,4.41,1.3h0Z" class="cls-5"/>
  </g>
  <path d="M78.17,669.14c36.1-4.57,72.34-6.05,108.63-4.89,18.11.86,36.21,3.01,54.32,3.41,36.24,1.05,72.4-3.67,108.63-4.15,36.09-1.3,72.56-1.07,108.63,1.05,18.11,1.05,36.21,2.31,54.32,4.58,0,0,0,1.33,0,1.33-18.11,2.27-36.21,3.53-54.32,4.58-17.65.95-36.72,1.68-54.32,1.87-27.16.16-54.33-.68-81.47-1.77-27.12-1.52-54.3-4.02-81.47-3.2-18.11.4-36.21,2.54-54.32,3.41-18.11.85-36.21.32-54.32-.37-18.11-.88-36.21-1.97-54.32-4.52v-1.33h0Z" class="cls-5"/>
  <path d="M131.1,667.41c-4.6-24.12-6.05-48.44-4.89-72.84.86-12.14,3.01-24.28,3.41-36.42.87-18.23-1.7-36.47-3.2-54.63-1.1-18.19-1.94-36.42-1.77-54.63.59-24.4,2.16-48.69,6.45-72.84,0,0,1.33,0,1.33,0,8.22,48.16,7.84,97.23,2.98,145.69-1.25,12.14-1.97,24.28-1.5,36.42.4,12.14,2.54,24.28,3.41,36.42.85,12.14.32,24.29-.37,36.42-.8,12.14-1.99,24.28-4.52,36.42h-1.33Z" class="cls-5"/>
  <g>
    <path d="M462.84,496.79h26.8c4.07,0,7.37,3.3,7.37,7.37v165.64h-41.54v-165.64c0-4.07,3.3-7.37,7.37-7.37Z" class="cls-4"/>
    <path d="M497.48,670.28c-14.5,1.94-31.36,3.73-46.34,4.42-1.14-17.17-1.66-34.4-1.66-51.58-.01-23.34,3.51-46.67,3.91-70.03.19-11.67-.03-23.35-.67-35.02,0,0-.16-2.92-.16-2.92-1.66-11.66,7.39-22.65,19.31-23.14,2.09-.18,5.19-.31,7.29-.44,13.68-1.43,24.88,10.11,24.18,23.64,2.06,50.57-.98,106.74-5.85,155.06h0ZM496.54,669.33c-4.53-54.64-7.98-101.62-5.85-154.24.92-6.57-3.35-12.44-10.06-13-2.67-.14-6.08-.33-8.75-.52-7.56-.82-13.88,6.07-13.48,13.58,0,0-.16,2.92-.16,2.92-1.06,19.45-1.05,38.93.51,58.36,1.2,15.56,2.72,31.12,2.73,46.69-.02,15.56-.4,31.12-1.36,46.69,0,0-4.63-4.63-4.63-4.63,11.43.66,29.51,2.91,41.06,4.16h0Z" class="cls-2"/>
  </g>
  <path d="M374.69,241.23c3.84,9.28,2.66,20.5-2.69,28.96-4.58,5.84-10.94,9.95-14.8,16.32-4.19,6.03-7.88,12.83-14.1,17.2-11.68,9.66-28.64,13.1-42.72,6.72,0,0,0-1.33,0-1.33,6.28-3.21,12.44-5.63,18.69-8.46,5.45-2.71,11.71-5.12,17.3-7.57,1.9-.95,3.72-2.04,5.76-2.88,6-2.76,12.53-5.81,16.02-11.82,3.29-5.89,2.83-13.13,5.96-19,2.7-6.32,5.3-12.32,9.25-18.23,0,0,1.33.09,1.33.09h0Z" class="cls-2"/>
  <g>
    <path d="M408.62,695.66l.14-.22c28.2-44.58,14.94-103.58-29.67-131.79-8.57-5.42-17.67-9.32-27-11.73,23.65-12.22,52.99-11.89,77.12,3.37,36.25,22.93,47.04,70.86,24.11,107.11-10.69,16.9-26.85,28.29-44.7,33.26Z" class="cls-9"/>
    <path d="M408.08,696.06c-.15-.26-.07-.8.11-1.08,0,0,.13-.33.13-.33,0,0,.25-.66.25-.66.29-.78,1.25-3.09,1.57-3.91,10.48-24.62,11.21-53.67,1.1-78.44-10.24-26.43-31.11-51-59.67-57.74,0,0-5.34-1.31-5.34-1.31,0,0,4.91-2.48,4.91-2.48,19.98-10.35,43.86-13.76,65.73-6.76,46.91,15.09,69.97,71.33,45.49,114.73-8.41,14.88-21.64,27.43-37.57,33.78-5.34,2.09-10.94,4.1-16.72,4.21h0ZM409.15,695.26c3.13-2.29,6.75-3.58,10.03-5.65,12.33-7.13,22.57-17.57,29.52-29.92,18.88-32.91,9.07-78.02-22.37-99.21-20.99-14.7-49.98-18.87-73.31-6.74,0,0-.43-3.79-.43-3.79,7.39,2.02,14.58,4.69,21.5,8.03,21.12,10.09,40.02,26.99,48.3,49.28,11.23,28.38,7.48,62.43-11.49,86.51,0,0-.86,1.14-.86,1.14,0,0-.44.56-.44.56,0,0-.22.28-.22.28,0,0-.05.07-.05.07,0,0,.04-.09.03-.16.01-.16-.11-.34-.24-.39h0Z" class="cls-2"/>
  </g>
  <g>
    <g>
      <path d="M444.51,405.08s-.02.04-.04.04c-.07.04-.11.09-.18.13-2.95,2.27-41.4,31.58-61.58,44.26-3.29,2.07-6.09,3.69-8.17,4.66-1.13.53-2.04.89-2.71,1.02-1.91-9.35-7.17-17.79-14.37-24.59-.02,0-.02-.02-.04-.02-3.64-3.46-7.77-6.46-12.21-8.95-4.02-2.29-8.31-4.11-12.7-5.46-.13-.04-.11-.22.04-.22,24.76,1.07,52.23-31.39,58.05-56.4.13-.53.27-1.11.36-1.69.53-2.71,1.27-4.89,2.13-6.62,8.11-16.39,45.73,3.96,46.11,16.95l11.17,16.79c3.33-.67-3.45,17.97-5.85,20.08Z" class="cls-7"/>
      <path d="M444.97,405.56c-13.31,14.49-32.9,31.13-50.74,43.54-4.41,3.19-9.84,6.38-14.82,8.85-1.92.9-2.98,1.75-6.53,2.49,0,0-5.65,1.17-5.65,1.17l-.63-5.34c-1-8.65-5.04-17.08-11.01-23.67,0,0,1.88.75,1.88.75,0,0-.04-.03-.04-.03,0,0-1.88-.75-1.88-.75-6.04-6.79-14.36-11.62-23.12-14.19,0,0-.34-.1-.34-.1,0,0-.17-.05-.17-.05,0,0-.04-.01-.04-.01-1.08-.25-2.12-1.99-1.35-3.19.56-1.05,1.5-1.24,2.52-1.27,12.31-.37,22.39-8.86,30.18-17.76,10.42-12.01,18.96-26.52,21.47-42.19,4.84-21.81,29.35-17.36,43.32-7.76,7.52,5.29,15.76,11.73,16.39,22,0,0-.87-2.73-.87-2.73,3.34,5.86,6.59,11.77,9.72,17.75,0,0-3.57-1.48-3.57-1.48,3.65-.59,5.47,2.96,4.72,5.9-1.06,4.91-3.37,9.16-5.83,13.42-1.09,1.7-1.99,3.28-3.6,4.65h0ZM444.06,404.59c1.52-2.92,2.25-6.84,3.01-10.14.48-2.58,1.25-5.66.86-8.05.02.06-.09.25.42.98.15.19.31.33.52.49.56.48,1.55.68,2.17.54,0,0-3.57-1.48-3.57-1.48-4.3-5.2-8.5-10.48-12.62-15.83-.74-1.84-.72-3.33-2.27-5.22-6.04-7.34-22.31-15.93-31.64-12.89-1.9.99-2.37,3.56-3,5.54-6.81,26.85-27.27,51.17-54.37,58.57-1.77.5-4.2.66-6.01,1.01-.9-.01-3.97.04-4.94.02,1.91.04,2.87-3.12.54-3.96,2.03.67,4.05,1.42,6.03,2.28,7.17,3.16,13.92,7.13,20.1,12.19,0,0-1.88-.75-1.88-.75l.04.02,1.88.75c8.05,6.56,14.93,15.14,17.73,25.5,0,0-6.28-4.17-6.28-4.17,23.2-14.45,50.91-34.12,73.28-45.37h0Z" class="cls-2"/>
    </g>
    <g>
      <path d="M454.56,342.55l-20.61,27.33c-.89-.05-1.79-.1-2.7-.2-3.57-.33-7.19-.9-10.8-1.74-42.88-9.99-69.55-52.86-59.56-95.74l.03-.13c.94.3,1.92.58,2.93.81,4.29,1,8.55,1.22,12.69.75,3.35,24.69,18.23,46.66,40.18,58.85,6.33,3.55,13.29,6.26,20.71,7.99,5.73,1.34,11.49,2.01,17.14,2.08Z" class="cls-7"/>
      <path d="M455.16,342.26c-5.88,10.77-11.36,22.28-18.56,32.59,0,0-2.92,0-2.92,0-10.81.13-21.75-2.49-31.57-6.97-12.57-6.12-22.7-16.71-29.63-28.26-12.41-20.57-20.91-44.36-16.99-68.81,0,0,.9-5.17.9-5.17,3.93.58,8.96,1.93,12.85,2.1,3.7.23,8.65-.66,12.32-1.3,1.71,10.64,4.68,21.26,10,30.65,11.99,22.61,34.43,38.81,59.54,44.05,1.11.32,3.08.47,4.07,1.12h0ZM453.97,342.85c-.29.17-.39.43-.44.51-.03.08-.53.09-.77.14-9.19,1.23-18.53.39-27.48-2.14-29.95-8.14-52.52-36.01-54.98-66.88,0,0,6.96,5.41,6.96,5.41-6.12.51-12.29-.35-18.02-2.5,0,0,7.12-4.05,7.12-4.05-3.16,10.31-4.84,21.5-3.26,32.67,2.93,23.53,19.86,39.72,40.52,49.23,2.11,1.03,5.11,2.56,7.31,3.32,0,0,3.7,1.56,3.7,1.56l3.84,1.2c5.07,1.81,10.41,2.87,15.76,3.6l-4.23,1.97c7.27-8.23,16.42-15.53,23.98-24.05h0Z" class="cls-2"/>
    </g>
    <g>
      <polygon points="467.93 324.85 454.56 342.55 433.95 369.89 432.88 371.31 431.26 369.68 405.86 344.2 416.71 332.48 419.37 329.64 409.47 322.65 431.06 304.84 467.93 324.85" class="cls-6"/>
      <path d="M468.58,324.71c-7.39,19.46-20.28,39.23-36.39,53.05-4.47-6.37-8.91-13.02-14.26-18.57-4.96-5.28-10.65-9.93-16.5-14.29,0,0,2.03-2.92,2.03-2.92,3.82-5.5,7.5-11.1,11.66-16.31l.89,8.72-10.34-6.37-7-4.32c5.39-4.89,11.5-10.84,17.04-15.47,4.73-4.02,9.96-7.92,15.04-11.52,13.66,8.04,26.29,17.65,37.82,28h0ZM467.28,324.99c-12.95-4.71-27.33-8.56-39.46-14.18,0,0,7.56-.73,7.56-.73-6.8,6.42-14.15,12.17-21.73,17.64,0,0-.39-10.43-.39-10.43l9.46,7.61,5.57,4.48c-5.97,5.59-13.58,11.93-20.03,17.04,0,0-.08-4.52-.08-4.52,7.61,10.48,17.03,19.2,27.77,26.38,0,0-6.51.44-6.51.44,5.33-11.01,13.12-20.48,21.41-29.34,5.28-5.27,10.11-8.48,16.44-14.38h0Z" class="cls-2"/>
    </g>
    <g>
      <polygon points="471.16 361.77 408.97 340.84 394.27 356.62 451.9 389.84 471.16 361.77" class="cls-9"/>
      <path d="M470.53,361.98c-17.16-3.28-33.29-4.47-48.74-11.39-4.42-2.17-8.83-4.97-13.65-7.3l2.72-.69c-5.53,4.65-10.34,10.04-14.6,15.88,0,0-.63-4.22-.63-4.22,20.73,8.03,41.19,17.23,59.46,30.05,0,0-8.45,1.92-8.45,1.92,7.23-8.53,16.2-15.87,23.89-24.24h0ZM471.8,361.56c-4.52,12.36-10.28,25.12-17.33,36.51,0,0-5.75-2.7-5.75-2.7-21.48-9.81-40.34-24.15-58.83-38.62,6.77-5.46,12.98-11.65,17.99-18.77,6.28,1.42,12.71,2.11,19.37,3.57,15.77,3.75,31.36,11.74,44.55,20h0Z" class="cls-2"/>
    </g>
    <g>
      <polygon points="440.05 301.26 460.18 286.76 497.01 307.4 475.74 332.76 440.05 301.26" class="cls-7"/>
      <path d="M439.38,301.23c5.09-8.04,12.23-15.29,20.02-21.25,4.29,2.11,8.9,4.13,12.79,6.92,8.46,6.58,15.59,14.66,26.03,18.32,0,0,2.46,1.02,2.46,1.02l-1.77,2.75c-4.38,7.1-7.96,14.79-13.07,21.44-2.15,2.95-6.53,9.19-8.66,12.12-15.27-10.84-28.38-25.67-37.8-41.33h0ZM440.71,301.29c13.77,8.64,28.53,14.95,39.59,26.29,0,0-9.85.74-9.85.74l5.81-5.93c5.66-6.19,12.61-11.05,18.84-16.6,0,0,.69,3.77.69,3.77-5.75-4.28-12.06-7.37-19.02-9.23-6.96-1.82-13.52-4.44-19.42-8.53,0,0,6.2-.35,6.2-.35-6.73,4.09-15.39,6.39-22.84,9.84h0Z" class="cls-2"/>
    </g>
    <g>
      <path d="M405.63,278.62s3.46,27.46,40.77,41.26c23.31,8.63,31.03,17.16,33.54,22.35,1.02,2.12,3.94,2.49,5.23.53,2.61-3.96,7.22-12.3,3.32-20.99-3.76-8.38-14.27-12.04-23.36-13.33-13.2-1.87-37.3-8.24-59.5-29.81Z" class="cls-7"/>
      <path d="M405.93,279.22c.15.04.39-.08.45-.25.04-.06.04-.18.05-.15l.05.1c3.98,7.8,9.77,14.79,16.41,20.37,9.97,8.76,23.12,13.82,34.32,21.04,8.88,6.14,18.71,11.34,24.82,20.68.11.19.13.19.16.21.02.03.06.05.09.07.3.2.79-.06.4-.19,0-.04-.06.04,0-.08,4.22-7.9,3.55-17.82-4.82-21.89-7.43-4.01-17.31-3.42-25.44-6.02-16.79-4.82-32.03-14.54-42.98-28.08-1.69-1.79-1.77-3.76-3.5-5.82h0ZM405.33,278.03c4.27,1.89,8.85,4.89,13.08,7.05,11.81,6.34,24.67,11.27,37.57,14.26,9.91,2.37,19.77,2.9,28.6,9.15,12.97,8.47,13.23,24.45,3.48,35.52-2.97,4.43-9.12,3.34-10.66-1.54-2.16-4.36-6.09-7.72-10.46-10.3-12.46-7.29-28.3-6.42-40.02-15.4-12.19-8.2-22.25-21.92-22.03-37.1.05-.52-.03-1.32.44-1.64h0Z" class="cls-2"/>
    </g>
    <g>
      <path d="M426.06,519.36s45.23-36.49,23.41-120.15c-1.64-6.29-9.3-18.92-22.91-15.79-7.59,1.74-13.34,8.07-14.91,15.69-1.14,5.51-.81,12.44,4.42,19,0,0,26.58,41.94,1.97,84.39l8.01,16.87Z" class="cls-7"/>
      <path d="M426.21,518.71c.02-.36-.28-.31-.1-.49,1.07-1.48,2.12-2.99,3.1-4.52,8.67-13.7,14.52-29.06,17.51-44.95,1.79-8.82,2.67-18.02,3.79-26.94.76-9.21,1.04-18.71-.09-27.89-1.25-5.88-1.78-12.37-4.4-17.78-9.19-17.61-31.18-8.64-28.64,9.83.49,3.07,1.9,5.8,4.05,8.17,1.33,2.05,2.4,3.89,3.41,5.79,8.46,15.74,11.92,34.09,9.42,51.82-.97,5.84-2.57,11.65-4.73,17.15,0,0-2.54,5.32-2.54,5.32-1.37,3.18-4.22,6.99-6.05,9.94,0,0,.13-3.1.13-3.1,1.85,5.72,3.06,11.56,5.15,17.65h0ZM425.91,520.01c-3.68-5.36-8.08-11.18-11.5-17.14,1.25-3.74,3.27-8.22,4.27-12.01,1.35-4.81,2.61-10.23,2.94-15.19,1.36-13.54-1-27.28-5.31-40.15-1.61-4.62-3.56-9.63-5.85-13.86,0,0,.42.59.42.59-3.2-4.21-5.38-9.58-5.75-14.98-.96-10.55,4.61-21.74,14.49-26.02,12.4-5.78,25.26,1.12,30.23,13,.98,2,1.65,4.44,2.01,6.44,1.86,8.36,3.92,16.59,5.74,25,2.11,10.52,3.93,21.63,2.8,32.52-1.14,13.19-5.16,26.24-11.76,37.72-4.29,7.64-9.97,14.65-16.75,20.21-1.63,1.25-4.14,3.37-5.98,3.87h0Z" class="cls-2"/>
    </g>
    <g>
      <path d="M374.21,463.95c-.11.04-.22.11-.33.16-11.48,5.26-22.08,7.11-35.2,6.88-6.04-.09-12.19-.84-18.34-2.27-7.26-1.69-14.12-4.26-20.45-7.6-.4-.18-.78-.38-1.15-.58-4.2-2.27-8.15-4.86-11.84-7.75-2.07-1.58-4.02-3.24-5.91-5-2.86-2.64-5.53-5.51-8-8.48-5.04-6.13-9.24-12.95-12.41-20.23-3-6.75-5.11-13.92-6.24-21.32-.91-5.51-1.24-11.13-1.02-16.81.18-5.44.91-10.93,2.2-16.41.44-2,.98-3.93,1.58-5.86.18.16.36.33.56.49.89.8,1.82,1.58,2.73,2.35,1.13.93,2.27,1.84,3.42,2.71,6.8,5.2,14.32,9.55,22.5,12.88,3.02,1.22,6.13,2.33,9.31,3.26,1.33.4,2.69.78,4.04,1.11.67.2,1.33.36,2,.51,1.4.33,2.8.6,4.2.87.71.13,1.4.24,2.11.38.71.11,1.4.22,2.09.33.64.09,1.31.18,1.95.27,1.98.27,3.93.44,5.89.56-.98,3.06-2.07,6.09-3.24,9.06.38.76.76,1.49,1.13,2.24.18.33.36.67.51,1h.02c.44.87.91,1.73,1.38,2.6,7.37,13.48,15.01,25.74,25.16,36.84,1.87,2.07,3.82,4.06,5.86,6.04,7.86,7.53,16.66,13.9,25.52,21.76Z" class="cls-7"/>
      <path d="M340.73,477.68c-.72,0-1.44,0-2.17-.02-6.51-.1-13.15-.92-19.73-2.44-7.66-1.78-15.02-4.51-21.89-8.1-.45-.21-.88-.43-1.3-.66-4.55-2.46-8.85-5.27-12.86-8.41-2.11-1.61-4.2-3.38-6.34-5.36-2.93-2.7-5.82-5.78-8.59-9.12-5.48-6.66-9.98-14-13.39-21.82-3.23-7.29-5.5-15.03-6.72-22.97-.96-5.81-1.33-11.92-1.09-18.08.19-5.83.99-11.79,2.37-17.68.43-1.95.99-4.04,1.7-6.31l3.04-9.81,8.33,7.32c.63.57,1.29,1.12,1.94,1.68l.66.56c.96.79,2.02,1.64,3.09,2.44,6.48,4.95,13.53,8.99,21.02,12.04,2.97,1.2,5.89,2.22,8.67,3.04,1.26.38,2.51.73,3.75,1.03l.33.09c.53.16,1.06.28,1.59.4,1.31.31,2.59.56,3.87.8l5.88.93c1.71.23,3.47.4,5.35.5l8.58.49-2.61,8.19c-.69,2.18-1.47,4.41-2.3,6.65l.31.59c.43.83.87,1.65,1.31,2.48,6.06,11.09,13.7,24.01,24.21,35.51,1.7,1.88,3.52,3.75,5.58,5.75,4.29,4.1,8.93,7.9,13.84,11.92,3.73,3.05,7.58,6.2,11.47,9.65l8.06,7.15-10.04,4.05c-11.4,5.23-22.25,7.51-35.92,7.51ZM261.08,370.53c-.63,3.58-1,7.13-1.11,10.64-.21,5.3.11,10.5.94,15.51,1.05,6.85,2.98,13.46,5.76,19.7,2.93,6.73,6.79,13.01,11.47,18.7,2.37,2.87,4.86,5.5,7.37,7.82,1.83,1.7,3.6,3.2,5.43,4.6,3.48,2.73,7.15,5.13,10.96,7.18.22.11.45.24.7.35l.4.19c5.91,3.11,12.25,5.47,18.86,7,5.65,1.31,11.35,2.01,16.93,2.09,8.64.14,15.69-.64,22.51-2.6-.86-.71-1.71-1.4-2.56-2.1-5.12-4.19-9.95-8.15-14.64-12.63-2.3-2.23-4.32-4.31-6.2-6.39-11.16-12.21-19.2-25.62-25.59-37.25h-.24l-1.82-3.83c-.1-.21-.21-.42-.32-.62l-2.58-5.13,1.1-2.77c.11-.29.23-.59.34-.88l-4.17-.71c-1.56-.3-3.04-.58-4.52-.93-.71-.16-1.45-.34-2.2-.56-1.41-.35-2.82-.74-4.21-1.16-3.16-.93-6.5-2.1-9.89-3.47-8.08-3.29-15.71-7.58-22.71-12.76Z" class="cls-2"/>
    </g>
    <path d="M287.03,315.12c-16.38,1.21-32.76-7.13-43.47-19.28-4.86-5.58-7.66-12.71-10.29-19.49,23.15-.98,34.38-16.51,37.28-38.14,0,0,3.12-1.53,3.12-1.53,3.88-1.83,9-5.17,12.61-7.54,2.97,8.74,6.25,17.98,7.81,27.09,3.03,17.95,1.5,36.79-4.81,53.89-.65,1.48-1.33,3.67-2.25,5.01h0ZM286.3,314.01c-.16-.44-.39-.29-.41-.79-.08-.73-.24-2.88-.3-3.65-1.69-23.21-4.28-46.42-8.6-69.26,0,0,8.97,3.78,8.97,3.78-2.71,1.3-5.5,2.42-8.39,3.21l3.51-3.81c-3.39,9.39-10.09,17.21-17.36,23.67-7.29,6.4-14.96,11.9-23.72,16.34,0,0,2.27-5.86,2.27-5.86,6.56,7.05,13.06,13.54,20.26,19.78,6.41,5.37,13.64,10.23,20.95,14.51,0,0,1.66.98,1.66.98.64.37.56.66,1.16,1.1h0Z" class="cls-2"/>
    <g>
      <path d="M196.48,334.19l-11.13-34.37-17.06,7.52.12,24.69c-.06,0-.14,0-.19.03-.34,0-.68.04-1.02.05-.65.03-1.33.07-2,.13-.45.03-.89.08-1.37.11-.48.04-.97.11-1.47.15-.61.07-1.24.14-1.87.22-.08,0-.19.03-.29.07-.23.01-.48.04-.72.08-.32.06-.65.11-.97.17-.49.07-.98.14-1.46.24-.89.16-1.75.31-2.61.51-.11.02-.19.03-.29.07-.27.03-.56.1-.83.16-.05.02-.13.03-.18.05-1.97.46-3.91.97-5.86,1.6-.72.2-1.42.45-2.12.7-.48.15-.99.32-1.46.5-.5.19-.98.34-1.46.56-.3.1-.59.23-.92.35-.88.36-1.77.72-2.66,1.12-3.15,1.39-6.17,2.95-9.02,4.67h-.02c-1.6.98-3.18,1.99-4.69,3.03.13-1.16.24-2.28.44-3.41.15-1.17.36-2.33.57-3.49.14-.79.29-1.57.47-2.35,0-.06.02-.09.03-.13.2-.99.43-1.98.7-2.94.19-.81.4-1.59.64-2.36.67-2.35,1.46-4.64,2.34-6.91.15-.44.34-.87.53-1.3.31-.8.66-1.59.99-2.35.07-.17.16-.36.23-.53s.17-.34.24-.51c.09-.19.18-.37.28-.56.22-.48.45-.95.68-1.4.5-1.03,1.02-2.01,1.57-3.01.08-.15.14-.27.21-.38.05-.14.14-.27.21-.38.74-1.28,1.49-2.54,2.27-3.78.36-.56.71-1.09,1.08-1.63.63-.94,1.26-1.86,1.94-2.76.58-.78,1.17-1.56,1.77-2.34.1-.1.18-.19.26-.32,1.43-1.76,2.91-3.45,4.44-5.09.8-.82,1.6-1.63,2.41-2.42.16-.16.35-.33.51-.49.67-.64,1.37-1.3,2.06-1.89.77-.69,1.52-1.34,2.3-2,.23-.19.47-.38.7-.57.81-.65,1.64-1.27,2.49-1.91.96-.71,1.93-1.4,2.91-2.06.91-.63,1.86-1.23,2.82-1.82.93-.58,1.89-1.15,2.87-1.7.05-.02.1-.04.16-.1.24-.11.47-.24.73-.38.41-.24.84-.46,1.27-.67.11-.08.26-.14.38-.2.07-.03.11-.08.19-.09.46-.26.91-.49,1.37-.69.95-.48,1.96-.95,2.95-1.39.87-.38,1.78-.76,2.66-1.12.88-.36,1.78-.7,2.68-1.01.89-.34,1.8-.65,2.69-.93.66-.21,1.32-.41,1.96-.6.61-.18,1.23-.37,1.83-.52.16-.04.34-.09.49-.13.26-.06.52-.14.78-.2.42-.1.8-.21,1.21-.27.62-.16,1.26-.29,1.87-.42.72-.14,1.4-.3,2.13-.42.85-.17,1.69-.31,2.53-.42.7-.11,1.41-.22,2.1-.29.3-.04.61-.07.91-.11l31.79,47.95c-.19.35,15.73,22.62,14.66,25.12-2.46,5.51-23.14-5.55-24.53.36-1.1,4.59-15.1-1.68-22.22-13.1Z" class="cls-9"/>
      <path d="M195.88,334.47c-3.66-11.56-8.32-22.71-13.37-33.73,0,0,4.06,1.82,4.06,1.82l-8.1,4.73-8.16,4.61,2.97-4.58c.76,8.22,1.14,16.45,1.13,24.69,0,0-6.29,6.02-6.29,6.02.83.06,1.77-.12,2.52-.47l-2.29.51-3.69.19c-.86.03-2.48.24-3.33.28,0,0-.12,0-.12,0-.02,0-.18.02.14-.02.42-.06.84-.19,1.22-.38,0,0-2.03.49-2.03.49-1.38.1-3.39.45-4.87.64-.02,0-.09.02-.06,0,0,0,.28-.07.28-.07.18-.06.37-.13.53-.23l-1.57.43c-.1.02-.21.03-.31.03,0,0,1.04-.34,1.04-.34-3.66,1.06-7.85,1.55-11.42,2.65-3.86,1.04-10.7,3.7-12.74,4.8-2.66,1.42-8.11,4.33-10.78,5.76,0,0,1.28-6.04,1.28-6.04,2.46-13.01,6.97-26.03,14.44-38.16,7.02-11.2,16.09-21.17,27.18-28.47,0,0,.4-.2.4-.2-.92.23-3.16,2.74-3.9,3.32,0,0,4.05-3.44,4.05-3.44l.18-.15c.37-.29,1.13-.68,1.49-.94,0,0-.6.36-.6.36.82-.6,1.86-1.05,2.96-1.2,0,0-2,.63-2,.63,11.28-6.66,21.15-9.22,33.49-11.02,9.13,12.85,18.33,25.68,26.95,38.88,2.62,4.01,5.21,8.05,7.75,12.12,0,0,.27,7.19.27,7.19,1.04-1.53,1.2-4.54.22-6.28,0,0-.12-.21-.12-.21-.01-.01.04.07.05.1l.25.44c4.77,7.82,9.82,15.33,12.97,24.11.69,1.93.89,4.61-.34,6.36-6.42,8.8-18.4-.96-26.28-1.55-.47-.03-.48.06-.4-.3-.05-.12-.16.35-.25.51-5.15,8.74-22.12-8.46-24.82-13.9h0ZM197.08,333.91c4.05,6.13,10.56,11.65,17.84,12.92.72.09,1.44.03,1.75-.13.27-.17-.04-.1-.16.03,0-.04-.06.14,0-.07,2.14-8.02,18.31-1.13,23.58-3.16-1.52.15-2.26,2.34-2.07,3.75-.01.02-.02.04-.02.06,0,.06-.08-.11-.11-.16-3.06-5.05-8.74-12.26-12.13-17.18-1.03-1.51-2.48-3.35-3.33-4.95-1.08-1.81-.93-4.95.1-6.59,0,0,.27,7.19.27,7.19-11.09-15.66-21.22-31.96-31.29-48.28,0,0,6.19,2.75,6.19,2.75-2.95.27-6.09.66-9,1.23-6,1.1-12,3.07-17.65,5.4,0,0-2,.63-2,.63.62-.02,1.43-.26,1.82-.64-.75.5-2.1.97-2.92,1.38,0,0,1.29-.84,1.29-.84-3.42,2.12-9.59,4.83-13.91,8.27-7.69,5.67-13.38,11.75-18.27,19.78-6.02,10.21-8.83,20.48-9.13,31.62,0,0-4.74-2.83-4.74-2.83,4.79-3.9,12.16-8.71,17.14-10.99,5.17-2.42,10.1-4.1,13.13-4.8,0,0-1.56.43-1.56.43.43-.19,1.03-.36,1.5-.47,2.1-.52,4.3-1.08,6.46-1.33,0,0-2.03.49-2.03.49,1.15-.5,2.53-.61,3.76-.8,1.99-.25,4.53-.51,6.49-.57,0,0-2.29.51-2.29.51.88-.38,1.94-.57,2.9-.53l-6.29,6.02c-.03-4.12,0-8.23.16-12.35.16-5.29.6-10.76,1.02-16.06,0,0,2.68-.88,2.68-.88,6.01-1.99,15.28-4.93,21.31-6.78,2.55,12.76,5.37,25.56,9.49,37.91h0Z" class="cls-2"/>
    </g>
    <g>
      <path d="M312.45,622.55h-.02c-8.11,1.8-16.55,2.75-25.21,2.75-3.62,0-7.22-.16-10.75-.49l-.16-.42-10.64-27.27c-.33-1.13-.6-2.27-.8-3.4-1.18-7.37,1.49-14.86,6.62-20.3l15.92-16.61c0-.69-71-43.08-73.24-137.92v-.02c-.42-18.46,1.75-38.91,7.57-61.43l-34.16-11.73-4.24,18.14,19.83,14.75s-.09.11-.09.16c-.2.29-.38.58-.58.84-.38.56-.76,1.11-1.11,1.69-.24.38-.47.76-.73,1.15-.24.4-.49.84-.76,1.27-.31.53-.62,1.09-.95,1.62-.04.09-.09.18-.11.29-.13.18-.27.4-.36.62l-.47.87c-.22.44-.47.87-.67,1.31-.42.8-.82,1.58-1.15,2.4-.07.09-.11.16-.13.27-.13.24-.24.51-.36.76-.02.04-.07.13-.07.18-.82,1.84-1.58,3.71-2.24,5.64-.27.71-.49,1.42-.71,2.13-.18.47-.33.98-.49,1.47-.13.51-.31.98-.42,1.51-.11.29-.18.6-.27.93-.24.93-.49,1.84-.71,2.8-.78,3.35-1.35,6.71-1.69,10.02v.04c-.2,1.84-.33,3.73-.4,5.55-.84-.8-1.69-1.55-2.47-2.4-.84-.82-1.64-1.69-2.44-2.55-.56-.58-1.09-1.18-1.6-1.78-.04-.04-.07-.07-.09-.11-.67-.76-1.33-1.53-1.93-2.33-.53-.62-1.04-1.27-1.51-1.91-1.49-1.95-2.84-3.95-4.11-6.02-.27-.4-.51-.8-.73-1.22-.47-.71-.89-1.47-1.29-2.2-.09-.16-.2-.33-.29-.49-.09-.18-.16-.36-.27-.51-.09-.18-.18-.36-.27-.56-.27-.47-.51-.93-.71-1.38-.53-1.02-1-2.02-1.47-3.06-.09-.16-.13-.27-.18-.4-.09-.13-.13-.27-.18-.4-.6-1.35-1.15-2.71-1.67-4.09-.24-.62-.44-1.2-.67-1.82-.38-1.07-.73-2.13-1.04-3.22-.27-.93-.56-1.87-.82-2.82,0-.13-.04-.27-.09-.4-.56-2.2-1.02-4.4-1.4-6.62-.18-1.13-.33-2.24-.49-3.38-.02-.22-.04-.47-.09-.69-.11-.93-.2-1.89-.27-2.8-.09-1.02-.16-2.02-.22-3.04,0-.29-.02-.6-.02-.89-.04-1.04-.04-2.09-.04-3.13.02-1.2.04-2.4.11-3.58.02-1.11.13-2.22.22-3.35.09-1.09.22-2.2.38-3.31,0-.04.02-.11,0-.18.07-.27.11-.53.13-.82.07-.47.16-.95.22-1.42.02-.13.04-.29.09-.42,0-.07,0-.13.04-.2.07-.53.16-1.02.27-1.51.18-1.04.42-2.13.67-3.2.2-.91.47-1.87.71-2.8.22-.91.49-1.84.8-2.75.27-.91.56-1.82.87-2.69.24-.67.47-1.31.69-1.93.22-.6.44-1.2.69-1.78.07-.16.13-.33.2-.47.11-.24.2-.51.31-.76.18-.4.31-.78.51-1.13.24-.6.51-1.18.78-1.75.31-.64.6-1.29.95-1.95.36-.78.76-1.53,1.18-2.27.33-.64.67-1.27,1.02-1.87.16-.27.31-.51.47-.78l28.45,1.67,28.98,1.69c.16.38.33.71.49,1.07.58,1.29,1.2,2.58,1.87,3.82.58,1.13,1.18,2.27,1.82,3.38,2.93,5.29,6.37,10.28,10.28,14.95,3,3.62,6.26,7.06,9.77,10.22-.6,1.93-1.13,3.86-1.58,5.86-1.29,5.49-2.02,10.97-2.2,16.41-.04,1.24-.07,2.51-.07,3.75v.02c.02,4.86.47,9.68,1.29,14.39,1.31,7.64,3.66,14.99,6.91,21.9,3.06,6.55,6.95,12.7,11.55,18.3,2.47,2.98,5.13,5.84,8,8.48,1.42,1.33,2.91,2.6,4.42,3.84.98.8,1.95,1.55,2.98,2.31,3.78,2.8,7.8,5.31,12.08,7.51.38.2.76.4,1.15.58,5.84,2.89,12.13,5.15,18.72,6.68,6.15,1.42,12.3,2.18,18.34,2.27,13.26.22,23.92-1.67,35.53-7.04l.02.02c.47.33.9.73,1.38,1.04,39.72,26.5,49.03,128.06-61.43,158.44Z" class="cls-4"/>
      <path d="M312.54,623.21c-10.95,2.63-24.37,3.27-36.16,2.56,0,0-.56-.02-.56-.02l-.25-.61c-3.48-8.36-7.9-19.31-11.43-27.43-3.93-11.16.67-21.68,8.71-29.62,2.43-2.81,9.55-10.73,12.1-13.66,0,0-.95,2.37-.95,2.37-.15.82.47,2.1,1.09,2.51,0,0-.08-.05-.08-.05,0,0-.31-.2-.31-.2-.29-.22-1.84-1.19-2.2-1.44-47.9-31.57-76.08-87.65-73.67-144.83.56-19.2,4.1-38.08,9.31-56.28,0,0,2.39,4.45,2.39,4.45l-33.82-12.7,3.49-1.93s-4.57,18.07-4.57,18.07c0,0-.89-2.42-.89-2.42,6.5,5.06,13.09,10,19.68,14.95,0,0,.23,3.16.23,3.16.33-.28.57-.88.52-1.32,0,0-.37,1.19-.37,1.19-.53.8-1.61,2.35-2.11,3.16-.66.88-1.38,2.38-2,3.31.26-.38.12-.83.13-1.24,0,0-.34,1.67-.34,1.67-.97,1.7-1.76,3.49-2.67,5.18.13-.14.22-.35.23-.55l-.21.57-.19.4s-.1.2-.1.2l-.02.05c.11-.18.15-.47.13-.68,0,0-.17.81-.17.81,0,0-2.04,5.19-2.04,5.19-2.88,7.94-4.27,16.21-4.59,24.17,0,0-.31,4.65-.31,4.65,0,0-3.28-3.18-3.28-3.18-7.11-6.54-11.97-12.65-16.98-21.07-1.37-2.46-3.29-6.22-3.57-6.96-3.96-8.48-6.64-18.25-7.49-28.73-.41-5.28-.28-10.46.27-15.73-.08.49-.03,1.02.15,1.48,0,0-.08-2.04-.08-2.04,0-.09,0-.18.01-.27l.08-.63s.1-.74.1-.74c0-.12.11-.78.26-1.3,0,0-.19,1.18-.19,1.18,0-.75.26-1.63.66-2.26,0,0-.6,1.6-.6,1.6,1.07-7.21,2.84-14.01,5.7-20.64,0,0-.23.48-.23.48.34-.81.69-1.72,1.04-2.46,1.37-3.1,3.04-6.27,4.73-9.15,0,0,2.83.1,2.83.1,17.01.81,40.76,1.19,57.5,2.14,0,0,3.37.16,3.37.16l1.6,3.38c6.04,12.9,15.07,24.46,26.03,33.56-10.7,30.25-1.63,65.81,22.63,86.84,23.59,21.45,60.4,27.14,88.95,12.58,0,.02,3.13,3.23,3.14,3.25,0,0-.83-.7-.83-.7l1.14.92s1.5,1.15,1.5,1.15c29.81,23.2,33.43,68.84,17.96,101.08-15.93,33.67-49.8,53.08-84.41,62.36h0ZM312.36,621.89c33.29-9.12,66.23-30.05,78.63-63.59,10.27-27.25,6.72-60.58-13.06-82.28-2.61-2.95-6.09-5.3-9.26-7.59-.24-.15-.66-.52-.85-.73,0,0,7.43,1.32,7.43,1.32-7.94,3.87-16.85,6.43-25.73,7.39-67.47,8.19-120.6-55.8-100.12-120.49,0,0,1.78,6.48,1.78,6.48-10.91-10.01-19.51-22.27-25.37-35.87,0,0,4.97,3.54,4.97,3.54-9.57-.67-19.13-1.42-28.69-2.19l-28.68-2.38,4.16-2.23c-4.18,6.66-7.23,13.76-9.26,21.33-.58,2.19-.84,4.2-1.64,6.09.38-.5.6-1.24.58-1.87-.16.99-.38,2.29-.63,3.55,0,0-.08-2.04-.08-2.04.12.42.18.89.18,1.33-1.56,10.39-1.19,20.09,1.02,30.06,0,0-.06-.21-.06-.21.13.43.2.89.23,1.33l-.11-.79c.99,3.89,2.28,7.97,3.79,11.67.21.71,1.82,4.03,2.62,5.75,0,0-.2-.33-.2-.33,0,0,1.86,3.31,1.86,3.31,4.53,7.51,8.37,12.34,14.31,18.11,0,0-3.6,1.47-3.6,1.47,0,0,.43-5.7.43-5.7.79-8.05,3.26-17.03,6.8-25.13,0,0-.17.81-.17.81.01-.67.39-1.3.66-1.89,0,0-.21.57-.21.57.1-.37.28-.76.49-1.08l-.26.45c.77-1.63,1.52-3.25,2.35-4.79,0,0-.1.21-.1.21.18-.37.39-.74.61-1.09l-.37.83c.15-.87.98-1.89,1.34-2.63.9-1.64,2.17-3.46,3.18-5.02,0,0-.37,1.19-.37,1.19,0-.54.3-1.24.7-1.63l.23,3.16c-7.04-5.18-14.08-10.36-21.21-15.41,0,0,.33-1.56.33-1.56.33-1.46,4.3-20.07,4.53-21.05,3.9,1.22,36.72,11.44,40.56,12.64-8.86,36.58-9.59,75.45,1.75,111.36,10.78,33.98,32,64.71,60.16,86.64,0,0,.71.55.71.55l.4.32c.96.64,1.66,1.98,1.68,3.02,0,0,.05,1.41.05,1.41l-1,.96c-2.81,2.63-10.39,10.07-13.12,12.66,0,0-2.19,2.11-2.19,2.11-6.53,5.37-9.65,14.96-7.37,22.58,3.25,9.38,6.79,18.62,10.16,27.96l-.81-.62c11.73,1.08,24.57.71,35.8-1.97h0Z" class="cls-2"/>
    </g>
    <g>
      <path d="M320.55,668.85l-26.85.09-.47-1.2-16.77-42.93c3.53.33,7.13.49,10.75.49,8.66,0,17.1-.95,25.21-2.75l8.13,46.31Z" class="cls-4"/>
      <path d="M321.07,669.28c-9.63,3.63-20.45,5.35-31.03,5.65-2.14-4.85-4.63-9.8-5.89-14.97-1.02-3.84-1.53-7.88-2.21-11.85-1.24-7.96-4.11-15.32-8.14-22.25,0,0-1.95-3.36-1.95-3.36l4.9-.56c13.86-1.7,27.66-4.26,41.06-8.16,4.46,18.03,5.39,37.48,3.27,55.5h0ZM320.04,668.43c-5.1-14.35-12.59-29.92-14.6-44.65,0,0,8.51,5.69,8.51,5.69-7.85,1.3-15.9,1.89-23.81,1.04-4.69-.5-9.38-1.97-13.95-2.82,0,0,2.95-3.91,2.95-3.91,1.73,7.83,4.61,15.18,9.09,21.88,4.59,6.6,8.65,13.45,10.87,21.19,0,0-5.43-3.7-5.43-3.7,8.53.53,17.63,3.63,26.36,5.29h0Z" class="cls-2"/>
    </g>
    <g>
      <path d="M283.39,308.19c-8.38-1.98-16.13-5.25-23.07-9.53-7.26-4.44-13.63-10-19-16.36-2.61-3.14-4.99-6.47-7.07-9.94-.27.1-.53.18-.82.24-.1-.73-.21-1.44-.34-2.17v-.03c-.96-5.99-2.27-11.93-3.83-17.75v-.03c-1.79-6.51-3.9-12.9-6.41-19.14,0,0,0-.03-.01-.06-.68-1.76-1.39-3.5-2.15-5.23.32-.2.63-.37.94-.54.45-.3.93-.6,1.39-.84,9.88-5.88,20.41-10.69,31.4-14.31h.03c5.68-1.85,11.46-3.42,17.36-4.6.38-.1.77-.17,1.17-.24,2.16-.42,4.32-.81,6.52-1.12,7.9-1.23,15.93-1.84,24.05-1.79-2.94,6.3-6.98,11.89-11.85,16.55-3.62,3.51-7.69,6.5-12.11,8.9,3.96,14.27,6.18,29.18,6.42,44.35.13,6.09-.1,12.21-.64,18.37-.43,5.09-1.07,10.19-1.98,15.28Z" class="cls-4"/>
      <path d="M283.75,308.75c-22.33-.41-43.16-14.55-54.65-33.32,0,0,7.26,2.54,7.26,2.54-.5.17-1.02.32-1.53.46,0,0-6.3,1.7-6.3,1.7l-1.04-6.71c-.14-.79-.37-2.46-.5-3.23,0,0,.26-1.13.26-1.13,0-.11-.07,2.31-.07,2.29,0,0-2.83-17.4-2.83-17.4,0,0-.28-1.74-.28-1.74,0,0,.24-.73.24-.73,0-.12.07,2.51.06,2.49-1.15-6.5-2.39-13.02-4.3-19.37l-.14-1.8c-.19.66-.03,1.63.36,2.19-1.02-2.57-1.69-5.47-2.69-8.08,0,0,1.76-.87,1.76-.87,10.36-5.35,22.64-11.57,34.16-16.3,0,0,.55-.23.55-.23l1.01.16c.13,0-1.56.08-1.54.07,15.82-6.77,32.75-11.11,50.03-11.39,0,0,9.77-.32,9.77-.32,0,0-4.01,9.41-4.01,9.41-5.14,12.24-14.55,22.79-26.35,29.02,0,0,3.47-8.18,3.47-8.18,6.63,26.24,6.81,54.96-2.71,80.47h0ZM283.02,307.63c-.16-.44-.32-.3-.3-.8,0,0,0-1.24,0-1.24,0,0-.02-2.47-.02-2.47-.1-23.94-3.12-48.16-9.99-71.02,0,0-1.6-5.4-1.6-5.4,11-5.43,20.97-13.55,26.64-24.66,0,0,5.76,9.09,5.76,9.09-16.09-.43-32.42.51-48.16,4.13,0,0-1,.24-1,.24l-.56-.17c-.12-.02,1.56-.07,1.54-.08-11.47,2.77-22.69,7.63-32.33,14.43,0,0-.18.11-.18.11,0,0-.79.54-.79.54,0,0,.98-3.17.98-3.17.84,1.74,1.75,3.45,2.65,5.18,0,0-.24-.49-.24-.49.4.6.57,1.6.39,2.3,0,0-.14-1.8-.14-1.8,3.12,6.14,6.09,12.43,8.53,18.91,0,0,.29.77.29.77,0,0-.24,1.74-.24,1.74-.02.13-.03-2.47-.04-2.44,2.28,6.21,3.99,12.67,5.02,19.26,0,0-.27,1.17-.27,1.17-.02.12.07-2.38.06-2.36,0,0,.37,2.37.37,2.37l-7.33-5c.1-.08,6.3.87,6.41.87,0,0,.96,1.65.96,1.65,9.29,16.04,23.95,28.53,40.61,36.56,0,0,1.76.86,1.76.86.67.31.68.53,1.26.93h0Z" class="cls-2"/>
    </g>
    <g>
      <path d="M373.46,453.13c-2.87,1.19-5.56,2.07-8.02,2.7-8.21,2.1-14.26,1.44-18.42.31-3.43-.91-5.59-2.15-6.66-2.43h-.11c-1.8-.76-3.7-1.4-5.62-1.96-.06-.02-.09-.02-.14-.06-2.77-.73-5.64-1.34-8.58-1.68-13.48-1.69-26.44,1.38-37.22,7.89-.11.06-.21.1-.3.17-13.58,8.32-23.64,22.11-26.78,38.71-4.74-.34-9.42-.36-14.03-.04-3.73-9.77-5.15-20.6-3.78-31.67,2.37-19.06,12.59-35.26,26.99-45.74.37-.27.73-.52,1.1-.77,7.92-5.53,17.06-9.33,26.8-10.98,2.66-.49,5.4-.77,8.14-.9h.05c4.82-.09,9.34-.13,14.63.95h.02c1.86.34,3.76.75,5.56,1.23h.04c1.4.38,2.76.79,4.09,1.23,5.06,1.71,9.81,3.98,14.2,6.75,12.31,7.72,21.74,19.32,26.85,32.87.44,1.13.83,2.24,1.19,3.39Z" class="cls-6"/>
      <path d="M374.07,453.42c-9.5,6.59-22.33,9.25-33.41,5.07-.63-.22-1.55-.54-1.44-.44,0,0,.87.14.87.14-.06.08-1.46-.31-1.57-.34-.93-.24-3.12-.81-4.01-1.05-.91-.25-1.83-.42-2.72-1,0,0,1.44.64,1.44.64-7.19-1.44-14.48-1.69-21.67-.53-6.86,1.1-13.5,3.5-19.63,6.74-5.14,2.5-13.2,8.33-17.93,14.11-5.38,6.23-9.2,14.08-10.72,22.36-5.66-.71-11.4-.74-17.07-.19-8.59-20.71-8.9-45.77,3.22-65.48,15.65-26.12,46.88-38.66,73.81-32.22,23.33,4.57,47.53,25.77,50.83,52.19h0ZM372.86,452.85c-18.9-36.03-58.43-49.11-92.52-31.55-25.58,13.52-41.24,46.63-30.84,74.71,0,0-2.07-1.32-2.07-1.32,2.39-.15,4.78-.14,7.16-.17,2.39,0,4.77.05,7.16.15l-2.25,1.74c4.84-32.19,30.52-55.75,63.6-52.17,4.79.56,9.72,1.44,14.09,3.36-.23-.15-.48-.29-.74-.39-.24-.1-.63-.2-.47-.15,1.71.69,4.29,1.79,6.01,2.51,0,0-1.46-.34-1.46-.34.17.03.82.08.99.16,3.2,1.24,4.68,2.42,7.74,3.38,6.95,2.29,14.71,1.62,21.86.2,0,0,1.04-.22,1.04-.22.16-.03.39-.09.49-.09.02.03.07.13.21.2h0Z" class="cls-2"/>
    </g>
    <g>
      <path d="M325.77,306.51c-6.24,1.99-12.75,3.29-19.45,3.65-3.48.26-7,.23-10.55-.02-.24-.03-.49-.03-.75-.07-3.73-.32-7.55-.94-11.31-1.81l-.31-.07c.11-.6.21-1.24.32-1.84.74-4.45,1.32-8.94,1.68-13.42.53-6.17.75-12.27.61-18.38-.24-15.18-2.43-30.08-6.41-44.36,4.41-2.39,8.5-5.38,12.11-8.89,6.26,8.35,11.75,17.32,16.43,26.7,1.63,3.22,3.18,6.54,4.57,9.87,4.64,10.74,8.17,22.01,10.56,33.56.52,2.45.99,4.91,1.4,7.38.45,2.54.8,5.14,1.11,7.7Z" class="cls-9"/>
      <path d="M326.33,306.87c-14.47,9.61-33.19,10.28-49.59,5.94,1.14-8.17,2.17-16.42,4-24.48,1.3-6.3,2.4-12.73,2.7-19.25.54-13.02-3.08-25.85-8.19-37.69,0,0-1.13-2.69-1.13-2.69,0,0,3.33-2.49,3.33-2.49,5.34-3.85,10.13-9.05,14.45-13.97,6.66,7.89,13.34,16.16,18.58,25.08,12.05,20.81,18.42,45.55,15.86,69.55h0ZM325.21,306.15c-5.66-14.04-10.53-28.42-17.12-41.97-6.62-13.38-12.84-26.87-21.14-39.32,0,0,8.89.69,8.89.69-4.16,3.66-8.97,6.58-14.1,8.6,0,0,2.2-5.18,2.2-5.18,1.02,6.71,1.56,13.43,2.17,20.06,1.15,20.05,7.4,40.15,3.11,60.24,0,0-4.48-6.86-4.48-6.86,3.26.85,6.49,1.57,9.78,2.14,9.3,1.58,18.87,1.86,28.31,1.42.9-.03,1.35-.13,2.38.18h0Z" class="cls-2"/>
    </g>
    <g>
      <path d="M322.37,368.55c-1.26,5.4-2.77,10.71-4.49,15.86-2.62-.15-5.23-.45-7.85-.84-2.8-.41-5.59-.92-8.41-1.58-14.17-3.3-26.96-9.45-37.83-17.76-2.33-1.75-4.55-3.6-6.72-5.56-3.51-3.14-6.76-6.58-9.77-10.21-3.89-4.65-7.35-9.65-10.28-14.92-1.36-2.37-2.56-4.75-3.68-7.2.05-.34.11-.69.13-1.04.23-1.48.45-2.99.63-4.48.01-.05.02-.08,0-.14.07-.56.14-1.09.18-1.6l.02-.1c.01-.05.02-.08,0-.14v-.05l.02-.03v-.03s.01-.03,0-.06c.05-.23.06-.48.08-.69.04-.29.08-.58.1-.88.09-.63.13-1.26.2-1.9.02-.32.04-.65.07-1l.03-.49c.13-1.15.23-2.27.3-3.4.02-.43.04-.89.06-1.33.08-1.29.13-2.57.16-3.85.04-1.11.07-2.2.09-3.32,0-.38.01-.76,0-1.15.03-1.06.03-2.13,0-3.2,0-1.26-.03-2.55-.07-3.82,0-.08,0-.19-.02-.28-.04-1.35-.08-2.7-.18-4.06-.1-2.16-.25-4.33-.47-6.45-.31-3.47-.7-6.86-1.24-10.27.29-.07.55-.14.82-.25,2.07,3.46,4.43,6.8,7.07,9.94,5.36,6.36,11.72,11.92,19,16.35,6.48,4.03,13.69,7.13,21.43,9.1.53.18,1.08.31,1.62.43l.31.07c3.76.88,7.59,1.49,11.31,1.81.27.03.51.04.75.07,3.55.25,7.07.28,10.55.02,6.7-.35,13.21-1.65,19.45-3.65.56,4.64.94,9.36,1.13,14.08.45,10.39-.03,20.89-1.5,31.46v.03c-.52,3.85-1.17,7.69-1.96,11.55v.03c-.33,1.65-.69,3.29-1.06,4.9Z" class="cls-9"/>
      <path d="M322.59,391.34l-5.08-.28c-2.57-.14-5.34-.44-8.46-.91-3.1-.45-6.03-1-8.94-1.68-14.85-3.46-28.43-9.83-40.36-18.95-2.32-1.74-4.67-3.68-7.14-5.9-3.58-3.2-7.09-6.88-10.43-10.9-4.2-5.02-7.9-10.39-10.98-15.95-1.3-2.26-2.6-4.79-3.91-7.66l-.84-1.82.31-1.98c.03-.18.06-.35.07-.53l.06-.53c.16-1.04.32-2.1.46-3.15v-.06s.08-.73.08-.73l-.25-.38.73-3.8c.04-.28.06-.56.09-.85l.18-2.31c.12-1.04.21-2.05.27-3.08l.05-1.18c.08-1.34.13-2.51.15-3.69.04-1.17.07-2.21.09-3.28,0-.26.01-.49,0-.73v-.26s0-.26,0-.26c.03-.95.03-1.91,0-2.87,0-1.28-.03-2.49-.06-3.67l-.02-.3v-.07c-.03-1.27-.07-2.53-.16-3.81-.11-2.29-.25-4.34-.45-6.24-.35-3.86-.73-6.98-1.2-9.89l-.98-6.09,6-1.44,5.21-1.95,2.89,4.77c1.91,3.2,4.08,6.25,6.44,9.06,5.02,5.96,10.86,10.99,17.37,14.95,6.06,3.77,12.64,6.56,19.61,8.33l.48.14c.33.11.67.18,1.01.26l.32.07c3.49.81,6.98,1.37,10.37,1.66l.29.03c.16,0,.31.02.46.03,3.32.23,6.51.24,9.49.02,5.96-.32,11.94-1.44,17.91-3.35l7.68-2.46.97,8.01c.58,4.84.98,9.76,1.17,14.61.47,10.86-.05,21.86-1.56,32.65-.53,3.98-1.21,8.02-2.03,11.99l-.03.15c-.33,1.66-.69,3.32-1.07,4.95h0c-1.28,5.49-2.85,11.03-4.66,16.46l-1.61,4.82ZM240.21,325.3c.86,1.78,1.71,3.4,2.58,4.92,2.73,4.91,5.94,9.58,9.62,13.97,2.94,3.54,6,6.74,9.1,9.52,2.18,1.97,4.23,3.66,6.27,5.19,10.47,8,22.34,13.57,35.34,16.6,2.54.59,5.11,1.07,7.86,1.47.75.11,1.47.21,2.16.3,1.02-3.4,1.93-6.83,2.73-10.23h0c.36-1.54.7-3.11,1.01-4.69l.04-.2c.74-3.63,1.36-7.32,1.85-10.96l.04-.24c1.37-9.82,1.86-20,1.42-30.08-.08-1.96-.19-3.92-.34-5.89-4.44.98-8.86,1.59-13.23,1.82-3.51.26-7.39.25-11.38-.03l-.31-.03c-.21-.01-.43-.03-.65-.05-3.99-.35-8.07-1.01-12.14-1.95l-.32-.07c-.66-.15-1.31-.31-1.96-.52-8.22-2.11-15.99-5.42-23.1-9.84-5.34-3.25-10.31-7.12-14.85-11.54,0,.11,0,.21,0,.31l.03.34v.09c.03,1.31.06,2.65.07,3.95.02,1,.02,2.09,0,3.19.01.44,0,.88,0,1.31-.02,1.15-.05,2.28-.09,3.44-.02,1.27-.08,2.64-.17,4.03l-.06,1.19c-.08,1.32-.19,2.5-.32,3.7l-.16,2.15c-.02.19-.03.39-.05.58l.28.43-.58,2.43s-.01.07-.02.11c0,.09-.02.18-.03.27l.09.35-.27,1.29c-.14,1.12-.3,2.25-.47,3.37Z" class="cls-2"/>
    </g>
    <g>
      <path d="M378.01,261.29c.5,5.15-2.08,10.29-6.5,12.98-2.92,1.78-6.13,2.33-9.09,1.92-1.13-.16-1.86-1.29-1.55-2.39.63-2.26.67-4.71.03-7.12-1.19-4.55-4.53-7.97-8.67-9.46-.32-.11-.48-.47-.34-.77,1.67-3.47,4.82-6.2,8.86-7.26,8.1-2.13,16.4,3.4,17.25,12.1Z" class="cls-6"/>
      <path d="M378.68,261.23c.22,4.13,1.05,8.36-.39,12.68-2.02,6.56-10.22,9.73-16.31,6.72-1.89-.45-3.87-2.12-4.33-3.98-.39-1.24-.28-2.59.18-3.69.74-.86,1.25-1.92,1.39-3.05.64-5.03-4.41-7.96-8.79-7.51-3.24-.85-5.3-5.15-3.65-8.46.17-.5.36-1.03.59-1.51,3.64-8.63,14.69-13.57,23.31-9.11,6.8,3.23,7.65,11.49,8.01,17.89h0ZM377.35,261.36c-.65-5.39-6.5-6.54-10.77-5.78-3.38.31-6.96.57-9.47,3.29-.01.01-.05.05-.06.05,1.19-2.39-.06-5.6-2.21-6.57-.2-.1-.41-.19-.62-.27-.21-.07,0,.02-.02.02.12.07.48.29.6.37,6.84,4.54,8.36,13.27,9.06,20.51.04.55.05,1.11.07,1.68.23-.24.4-.65.39-1.09.02-.55-.42-1.3-1.02-1.61-.11-.08-.36-.15-.18-.17,1.73-.76,3.22-1.84,4.97-2.35,4.15-.74,9.84-2.53,9.26-8.07h0Z" class="cls-2"/>
    </g>
    <g>
      <path d="M415.31,524.61c-5.17.14-10.12-2.79-12.5-7.39-1.57-3.04-1.89-6.27-1.28-9.2.23-1.11,1.42-1.76,2.49-1.38,2.21.79,4.65,1,7.11.53,4.62-.87,8.27-3.97,10.04-7.99.14-.31.5-.45.8-.28,3.35,1.91,5.85,5.24,6.63,9.35,1.56,8.23-4.53,16.12-13.28,16.36Z" class="cls-6"/>
      <path d="M415.33,525.27c-4.14-.07-8.42.46-12.62-1.28-6.4-2.48-8.99-10.88-5.57-16.74.58-1.86,2.38-3.71,4.27-4.04,1.27-.31,2.61-.1,3.66.44.81.8,1.83,1.38,2.95,1.6,4.91.99,8.23-3.77,8.1-8.14.9-3.16,5.28-4.98,8.45-3.28.23.12.61.28.85.38,8.88,3.93,13.57,15.71,8.32,24.32-3.7,6.56-12,6.83-18.41,6.74h0ZM415.29,523.94c5.42-.27,6.98-6.03,6.52-10.34-.08-3.39-.08-6.99-2.62-9.67-.01-.01-.04-.05-.05-.07,2.3,1.36,5.59.33,6.71-1.75.12-.2.22-.4.31-.6.09-.21-.02,0-.01-.02-.08.11-.32.46-.41.58-5,6.5-13.82,7.41-21.09,7.61-.55,0-1.12-.03-1.68-.05.22.25.62.45,1.06.47.55.06,1.33-.33,1.68-.91.09-.11.18-.35.19-.17.64,1.78,1.62,3.34,2,5.13.45,4.2,1.84,9.99,7.41,9.81h0Z" class="cls-2"/>
    </g>
    <g>
      <polygon points="234.33 220.68 177.32 244.92 181.64 264.13 204.76 280.27 234.25 272.35 234.33 220.68" class="cls-4"/>
      <path d="M233.96,221.23c-12.99,7.63-27.64,18.07-41.42,23.26-4.34,1.49-9.03,2.38-13.92,3.5,0,0,1.95-3.8,1.95-3.8.35,6.62,1.33,13.12,3.12,19.48,0,0-.85-1.27-.85-1.27,3.97,2.53,8.16,4.73,12.42,6.84,3.77,1.81,9.06,4.49,12.68,6.46,0,0-4.62-.81-4.62-.81,9.61-3.4,19.25-6.76,29.08-9.46,0,0-5.3,6.9-5.3,6.9.1-16.64,4.81-34.15,6.87-51.11h0ZM234.7,220.12c4.02,18.51,7.23,38.23,6.71,57.71,0,0-5.3,1.44-5.3,1.44-10.88,2.82-21.96,4.97-33.04,6.9-7.58-6.49-14.72-14.25-22.64-20.3,0,0-.72-.55-.72-.55l-.13-.72c-1.18-7.25-3.52-14.21-6.32-21,5.65-3.52,11.15-7.29,17.34-10.37,13.79-6.49,29.68-10.51,44.1-13.11h0Z" class="cls-2"/>
    </g>
  </g>
  <g>
    <path d="M277.99,625.72l16.92,43.35h-21.81l-21.81-62.3-6.93-19.81c-.36-1.13-.62-2.27-.8-3.42-1.2-7.35,1.49-14.84,6.6-20.28l20.17-20.81c9.55,8.13,18.83,15.26,18.83,15.26l-15.98,17.03c-5.13,5.44-7.8,12.93-6.62,20.3.2,1.13.47,2.27.8,3.4l10.64,27.27Z" class="cls-4"/>
    <path d="M278.61,625.48c6.26,16.8,16.4,31.87,24.21,47.93-9.74,1.01-19.98,1.94-29.72,1.63,0,0-4.31-.09-4.31-.09-4.48-12.42-7.16-25.41-10.28-38.26-4-17.52-11.06-33.79-18.08-50.24-3.67-9.86-.12-21.53,7.21-28.94,0,0,5.91-6.61,5.91-6.61,2.82-3.11,13.23-14.73,15.89-17.66,10.18,7.59,20.49,15.74,30.17,23.95-7.31,7.52-14.83,15.35-22.56,22.41-4.89,4.39-7.85,11.34-6.77,18,1.78,8.22,4.95,19.14,8.34,27.89h0ZM277.36,625.97c-3.6-9.12-7.99-17.87-12.85-26.41,0,0-.08-.25-.08-.25l-1.2-3.21c-2.67-8.26-.67-17.58,4.57-24.51,5.11-6.44,10.66-12.64,16.16-18.74,0,0,.85,10.52.85,10.52-6.44-5.07-12.73-10.33-18.92-15.7,0,0,9.35-.45,9.35-.45l-12.77,12.23c-1.25,1.15-6.9,6.6-8.03,7.6-11.49,10.6-5.92,21.61-2.5,34.46,6,22.95,18.37,43.61,26.79,65.6,0,0-5.63-3.99-5.63-3.99,7.27-.15,14.54.14,21.81.85,0,0-4.76,6.97-4.76,6.97-4.08-15.01-6.84-30.51-12.78-44.97h0Z" class="cls-2"/>
  </g>
  <g>
    <path d="M235.85,631.22c2.45,29.84-20.67,56.11-51.65,58.65-30.98,2.54-58.09-19.6-60.54-49.45-1.44-17.59,6-33.93,18.72-44.9-.12-.79-.2-1.6-.27-2.42-1.84-22.46,15.54-42.19,38.84-44.1,23.29-1.91,43.68,14.72,45.52,37.18.47,5.71-.31,11.22-2.11,16.32,6.44,7.99,10.61,17.84,11.5,28.72Z" class="cls-1"/>
    <path d="M236.52,631.16c2.6,29.97-17.49,60.8-48.82,64.29-30.8,4.57-59.5-19.73-65.33-49.18-3.95-19.42,2.04-40.68,16.66-54.64,0,0-1.72,4.65-1.72,4.65,0,0-.43-2.64-.43-2.64-1.8-13.39,3.14-27.18,12.49-36.87,23.32-25.36,69.13-17.39,79.45,16.36,2.96,9.82,2.11,21.08-2.25,30.15,0,0-.39-2.26-.39-2.26,5.97,8.95,9.51,19.45,10.34,30.14h0ZM235.19,631.27c-.86-10.61-5.8-20.66-13.4-28.05,0,0,.35-1.5.35-1.5,2.01-8.53.7-17.16-3.22-24.72-18.35-35.27-73.58-23.47-71.46,17.76,0,0,.16,3.24.16,3.24-7.6,5.42-14.08,12.56-17.99,21.4-7.43,16.17-3.87,37.08,8.95,49.61,15.37,15.46,39.78,18.41,59.85,11.82,21.44-6.86,38.84-25.94,36.77-49.54h0Z" class="cls-5"/>
  </g>
  <path d="M189.96,608.26c-4.72-.58-9.47-1.02-14.23-1.19-6.01-.19-10.53-6.07-9.96-11.99-.54-15.86.05-32.06,3.22-47.54,3.96-18.67,9.18-37.11,10.3-56.26,0,0,.35-4.75.35-4.75-.13-6.54,5.62-12.16,12.42-11.69,3.15.1,11.28.32,14.33.42,6.55.38,12.3,6.15,12.58,12.79-1,16.83-2.56,33.97-4.75,50.67-2.18,19.05-7.34,37.54-12.29,56.01-.94,3.18-.93,6.72-2.9,9.53-2.03,2.92-5.65,4.5-9.05,4.01h0ZM190.13,606.94c2.92.36,5.92-1.21,7.23-3.73,1.38-2.68.78-5.97.99-8.93.08-6.38-.17-12.81-.28-19.21-.37-12.78.63-25.44,2-38.11,1.72-16.02,4.61-32.22,7.21-48.14.4-1.54-.55-3.18-2.14-3.66,0,0-4.67-1.03-4.67-1.03l-9.33-2.06c-1.73-.52-4,.04-5.3,1.76-1.47,1.66-1.61,5.9-2.12,8-3.58,18.84-3.01,38-3.72,57.07-.69,12.7-2.64,25.24-5.97,37.62l-2.49,9.28-.3,1.11c-1.12,3.33,1.31,7.04,4.77,7.72,4.66.99,9.37,1.73,14.1,2.31h0Z" class="cls-5"/>
  <g>
    <line y2="502.98" x2="221.73" y1="496.79" x1="171.73" class="cls-1"/>
    <path d="M171.73,496.79c15.93-5.6,35.93-3.18,50,6.18-15.92,5.66-35.92,3.13-50-6.18h0Z" class="cls-5"/>
  </g>
  <g>
    <line y2="523.2" x2="219.23" y1="517.01" x1="169.23" class="cls-1"/>
    <path d="M169.23,517.01c15.93-5.6,35.93-3.18,50,6.18-15.92,5.66-35.92,3.13-50-6.18h0Z" class="cls-5"/>
  </g>
  <g>
    <circle r="23.73" cy="618.28" cx="181.52" class="cls-9"/>
    <path d="M205.83,616.28c.38,6.73.23,13.7-2.98,20.09-8.43,15.55-27.3,13.25-38.08,1.63-7.26-7.02-13.07-17.88-10.94-28.63,2.34-11.64,13.07-21.2,25.16-21.85,17.45-1.08,26.13,13.15,26.83,28.75h0ZM204.5,616.39c-1.69-15.9-26.18-19.01-36.28-9.39-10.42,9.86-9.43,28.84,7.16,30.37,5.16.17,9.7-1.47,14.27-3.24,7.4-2.57,15.96-8.65,14.84-17.74h0Z" class="cls-2"/>
  </g>
  <path d="M455.47,534.81c12.23-8.99,29.31-9.05,41.54,0-12.22,9.05-29.3,8.99-41.54,0h0Z" class="cls-2"/>
  <g>
    <line y2="561.81" x2="495.67" y1="547.14" x1="456.81" class="cls-4"/>
    <path d="M456.81,547.14c14.52-4.12,30.72,1.93,38.86,14.67-14.53,4.18-30.68-1.98-38.86-14.67h0Z" class="cls-2"/>
  </g>
  <g>
    <line y2="537.88" x2="496.49" y1="547.14" x1="456" class="cls-4"/>
    <path d="M456,547.14c9.82-11.46,26.66-15.38,40.49-9.27-9.79,11.52-26.66,15.32-40.49,9.27h0Z" class="cls-2"/>
  </g>
</svg>