<?xml version="1.0" encoding="UTF-8"?>
<svg id="Capa_1" data-name="Capa 1" xmlns="http://www.w3.org/2000/svg" viewBox="0 0 400 400">
  <defs>
    <style>
      .cls-1 {
        fill: #f0d387;
      }

      .cls-2 {
        fill: #fcf1dc;
      }

      .cls-3 {
        fill: #802f13;
      }

      .cls-4 {
        fill: #82ae9d;
      }
    </style>
  </defs>
  <g id="_ÍCONO_LUNA_" data-name="ÍCONO (LUNA)">
    <circle class="cls-2" cx="200.1" cy="200" r="200.13"/>
    <g>
      <circle class="cls-4" cx="200.66" cy="201.58" r="158.76"/>
      <path class="cls-3" d="M200.67,367.85c-91.68,0-166.27-74.59-166.27-166.27S108.98,35.31,200.67,35.31s166.27,74.59,166.27,166.27-74.59,166.27-166.27,166.27ZM200.67,50.32c-83.4,0-151.26,67.85-151.26,151.26s67.85,151.26,151.26,151.26,151.26-67.85,151.26-151.26S284.07,50.32,200.67,50.32Z"/>
    </g>
    <g>
      <path class="cls-1" d="M246.58,258.7c-31.55,0-57.12-25.57-57.12-57.12s25.57-57.12,57.12-57.12c.34,0,.67,0,1.01,0,2.59.05,3.69-3.28,1.54-4.73-13.17-8.92-29.32-13.76-46.67-12.65-37.12,2.36-67.27,32.52-69.62,69.64-2.75,43.43,31.66,79.5,74.5,79.5,15.16,0,29.26-4.53,41.03-12.3,2.39-1.58,1.17-5.24-1.69-5.23-.03,0-.07,0-.1,0Z"/>
      <path class="cls-3" d="M207.34,285.23c-23.01,0-45.25-9.63-61-26.41-15.98-17.02-23.96-39.27-22.48-62.67,2.65-41.84,36.2-75.4,78.04-78.06,18.76-1.19,36.83,3.71,52.29,14.18,4.28,2.91,6.11,8.16,4.55,13.08-1.55,4.88-5.98,8.11-11.09,8.11-.07,0-.15,0-.22,0h-.85c-26.53,0-48.11,21.58-48.11,48.11s21.58,48.11,48.11,48.11h.12c5.3,0,9.9,3.41,11.43,8.5,1.52,5.03-.41,10.36-4.8,13.26-13.67,9.02-29.58,13.79-45.99,13.79ZM207.37,135.93c-1.44,0-2.89.04-4.34.14-32.82,2.09-59.13,28.41-61.21,61.22-1.16,18.37,5.1,35.85,17.64,49.2,12.55,13.36,29.55,20.73,47.87,20.73,6.43,0,12.76-.93,18.82-2.74-26.5-8.62-45.7-33.56-45.7-62.9s19.22-54.29,45.74-62.91c-6.05-1.81-12.36-2.74-18.81-2.74ZM247.63,135.46h.12-.12Z"/>
    </g>
    <path class="cls-2" d="M158.42,107.34c-8.18,0-14.83-6.65-14.83-14.83s6.65-14.83,14.83-14.83,14.83,6.65,14.83,14.83-6.65,14.83-14.83,14.83ZM158.42,92.33l-.18.18c0,.1.08.18.18.18v-.37Z"/>
    <path class="cls-2" d="M301.1,230.37c-8.18,0-14.83-6.65-14.83-14.83s6.65-14.83,14.83-14.83,14.83,6.65,14.83,14.83-6.65,14.83-14.83,14.83ZM301.1,215.36l-.18.18c0,.1.08.18.18.18v-.37Z"/>
    <path class="cls-2" d="M123.69,305.4c-8.18,0-14.83-6.65-14.83-14.83s6.65-14.83,14.83-14.83,14.83,6.65,14.83,14.83-6.65,14.83-14.83,14.83ZM123.69,290.39l-.18.18c0,.1.08.18.18.18v-.37Z"/>
  </g>
</svg>