<?xml version="1.0" encoding="UTF-8"?>
<svg id="Capa_1" data-name="Capa 1" xmlns="http://www.w3.org/2000/svg" viewBox="0 0 400 400">
  <defs>
    <style>
      .cls-1 {
        fill: #f0d387;
      }

      .cls-2 {
        fill: #fcf1dc;
      }

      .cls-3 {
        fill: #f5a218;
      }

      .cls-4 {
        fill: #802f13;
      }
    </style>
  </defs>
  <g id="_ÍCONO_SOL_" data-name="ÍCONO (SOL)">
    <circle class="cls-2" cx="200.38" cy="199.52" r="199.62"/>
    <g>
      <circle class="cls-2" cx="199.69" cy="199.52" r="158.36"/>
      <path class="cls-4" d="M199.69,365.37c-91.45,0-165.84-74.4-165.84-165.84S108.25,33.68,199.69,33.68s165.84,74.4,165.84,165.84-74.4,165.84-165.84,165.84ZM199.69,48.65c-83.19,0-150.87,67.68-150.87,150.87s67.68,150.87,150.87,150.87,150.87-67.68,150.87-150.87S282.88,48.65,199.69,48.65Z"/>
    </g>
    <g>
      <circle class="cls-1" cx="198.33" cy="213.65" r="70.5"/>
      <path class="cls-4" d="M198.33,291.64c-43,0-77.98-34.98-77.98-77.98s34.98-77.98,77.98-77.98,77.98,34.98,77.98,77.98-34.98,77.98-77.98,77.98ZM198.33,150.64c-34.74,0-63.01,28.27-63.01,63.01s28.27,63.01,63.01,63.01,63.01-28.27,63.01-63.01-28.27-63.01-63.01-63.01Z"/>
    </g>
    <g>
      <path class="cls-3" d="M44.05,228.66c13.68,73.54,78.14,129.23,155.64,129.23s141.96-55.69,155.64-129.23H44.05Z"/>
      <path class="cls-4" d="M199.69,365.37c-79.85,0-148.41-56.92-163-135.34l-1.65-8.85h329.29l-1.65,8.85c-14.59,78.42-83.14,135.34-163,135.34ZM53.34,236.14c16.59,66.72,76.75,114.25,146.36,114.25s129.76-47.53,146.36-114.25H53.34Z"/>
    </g>
    <rect class="cls-4" x="192.21" y="103.42" width="14.97" height="39.73" transform="translate(-.16 .26) rotate(-.08)"/>
    <rect class="cls-4" x="271.91" y="198.78" width="35.32" height="14.97"/>
    <rect class="cls-4" x="264.75" y="172.68" width="36.47" height="14.97" transform="translate(-41.82 96.24) rotate(-18)"/>
    <rect class="cls-4" x="254.22" y="148.74" width="34.71" height="14.97" transform="translate(-39.96 189.5) rotate(-36.01)"/>
    <rect class="cls-4" x="230.93" y="132.64" width="39.69" height="14.97" transform="translate(-10.07 260.47) rotate(-53.96)"/>
    <rect class="cls-4" x="207.41" y="120.13" width="36.9" height="14.97" transform="translate(46.58 315.12) rotate(-75.75)"/>
    <rect class="cls-4" x="92.15" y="198.78" width="35.32" height="14.97"/>
    <rect class="cls-4" x="108.91" y="161.93" width="14.97" height="36.47" transform="translate(-90.92 235.19) rotate(-72)"/>
    <rect class="cls-4" x="120.32" y="138.87" width="14.97" height="34.71" transform="translate(-73.71 167.79) rotate(-54)"/>
    <rect class="cls-4" x="141.13" y="120.28" width="14.97" height="39.69" transform="translate(-53.99 114.2) rotate(-36.03)"/>
    <rect class="cls-4" x="166.04" y="109.17" width="14.97" height="36.9" transform="translate(-26.07 46.64) rotate(-14.25)"/>
  </g>
</svg>