<?xml version="1.0" encoding="UTF-8"?>
<svg id="Capa_1" data-name="Capa 1" xmlns="http://www.w3.org/2000/svg" viewBox="0 0 595.28 841.89">
  <defs>
    <style>
      .cls-1 {
        fill: #f0d387;
      }

      .cls-2 {
        fill: #803014;
      }

      .cls-3 {
        fill: #fcf1dc;
      }

      .cls-4 {
        fill: #c55717;
      }

      .cls-5 {
        fill: #f5a218;
      }

      .cls-6 {
        fill: #802f13;
      }

      .cls-7 {
        fill: #fffffd;
      }

      .cls-8 {
        fill: #82ae9d;
      }

      .cls-9 {
        fill: #df5f10;
      }
    </style>
  </defs>
  <g>
    <g>
      <path class="cls-9" d="M98.2,405.82c-1.02-8.03-1.55-16.22-1.55-24.53,0-106.54,86.36-192.9,192.9-192.9,106.54,0,192.9,86.36,192.9,192.9,0,8.52-.55,16.92-1.62,25.15"/>
      <path class="cls-2" d="M97.53,405.91c-12.03-54.76,4.97-114.9,43.18-155.81,48.05-49.46,123.02-74.21,190.96-62.53,85.4,15.47,151.58,90.48,153.48,177.7.43,13.79-.73,27.79-3.67,41.26,0,0-1.32-.17-1.32-.17,1.26-27.28-2.38-54.33-11.01-79.5-17.24-50.13-54.73-92.5-102.4-115.44-49.65-23.59-110.37-27.59-160.12-1.82-42.43,22.19-75.33,63.41-93.2,107.29-10.95,28.1-15.58,58.1-14.57,88.86,0,0-1.32.17-1.32.17h0Z"/>
    </g>
    <g>
      <path class="cls-6" d="M486.42,406.44h-11.25c1.05-8.05,1.73-16.98,1.73-25.15,0-103.3-84.04-187.35-187.35-187.35s-187.35,84.04-187.35,187.35c0,7.98.57,17.2,1.57,25.04l-11.11.02c-1.05-8.3-1.57-16.62-1.57-25.06,0-109.43,89.03-198.45,198.45-198.45s198.45,89.02,198.45,198.45c0,8.64-.47,16.63-1.58,25.15Z"/>
      <path class="cls-2" d="M487.4,407.55h-13.49l.16-1.25c1.11-8.49,1.72-17.38,1.72-25.01,0-102.69-83.55-186.24-186.24-186.24s-186.24,83.55-186.24,186.24c0,8.02.57,17.1,1.56,24.9l.16,1.25-13.35.02-.12-.97c-1.06-8.36-1.58-16.6-1.58-25.2,0-110.04,89.52-199.56,199.56-199.56s199.56,89.52,199.56,199.56c0,8.94-.5,16.98-1.59,25.3l-.13.97ZM476.43,405.33h9.01c.98-7.88,1.44-15.55,1.44-24.04,0-108.81-88.53-197.34-197.34-197.34s-197.34,88.53-197.34,197.34c0,8.17.47,16.02,1.44,23.95h8.87c-.91-7.62-1.43-16.26-1.43-23.95,0-103.92,84.54-188.46,188.46-188.46s188.46,84.54,188.46,188.46c0,7.35-.56,15.84-1.57,24.04Z"/>
    </g>
  </g>
  <polygon class="cls-2" points="282.25 232.92 288.85 187.87 295.58 232.91 282.25 232.92 282.25 232.92"/>
  <polygon class="cls-2" points="233.58 252.25 223.06 198.29 246.26 248.13 233.58 252.25 233.58 252.25"/>
  <polygon class="cls-2" points="207.7 297.56 163.7 228.54 218.31 289.51 207.7 297.56 207.7 297.56"/>
  <polygon class="cls-2" points="132 356.83 101.61 340.01 136.09 344.15 132 356.83 132 356.83"/>
  <path class="cls-2" d="M125.99,401.46c-1.46,3.05-4.02,6.48-6.78,4.89-2.4-2.27-3.48-5.61-6.78-1.91-.99,1.11-2.04,2.21-3.39,2.65-1.13.51-2.26,1.05-3.39.82-3.12-.85-4.93-3.09-6.78-6.45,0,0,0-1.33,0-1.33,1.13-2.17,2.26-3.59,3.39-4.58,1.13-1.03,2.26-1.65,3.39-1.87,1.73-.2,3.57.78,5.08,1.77,1.39,1.11,3.24,4.1,5.08,3.2,1.63-.54,2.83-4.38,5.08-3.8,2.5.74,3.46,2.14,5.08,5.27,0,0,0,1.33,0,1.33h0Z"/>
  <rect class="cls-2" x="451.76" y="394.21" width="28.47" height="13.33"/>
  <polygon class="cls-2" points="441.33 344.24 476.2 339.92 445.45 356.92 441.33 344.24 441.33 344.24"/>
  <polygon class="cls-2" points="399.8 311.95 453.32 281.3 407.64 322.73 399.8 311.95 399.8 311.95"/>
  <polygon class="cls-2" points="359.68 291.92 414.01 228.54 370.45 299.75 359.68 291.92 359.68 291.92"/>
  <polygon class="cls-2" points="325.17 246.03 348.37 196.19 337.85 250.15 325.17 246.03 325.17 246.03"/>
  <g>
    <g>
      <rect class="cls-9" x="80.53" y="400.55" width="67.54" height="67.79"/>
      <path class="cls-2" d="M148.54,468.82c-23.88,4.3-49.49,6.77-73.96,4.66.7-13.03,3.26-26.04,3.8-39.03.48-11.33-.25-22.63-1.5-33.9,0,0-.34-3.25-.34-3.25l3.98-.4c24.79-2.79,49.85-3.84,74.78-3.34-.14,25.08-2.63,50.71-6.77,75.25h0ZM147.59,467.87c-2.74-21.95-6.23-45.34-6.65-67.32,0,0,7.12,7.12,7.12,7.12-22.54.07-45.13-.91-67.54-3.47,0,0,3.65-3.65,3.65-3.65-.58,5.65-1.16,11.3-1.41,16.95-1.24,17.06,1.7,33.92,3.33,50.85,0,0-5.57-5.57-5.57-5.57,22.67-1.42,44.33,2.08,67.07,5.1h0Z"/>
    </g>
    <g>
      <path class="cls-8" d="M453.01,387.17c0-35.06-24.31-64.81-57.77-72.29v-19.04h-32.51c-5.35-35.94-35.97-62.94-73.22-62.94-.19,0-.39,0-.59.02l-.59-.02c-37.26,0-67.87,27-73.22,62.94h-32.51v19.04c-33.46,7.49-57.77,37.23-57.77,72.29,0,20.99,8.81,40.77,24.26,54.82v227.82h113.4c0-.56,0-1.13-.02-1.69v-.71c.44-23.7,7.4-45.79,19.14-64.58,1.24-1.98,2.51-3.89,3.84-5.77,0-.02.02-.02.04-.04.38-.56.78-1.11,1.18-1.67,3.73-5.11,7.84-9.95,12.3-14.44.98-1.02,2-2,3.04-2.98,3.34-3.16,6.86-6.12,10.52-8.9,27-3.33,52.26-12.28,74.57-25.66.61,0,1.21-.04,1.82-.04.51,0,1.04,0,1.58.02h.09c.51,0,1,0,1.51.02,12.61.31,24.76,2.47,36.2,6.22v-39.43c.38-.41.77-.8,1.15-1.21v-60.3l-1.15-1.28v-4.99c15.73-14.08,24.71-34.03,24.71-55.22Z"/>
      <path class="cls-2" d="M452.34,387.17c.26-34.2-25.36-65.08-59.21-70.51-.01-3.27-.62-17.81-.65-20.83,0,0,2.75,2.75,2.75,2.75l-32.51,1.05-3.13.1c-4.84-35.05-35.01-61.36-70.4-60.89-35.69-.4-65.79,26.58-70.01,61.97,0,0-4.09-.09-4.09-.09,0,0-32.51-.74-32.51-.74,0,0,4.15-4.15,4.15-4.15-.14,2.28-.41,20.46-.52,22.06-26.79,4.27-49.82,24.46-56.87,50.91-7.1,25.73,1.55,54.84,21.94,72.18,0,0,.01,1.01.01,1.01,0,0,.33,28.48.33,28.48,1.14,63.19,3.01,136.28,3.51,199.34,0,0-6.07-6.07-6.07-6.07,0,0,113.4-.93,113.4-.93l-6.99,6.99c-.29-20.45,4.65-40.95,13.66-59.29,3.01-6.12,6.58-11.99,10.49-17.56l-1.3,4.04c-.04-1.56.73-3.54,1.76-4.63,1.09-1.17,1.52-1.27,1.6-1.36.14-.09-.69.41-1.22.97,0,0-.86,1.04-.86,1.04,2.1-2.98,4.15-5.59,6.37-8.25,7-8.36,15.11-15.87,23.92-22.31,26.04-2.81,51.44-11.09,74.24-24,0,0,1.45-.83,1.45-.83,1.27-.02,2.86.03,4.17.05,13.58.35,27.18,2.97,39.93,7.61,0,0-5.95,4.31-5.95,4.31l1.27-39.43s.05-1.4.05-1.4c0,0,.84-.83.84-.83,0,0,1.17-1.16,1.17-1.16,0,0-.85,2.18-.85,2.18.47-15.04,1.42-45.26,1.74-60.3,0,0,.37.98.37.98,0,0-1.13-1.3-1.13-1.3,0,0-.38-.44-.38-.44,0,0,0-.53,0-.53,0,0,.09-4.99.09-4.99,0,0,.01-.63.01-.63,15.94-13.3,25.39-33.8,25.39-54.59h0ZM453.67,387.17c.22,21.08-8.97,41.91-24.48,56.23,0,0,.45-1.01.45-1.01,0,0,.09,4.99.09,4.99,0,0-.37-.96-.37-.96,0,0,1.17,1.26,1.17,1.26,0,0,.36.39.36.39,0,0,.02.59.02.59,0,0,.78,30.15.78,30.15,0,0,.96,30.15.96,30.15,0,0,.04,1.18.04,1.18-.5.52-1.51,1.74-2.02,2.27,0,0,.89-2.23.89-2.23,0,0,1.27,39.43,1.27,39.43,0,0,.2,6.09.2,6.09-11.61-3.66-23.68-6.15-35.84-6.58-3.24-.13-6.73-.17-10.01,0,0,0,2.87-.82,2.87-.82-11.53,7.33-23.92,13.31-36.78,17.93-12.87,4.69-26.3,7.82-39.9,9.6l3.3-1.34c-10.13,7.66-18.83,17.29-26.17,27.57-.55.57-1.39,1.09-1.27,1.01.08-.09.49-.19,1.57-1.34,1.03-1.14,1.77-2.99,1.75-4.6,0,0-1.3,4.04-1.3,4.04-15.57,22-22.85,48.87-21.77,75.71-6.77-.08-119.44-.96-126.52-1.03.26-54.82,2.03-121.76,3.04-176.88.39-14.2.7-42.76.87-56.96,0,0,.73,1.64.73,1.64-20.67-18.82-29.47-48.92-22.43-75.93,6.77-27.3,29.13-49.76,56.63-56.44,0,0-2.89,3.61-2.89,3.61l-.44-19.04s-.09-4.05-.09-4.05l4.24-.1,32.51-.74s-4.83,4.16-4.83,4.16c3.27-28.42,23.62-53.92,50.68-63.38,46.81-16.96,99.42,12.2,105.53,63.54,0,0-3.75-3.24-3.75-3.24,0,0,32.51,1.05,32.51,1.05,0,0,2.83.09,2.83.09,0,0-.08,2.66-.08,2.66l-.59,19.04-1.68-2.1c33.49,8.04,58.43,40.09,57.97,74.4h0Z"/>
    </g>
    <g>
      <path class="cls-8" d="M427.89,599.42s-.09-.04-.13-.07c-.27-.16-.56-.29-.82-.44-.36-.2-.69-.38-1.04-.56-.36-.2-.73-.38-1.09-.56-.47-.22-.93-.47-1.4-.67-.24-.13-.49-.24-.76-.36-.51-.24-1.02-.47-1.53-.69-.29-.13-.58-.27-.87-.38-.58-.24-1.18-.49-1.78-.73-.47-.2-.95-.38-1.42-.56-.38-.13-.73-.27-1.09-.4-.33-.11-.64-.22-.95-.33-.29-.09-.6-.2-.89-.29-.2-.07-.42-.13-.64-.2-.24-.09-.51-.18-.76-.24-.42-.13-.84-.27-1.27-.38-.49-.16-1-.29-1.49-.42-.33-.09-.67-.18-1-.27-.27-.07-.51-.13-.78-.2-.24-.04-.47-.11-.71-.16-.51-.13-1.02-.24-1.53-.36-.04,0-.11-.02-.16-.04-.53-.11-1.09-.22-1.62-.31-.2-.04-.4-.09-.62-.13-.04,0-.11,0-.16-.02-.33-.04-.64-.11-.95-.16-.44-.09-.91-.16-1.38-.22-.33-.07-.67-.11-1-.16-.4-.04-.8-.11-1.2-.16-.4-.04-.8-.09-1.2-.13-.31-.04-.6-.07-.89-.09-.04-.02-.11-.02-.16-.02-.42-.04-.82-.09-1.24-.11-.78-.07-1.58-.11-2.35-.16-.84-.04-1.69-.07-2.53-.09h-1.58c-.8,0-1.58,0-2.35.02-.09,0-.16,0-.24.02-.27,0-.56,0-.84.02-.22,0-.47.02-.71.02-.29.02-.6.04-.91.07-.75.04-1.53.09-2.29.16-.58.07-1.15.13-1.73.18-.73.09-1.44.18-2.18.29-.16.02-.31.04-.47.07h-.09c-.2.04-.42.07-.62.11-.6.09-1.22.2-1.84.29-.31.07-.64.13-.96.2-.51.09-1.04.2-1.58.31-.36.07-.71.16-1.07.24-.2.04-.38.07-.56.11-.2.04-.38.09-.56.13-.11.02-.2.07-.31.07-.27.09-.53.13-.8.22-.33.09-.67.18-1,.27-.13.02-.27.07-.38.09-.51.16-1,.29-1.51.42l-1.27.4c-.36.11-.69.22-1.04.33-.36.11-.69.24-1.02.36-.36.11-.69.24-1.04.36-.44.18-.91.33-1.35.51-.51.2-1.04.4-1.56.62-1.38.56-2.75,1.15-4.09,1.8-.36.16-.71.33-1.07.51-.02,0-.07.04-.11.04-.69.36-1.38.69-2.04,1.04-.27.16-.51.29-.78.42-1.13.62-2.27,1.27-3.35,1.93-.24.16-.49.29-.73.44-.33.22-.69.42-1.02.64-.24.16-.47.31-.71.47l-.8.53c-.27.18-.53.36-.8.56-.27.18-.53.38-.8.56-1.33.95-2.64,1.95-3.93,2.98-.22.18-.44.36-.67.56-.24.2-.49.4-.73.62-.27.2-.51.42-.76.62-.31.29-.62.56-.95.84l-.07.07c-.4.33-.78.69-1.15,1.04-.22.2-.44.42-.67.64-.47.44-.93.89-1.38,1.35-.24.22-.47.44-.69.69-.22.22-.44.44-.67.69-.29.29-.58.6-.84.89-.29.31-.56.62-.84.91-.27.31-.53.62-.8.91-.18.2-.33.4-.51.6-.53.64-1.07,1.27-1.58,1.91-.16.2-.33.42-.49.62-.42.56-.87,1.11-1.29,1.67-.22.31-.44.62-.67.93-.27.36-.51.71-.75,1.07-.22.29-.42.58-.62.89-.29.44-.6.89-.89,1.33-.29.47-.58.91-.87,1.35-.24.4-.49.8-.73,1.2-.22.4-.44.78-.69,1.18,0,.02,0,.04-.02.04-.22.4-.47.82-.69,1.22-.22.42-.47.87-.69,1.29-.22.44-.44.87-.67,1.31-.22.42-.44.87-.64,1.31-.22.42-.42.87-.62,1.31-.16.33-.31.67-.44,1-.42.91-.82,1.87-1.2,2.8-.16.42-.33.87-.49,1.29-.16.42-.33.87-.47,1.29-.09.22-.18.44-.24.67s-.16.44-.22.64c-.24.76-.49,1.49-.73,2.24-.07.22-.13.44-.2.67-.38,1.27-.71,2.53-1.02,3.82-.07.29-.13.58-.22.87-.16.76-.33,1.49-.49,2.24,0,.09-.02.16-.02.24-.07.29-.13.58-.18.87-.02.02-.02.04-.02.07v.09c-.09.38-.16.78-.22,1.15l-.13.8-.13.87c-.09.53-.16,1.07-.22,1.58-.04.38-.09.76-.13,1.13-.02.18-.04.33-.04.49-.02.09-.02.16-.04.24-.02.24-.04.49-.07.76-.02.2-.04.38-.04.58-.04.33-.07.67-.09,1,0,.16-.02.31-.04.49-.02.38-.04.76-.07,1.15,0,.13,0,.27-.02.4-.02.44-.04.91-.07,1.35v.38c0,.24,0,.47-.02.71,0,.56-.02,1.13-.02,1.69h119.84v-70.16c-.07-.04-.16-.09-.22-.13-.07-.04-.11-.07-.18-.11Z"/>
      <path class="cls-2" d="M427.56,599.99c-5.1-2.78-10.63-4.97-16.35-6.14-2.41-.62-4.97-.64-6.24-1.08,0,0,.45.16.45.16-.76-.07-1.49-.12-2.27-.22l.4.04c-.36,0-.75-.08-1.08-.23l.65.2c-1.22-.1-2.37-.16-3.33-.17-.92-.03-2.43-.01-3.24.02,0,0-1.05-.29-1.05-.29.32.19.74.3,1.11.29l-.3-.02c-2.88.11-5.85.33-8.69.75-.26.05-.7.08-.94.13-.02,0-.07.01-.07.01.2.03.49-.03.69-.07,0,0,3.06-.81,3.06-.81-.72.11-4.28,1.08-4.9,1.05,0,0-.71.1-.71.1,0,0,.33-.01.33-.01-.93.17-2.74.48-3.66.67-1.38.2-2.88.83-4.24.89-.37.04,1.05-.12,1.01-.11-.26.08-.72.18-.97.23-2.44.49-5.3,1.72-7.61,1.91,0,0,1.77-.29,1.77-.29-.95.34-1.87.62-2.82.87,0,0,.54-.14.54-.14-.73.24-2.17.7-2.87.99-2.52.9-3.68,1.37-6.37,2.55,0,0-3.69,1.64-3.69,1.64,0,0-2.68.63-2.68.63l-.11.04s2.74-.67,2.74-.67c-3.39,1.64-6.8,3.45-10.11,5.47-2.13,1.38-4.63,2.89-6.64,4.39,0,0-.91.69-.91.69l.25-.23c-4.83,3.75-8.4,6.72-12.41,11.36-1.76,2.08-3.48,4.18-5,6.52,0,0,.38-1.34.38-1.34.04.41-.18,1.4-.93,2.01-.61.51-1.31.61-1.65.61,0,0,2.23-1.32,2.23-1.32-4.67,6.89-7.9,15.59-9.23,23.14,0,0,.04-.42.04-.42,0,0-.02.24-.02.24l-.03.32s-.03.15-.03.15c0,0-.14.71-.14.71,0,0-.62,1.2-.62,1.2.38-.33.63-.92.62-1.44-.08,1.03-.36,2.2-.44,3.41-.11.95-.19,2.53-.33,3.49,0,0,.06-.36.06-.36,0,0-.05,1.12-.05,1.12l-.02.31c-.04.8-.07,2.32-.1,3.15,0,0,.03-.29.03-.29,0,0,.06,2.56.06,2.56,0,0,.01-.24.01-.24l.08,1.69s-2.79-2.79-2.79-2.79c39.76-3.25,79.94-5.34,119.84-3.83,0,0-6.62,6.62-6.62,6.62.76-22.48,6.35-49.92,5.89-69.83h0ZM428.23,598.84s.44.26.44.26l.3.18s0,.38,0,.38c-.04,25.62,5.98,50.9,6.15,76.53-17.23.7-34.54,1.09-51.76.49-24.87-.44-50.15-1.99-74.9-4.07,0,0-2.99-.19-2.99-.19.11-1.24.24-3.33.33-4.53.29-2.85.5-4.94.82-7.14,0,0,.05-.24.05-.24l-.07.57c.22-2.06.75-4.51,1.16-6.5,0,0-.06.48-.06.48,0,0,0-.08,0-.08,0-.57.27-1.22.66-1.59,0,0-.62,1.2-.62,1.2,0,0,.22-1.02.22-1.02l-.05.47s.03-.24.03-.24c0-.37.52-2.46.61-2.85,1.47-5.48,3.12-10.6,5.29-15.76.93-1.99,1.98-4.69,2.99-6.6,0,0,2.23-1.32,2.23-1.32-.33,0-1.03.09-1.62.6-.79.64-.89,1.5-.91,1.93,0,0-.62.67-.62.67,3.35-6.94,7.32-13.7,12.23-19.69,1.94-2.24,3.49-4.26,5.87-6.38,0,0-.37.3-.37.3,1.82-1.79,4.09-3.74,6.01-5.33,3.24-2.58,7.26-5.11,10.98-7.03,0,0,2.74-.67,2.74-.67l.11-.05-2.68.63c.77-.4,1.53-.74,2.2-1.03,4.2-1.96,8.77-3.55,13.3-4.54,0,0,.56-.11.56-.11,0,0-.53.11-.53.11.8-.18,2.45-.45,3.27-.58-.21-.01-.43,0-.64.03l-.27.06s.1-.02.1-.02c0,0,.39-.07.39-.07,2.34-.41,5.6-.79,6.81-.8,0,0,1.1-.12,1.1-.12,0,0,.09,0,.09,0,0,0-.71.05-.71.05l2.04-.08c2.03-.12,4.24.08,6.25.06,0,0,.71.05.71.05,0,0-.32.01-.32.01,0,0,1.16.06,1.16.06l-1,.12c1.14-.27,2.43.06,3.57.14,3.18.4,6.87.9,9.15,1.62,0,0-1.05-.29-1.05-.29,4.26.91,6.41,1.63,9.17,2.4,4.33,1.3,15.73,5.83,22.06,9.51h0Z"/>
    </g>
  </g>
  <g>
    <g>
      <path class="cls-1" d="M407.69,489.61c.01.35.02.69.02,1.04v54.12c-.57,0-1.15-.01-1.72-.01-15.2,0-29.81,2.44-43.5,6.96v-56.77c0-26.91-10.35-51.39-27.29-69.69-.31-.34-.05-.88.41-.84,20.74,1.58,37.92,7.5,50.38,18.59,11.72,10.41,19.27,25.39,21.72,45.59-.03.03-.06.05-.09.08.03.31.05.62.07.93Z"/>
      <path class="cls-2" d="M408.36,489.57c-.26,20.24,3.99,40.16,5.17,60.28-16.67.94-33.34,2.42-49.69,5.92,0,0-6.15,1.33-6.15,1.33,1.15-11.79,2.49-23.7,2.73-35.5.16-10,0-20.17-.87-30.02-2.22-19.14-10.08-37.29-21.52-52.49-2.27-2.96-5.17-6.3-7.76-8.98-5.11-5.35-.34-13.81,6.85-12.57,27.09,1.19,55.11,13.91,64.65,40.98,3.76,9.9,5.45,19.98,6.63,29.99l.04.35-.24.21s-.09.08-.09.08l.2-.54.06.96h0ZM407.03,489.64c-.05-.28-.07-.98-.11-1.23,0,0,.23-.21.23-.21l.09-.08s-.19.56-.19.56c-4.36-37.1-37.89-54.51-71.91-57.32,5.64.53,9.13-6.65,5.19-10.77.03.03.1.11.12.14.19.23.77.91.97,1.15,19.04,22.1,26.09,48.47,23.5,77.13-.98,17.57-.11,35.2,1.86,52.7,0,0-5.61-4.06-5.61-4.06,14.54-6.52,30.7-9.66,46.62-8.33,0,0-5.51,5.44-5.51,5.44,1.41-18.32,5.12-36.68,4.75-55.12h0Z"/>
    </g>
    <g>
      <path class="cls-7" d="M230.83,313.54c-8.36,4.29-16.18,9.5-23.3,15.5-.58.51-1.19,1.02-1.8,1.54-.17.17-.34.34-.54.49-.41.39-.85.76-1.27,1.15-.1.1-.19.17-.29.27l-.02.02s-.02,0-.02.02c-.56.49-1.1,1-1.63,1.54-.15.12-.29.24-.41.39-.27.27-.56.54-.83.8-.27.24-.54.51-.8.8l-.15.15c-.46.44-.9.88-1.34,1.34-.05.05-.1.12-.15.17-.24.24-.46.46-.71.71-.22.24-.44.49-.66.73h-.02c-.34.37-.68.73-1.02,1.1-.05.05-.1.12-.15.17-.34.39-.71.76-1.05,1.15-.12.15-.24.27-.34.41-.05.05-.1.07-.12.12-.49.56-.95,1.1-1.44,1.66-6.7-2.14-13.11-4.95-19.15-8.31-.51-.29-1.05-.58-1.56-.9-2.24-1.29-4.44-2.66-6.58-4.12-1.75-1.19-3.48-2.44-5.17-3.75-24.61-18.98-40.72-48.45-41.6-81.71,10.87,23.83,29.49,43.4,52.61,55.46,1.9,1,3.83,1.93,5.78,2.83,5.21,2.36,10.65,4.36,16.25,5.95.83.24,1.68.46,2.51.68,1.1.29,2.19.56,3.29.8,2.41.56,4.87,1.05,7.36,1.44,6.17,1.02,12.5,1.54,18.98,1.54,1.78,0,3.56-.02,5.34-.12Z"/>
      <path class="cls-2" d="M231.48,313.37c-.63,1.22-2.3,2.3-3.33,3.17-6.9,5.48-13.33,11.21-19.49,17.52,0,0,.29-.27.29-.27-.91.91-.71.77-1.97,2.07,0,0-3.23,1.39-3.23,1.39,2.45.04,4.67-2.32,4.6-4.69,0,0-1.63,3.56-1.63,3.56-1.81,2.07-3.65,3.91-5.82,6.62,0,0-1.29,1.65-1.29,1.65l-2.68.12c-.11.05,3.91-1.72,3.89-1.7-.2.21-.79.94-.99,1.16-.59.75-1.02,1.24-1.57,1.92.37-.37.7-.83.92-1.31-.42.75-1.6,2.2-2.13,2.87,0,0-2.17,2.74-2.17,2.74,0,0-3.79-1.07-3.79-1.07-23.16-5.98-40.44-21.88-52.94-41.54-12.33-18.9-22.47-39.59-24.78-62.46,0,0-2.55-25.48-2.55-25.48l12.83,23.11c19.63,36.84,57.48,62.36,98.56,68.86.59.12,2.61.42,3.21.52,2.01.11,4.7.99,6.09,1.25h0ZM230.19,313.72c-2.62.41-3.68,1.53-5.91,1.65-9.75,1.35-19.46.88-29.24-.68-36.67-5.93-68.02-33.04-81.23-67.48,0,0,10.28-2.38,10.28-2.38-.34,10.4.1,21.17,3.05,31.5,7.15,27.81,28.75,43.55,53.11,55.85,4.61,2.36,9.35,4.45,14.23,6.22l-5.96,1.67s1.51-1.59,1.51-1.59c0,0-.77,1.15-.77,1.15.3-.56.71-1.1,1.16-1.55l-.69.84c.51-.68,1.26-1.45,1.87-2.06.82-.81,2.36-2.34,3.21-3.15,0,0,2.07.09,2.07.09.12,0-3.98,1.76-3.95,1.77.44-.45.88-.89,1.36-1.31,3.13-2.87,3.62-3.22,6.17-5.33,0,0-1.63,3.56-1.63,3.56-.08-2.4,2.18-4.77,4.65-4.74,0,0-3.23,1.39-3.23,1.39,8.35-6.77,18.13-12.27,28.41-15.63.3-.1.31-.01.56.08.22.11.59.18.96.12h0Z"/>
    </g>
    <g>
      <path class="cls-7" d="M312.02,230.94c-.32,12.52-2.21,24.64-5.45,36.21-.37,1.41-.79,2.8-1.24,4.21-4.54,14.52-11.23,28.08-19.7,40.33-1.88,2.75-3.89,5.4-5.95,8.01l-12.42-3.02-28.26-6.91-1.73-.42c6.49-3.64,17.7-10.63,24.24-15.44.42-.32.84-.64,1.24-.94,8.82-6.79,16.93-14.47,24.22-22.9,1.12-1.29,2.21-2.6,3.27-3.94,8.67-10.68,16.01-22.5,21.79-35.17Z"/>
      <path class="cls-2" d="M312.17,230.29c.27.58.96,1.97.98,2.9,0,0,.14.81.14.81,2.46,15.37.41,31.34-4.61,45.99-4.97,16.07-16.91,28.37-27.39,40.98,0,0-.82,1.07-.82,1.07,0,0-1.28-.34-1.28-.34-17.91-4.97-37.18-5.86-55.45-9.21,0,0,10.95-7.74,10.95-7.74,28.06-18.36,52.61-41.51,72.51-68.52,1.34-1.69,3.27-4.72,4.96-5.93h0ZM311.87,231.59c-.24,1,.15,1.49.16,2.23-.1.46-1.03,3.71-1.18,4.25-9.31,29.69-30.93,54.98-58.47,69.37-4.08,2.31-8.16,4.55-12.53,6.48,0,0-1.33-9.71-1.33-9.71,13.77,4.83,27.3,10.55,41.65,13.48,0,0-2.1.72-2.1.72,2.23-3.27,4.46-6.53,6.27-10.06,5.31-10.41,8.72-21.79,13.17-32.44,4.95-12.74,8.79-25.87,12.26-39.11,0,0,.77-2.93.77-2.93.07-.22.14-.54.21-.69.38-.51.91-.72,1.14-1.6h0Z"/>
    </g>
    <g>
      <path class="cls-9" d="M344.15,523.54v35.72c-2.72,1.36-5.38,2.8-7.99,4.33-9.24,5.39-17.8,11.81-25.53,19.13v-53.92c11.55-.52,22.77-2.32,33.52-5.24Z"/>
      <path class="cls-2" d="M344.56,523.01c4.07,12.43,6.01,26.63,5.52,39.93-6.84,3.98-14.78,5.72-21.95,9.09-6.16,2.91-11.35,7.42-15.6,12.67,0,0-3.7,4.58-3.7,4.58l-.94-6.57c-3.7-20.01-5.62-40.53-3.43-60.84,9.95.35,20.75.57,30.81.71,2.28.14,7.38,0,9.3.43h0ZM343.75,524.07c-.73.51-1,1.03-1.31,1.33l-1.94,1.1c-9.13,4.93-19.28,7.8-29.57,9.01,0,0,6.43-6.73,6.43-6.73,1.3,18.05-.78,36.16-3.99,53.92,0,0-4.64-2-4.64-2,5.7-4.14,11.12-8.32,16.19-13.25,5.02-5,10.26-10.11,16.55-13.56,0,0-3.31,5.35-3.31,5.35-.11-12.1,3.49-23,5.57-35.19h0Z"/>
    </g>
    <g>
      <path class="cls-4" d="M213.84,499.56v49.63c-4.52-1.17-9.14-2.13-13.83-2.84-3.75-.58-7.55-.99-11.41-1.25-2.74-.19-5.5-.3-8.29-.32v-77.52c9.49,12.38,20.79,23.29,33.52,32.31Z"/>
      <path class="cls-2" d="M214.43,499.25c5.08,18.48,6.31,38.69,4.58,57.87-6.95-2.39-15.21-5.71-22.26-7.71-5.98-1.82-12.2-2.65-18.45-2.74.38-13.61-2.86-27.15-3.83-40.67-.77-12.91-1.76-25.83-1.1-38.76,0,0,.95-20.83.95-20.83,7.41,10.73,16.8,24.64,24.97,34.68,4.15,5.21,10.73,12.96,15.13,18.15h0ZM213.25,499.86c-1.85-.56-3.66-1.31-5.37-2.13-12.75-6.23-23.93-15.4-33.07-26.26,0,0,12.45-4.22,12.45-4.22.66,12.93-.33,25.85-1.1,38.76-.89,12.89-3.98,25.8-3.84,38.76,0,0-1.99-2-1.99-2,11.61.55,23.42-1.29,34.95.84,0,0-7.2,5.58-7.2,5.58-.82-16.7,1.49-32.83,5.17-49.32h0Z"/>
    </g>
    <path class="cls-2" d="M338.16,377.15c6.68-8.5,19.48-11.38,29.41-7.52,5.08,2.18,8.89,6.35,12.74,9.42,3.86,3.17,7.83,6.04,11.93,9.45,17.71,14.38,15.64,45.61-5.76,54.95,0,0-.97-.91-.97-.91,4.53-14.22,5.3-24.16,4-37.43-.82-4.03-1.84-8.39-3.17-12.32-3.53-9.99-11.84-12.78-21.51-12.39-4.14-.09-8.11-1.04-12.24-1.25-4.21-.38-8.55-.46-13.87-.8,0,0-.57-1.2-.57-1.2h0Z"/>
    <g>
      <path class="cls-7" d="M362.5,494.94v22.35c-.9.37-1.78.73-2.68,1.07-5.09,2-10.31,3.73-15.67,5.19-10.75,2.92-21.96,4.73-33.51,5.24-2.05.1-4.09.15-6.14.17-5.73-.05-11.38-.41-16.94-1.07v-36.63c0-6.26-2.53-11.89-6.63-15.99-4.09-4.09-9.75-6.63-15.99-6.63-12.48,0-22.61,10.11-22.61,22.61v25.2c-6.56-2.83-32.61-14.05-62.02-49.22.12-1.24.24-2.49.39-3.73.12-.85.22-1.73.34-2.58.1-.58.17-1.15.27-1.73.02-.07.02-.17.05-.24.05-.39.12-.8.19-1.17.07-.54.17-1.05.27-1.56.07-.41.15-.8.22-1.22.05-.19.07-.41.12-.61.1-.49.19-.97.29-1.46.07-.34.17-.71.24-1.05.1-.49.19-.97.32-1.44.12-.49.22-.95.34-1.44.34-1.36.71-2.73,1.07-4.09.46-1.61.95-3.22,1.49-4.8.39-1.27.83-2.53,1.29-3.8.15-.37.29-.73.41-1.1.17-.46.34-.93.54-1.36.19-.56.41-1.1.63-1.61.17-.44.37-.88.54-1.34.24-.58.51-1.17.76-1.75.17-.37.32-.71.46-1.05.22-.49.41-.95.63-1.41.22-.46.44-.93.66-1.39.22-.44.44-.9.68-1.36.22-.46.44-.93.68-1.36.22-.46.46-.93.71-1.36.22-.44.46-.9.71-1.34.24-.46.49-.9.73-1.34.24-.44.49-.9.76-1.34.24-.44.51-.88.76-1.32.32-.51.63-1.02.95-1.56.22-.34.41-.68.63-1.05.22-.37.46-.71.71-1.07v-.02c.51-.83,1.07-1.66,1.63-2.49.27-.41.56-.85.85-1.27.39-.56.8-1.12,1.19-1.71.24-.32.49-.66.73-1,.29-.39.58-.8.9-1.22.29-.39.61-.8.93-1.19.49-.66,1-1.32,1.54-1.97.07-.1.15-.17.22-.27.44-.54.88-1.07,1.34-1.63.22-.27.46-.56.71-.85.58-.66,1.15-1.34,1.73-2l.17-.17c.49-.56.97-1.1,1.49-1.66.07-.07.15-.15.22-.22.46-.51.93-1,1.39-1.49.73-.76,1.46-1.51,2.22-2.24.71-.71,1.41-1.39,2.12-2.05,1.29-1.24,2.58-2.41,3.95-3.56.39-.37.78-.71,1.17-1.02.58-.51,1.17-1,1.78-1.49,3.44,4.36,7.21,8.46,11.28,12.23,18.98,17.72,44.28,28.78,72.13,29.46h.02c.9,0,1.78.02,2.68.02,3.17,0,6.29-.12,9.38-.39.97-.02,1.95-.02,2.9-.02,3.61,0,7.09.12,10.5.34,17.47,18.4,28.17,43.25,28.17,70.62Z"/>
      <path class="cls-2" d="M363.16,494.94c.02,7.66.07,15.32.36,22.99,0,0-.65.29-.65.29-23.65,10.62-49.87,17.31-75.95,15.11,0,0-4.63-.36-4.63-.36,0,0-.2-5.07-.2-5.07-.44-11.07-.59-22.14-.51-33.21l.03-3.96c0-7.42-5.14-14.21-12.26-16.49-8.65-2.93-18.93,1.7-22.54,10.32-2.11,4.71-1.66,10.22-1.94,15.31-.2,6.59-.45,13.23-.47,19.83-25.93-11.06-48.01-29.45-67.13-49.9,0,0-1.01-1.07-1.01-1.07.27-3.61.24-7.35.92-10.89,0,0,.04-.25.04-.25,0,0-.19.84-.19.84.23-1.99.64-5.08.99-7.05,1.28-7.81,3.75-16.17,6.08-22.37,2.78-7.03,5.98-13.76,9.99-20.17,0,0-1.02,3.38-1.02,3.38,0-.02-.03-1.7-.03-1.73,0,0,.94-1.5.94-1.5,7.24-11.89,16.54-22.64,27.19-31.61,0,0,5.12-4.41,5.12-4.41,7.22,9.36,15.6,18.1,25.28,24.91,16.86,12.28,37.27,19.18,58.04,20.53,2.52.2,8.6.17,11.12.23,4.01.05,9.93.85,13.9,1.18,0,0,1.99.2,1.99.2l1.01,1.21c17.13,20.69,25.58,47.29,25.54,73.75h0ZM361.83,494.94c.18-25.57-11.95-50.7-30.8-67.49,0,0,3,1.4,3,1.4l-7.41.27c-4.23.08-10.84.8-15.13,1.17-2.19.16-5.78.1-8.04.07-21.58-.75-42.82-8.24-60.3-20.9-8.74-6.38-16.55-13.97-23.1-22.57,0,0,9.62,1.11,9.62,1.11-2.35,1.92-4.84,4.03-7.07,6.07-6.93,6.33-13.03,13.5-18.28,21.29,0,.02.92-3.29.91-3.17,0,0-.04,1.91-.04,1.91l-.98,1.46c-3.69,5.44-7.02,11.51-9.75,17.5-5.48,12.22-8.6,23.23-10.2,34.56,0,0-.9-2.93-.9-2.93,4.02,5.17,8.13,10.31,12.58,15.13,13.26,14.45,28.99,27.17,47.23,34.71,0,0-2.93,1.93-2.93,1.93-.05-5.54-.28-11.07-.44-16.61-.06-5.89-1.1-11.81.92-17.56,3.82-12.7,18.04-20.9,31.15-17.78,12.73,2.54,22.29,15.1,21.66,28.09.13,11.76-.03,23.53-.49,35.29,0,0-4.83-5.43-4.83-5.43,6.07.91,12.25,1.77,18.36,1.99,18.76.9,37.89-1.4,55.55-8.08,0,0-.62.93-.62.93.27-7.45.32-14.9.33-22.35h0Z"/>
    </g>
    <g>
      <path class="cls-9" d="M287.56,491.25v105.83c-3.08-3.88-6.38-7.59-9.87-11.11-1.08-1.11-2.2-2.2-3.33-3.27-7.73-7.31-16.29-13.74-25.53-19.13-2.13-1.25-4.28-2.43-6.49-3.56v-68.77c0-12.48,10.13-22.61,22.61-22.61,6.25,0,11.89,2.53,15.99,6.62,4.09,4.09,6.62,9.74,6.62,15.99Z"/>
      <path class="cls-2" d="M288.23,491.25c-.39,17.69,4.02,35.32,5.05,52.92.49,8.82.34,17.64-.4,26.46-1.02,11.28-2.56,22.85-3.29,34.17,0,0-4.08-6.08-4.08-6.08-11.22-17.04-28.94-28.16-47.67-35.39-1.34-12.73-1.63-25.51-2.15-38.25-.43-11.73-.75-23.55-.26-35.29,3.58-34.93,51.56-32.91,52.81,1.47h0ZM286.9,491.25c.35-11.21-10.88-20.67-21.47-18.62-9.01,1.4-15.95,9.12-16.04,17.84-.04,1.04.03,2.96.04,4.02.22,21.86-.6,43.71-2.25,65.53,0,0-2.63-4.3-2.63-4.3,16.93,10.9,31.35,25.12,45.08,39.72,0,0-4.69,1.64-4.69,1.64-1.62-17.59-4.34-35.21-3.08-52.92,1.03-17.59,5.43-35.22,5.05-52.92h0Z"/>
    </g>
    <g>
      <path class="cls-1" d="M303.6,324.87l-23.56,37.33-19.15.29c-12.99,4.75-24.95,11.62-35.46,20.18-.61.49-1.19.97-1.78,1.49-.39.32-.78.66-1.17,1.02-1.36,1.15-2.66,2.32-3.95,3.56-.71.66-1.41,1.34-2.12,2.05-.76.73-1.49,1.49-2.22,2.24-.46.49-.93.97-1.39,1.49-.07.07-.15.15-.22.22-.51.56-1,1.1-1.49,1.66l-.17.17c-.58.66-1.15,1.34-1.73,2-.24.29-.49.58-.71.85-.46.56-.9,1.1-1.34,1.63-.07.1-.15.17-.22.27-.54.66-1.05,1.32-1.54,1.97-.32.39-.63.8-.93,1.19-.32.41-.61.83-.9,1.22-.24.34-.49.68-.73,1-.39.58-.8,1.15-1.19,1.71-.29.41-.58.85-.85,1.27-.56.83-1.12,1.66-1.63,2.49v.02c-.24.37-.49.71-.71,1.07-.22.37-.41.71-.63,1.05-.32.54-.63,1.05-.95,1.56-.24.44-.51.88-.76,1.32-.27.44-.51.9-.76,1.34-.24.44-.49.88-.73,1.34-.24.44-.49.9-.71,1.34-.24.44-.49.9-.71,1.36-.24.44-.46.9-.68,1.36-.24.46-.46.93-.68,1.36-.22.46-.44.93-.66,1.39-.22.46-.41.93-.63,1.41-.15.34-.29.68-.46,1.05-.24.58-.51,1.17-.76,1.75-.17.46-.37.9-.54,1.34-.22.51-.44,1.05-.63,1.61-.19.44-.37.9-.54,1.36-.12.37-.27.73-.41,1.1-.46,1.27-.9,2.53-1.29,3.8-.54,1.58-1.02,3.19-1.49,4.8-.37,1.36-.73,2.73-1.07,4.09-.12.49-.22.95-.34,1.44-.12.46-.22.95-.32,1.44-.07.34-.17.71-.24,1.05-.1.49-.19.97-.29,1.46-.05.19-.07.41-.12.61-.07.41-.15.8-.22,1.22-.1.51-.19,1.02-.27,1.56-.07.37-.15.78-.19,1.17-.02.07-.02.17-.05.24-.1.58-.17,1.15-.27,1.73-.12.85-.22,1.73-.34,2.58-.15,1.24-.27,2.49-.39,3.73-.1-.12-.39-.44-.46-.58-22.1-37.84-22.08-77.96-.63-110.37,2.7-4.09,5.65-7.99,8.8-11.75.49-.56.95-1.1,1.44-1.66.02-.05.07-.07.12-.12.1-.15.22-.27.34-.41.34-.39.71-.76,1.05-1.15.05-.05.1-.12.15-.17.34-.37.68-.73,1.02-1.1h.02c.22-.24.44-.49.66-.73.24-.24.46-.46.71-.71.05-.05.1-.12.15-.17.44-.46.88-.9,1.34-1.34l.15-.15c.27-.29.54-.56.8-.8.27-.27.56-.54.83-.8.12-.15.27-.27.41-.39.54-.54,1.07-1.05,1.63-1.54,0-.02.02-.02.02-.02l.02-.02c.1-.1.19-.17.29-.27.41-.39.85-.76,1.27-1.15.19-.15.37-.32.54-.49.61-.51,1.22-1.02,1.8-1.54,7.12-5.99,14.94-11.21,23.3-15.5,3.81-1.97,7.76-3.72,11.79-5.28.23-.09.48-.1.71-.05l12.94,3.15,1.71.41,27.78,6.8,12.21,2.97,10.38,2.53Z"/>
      <path class="cls-2" d="M304.21,324.62c-6.48,12.97-14.15,29.51-21.44,41.89-7.26.55-14.55,1.02-21.81,1.37,0,0,1.77-.33,1.77-.33-5.95,2.42-11.72,5.27-17.23,8.51-8.24,4.81-16.02,10.7-23.24,16.93-7.34,6.39-14.04,13.35-19.9,21.13,0,0,.56-1.97.56-1.97,0,.02-.1,1.39-.1,1.41-5.55,7.15-10.15,15.24-13.55,23.64-4,10.31-6.05,19.98-6.71,30.24,0,0-.35,5.48-.35,5.48,0,0-3.65-4.3-3.65-4.3-1.13-1.43-1.63-2.54-2.46-3.91,0,0-2.14-3.65-2.14-3.65-24.11-41.49-21.69-86.23,10.1-122.9,0,0-1,1.49-1,1.49.38-.71.89-1.41,1.46-1.98l-.89,1.09c.88-1.28,2.26-2.56,3.29-3.73,0,0,2.11-2.27,2.11-2.27h3.12c.11-.03-5.31,2.37-5.29,2.37,2.35-2.54,4.32-4.42,5.8-5.77,0,0-.47.43-.47.43l2.02-1.85-2.44,5.3c-.16-2.58,2.09-5.86,4.62-6.61.89-.27,1.26-.41,2.3-.45,0,0-4.82,2.07-4.82,2.07,10.75-9.89,25.56-18.84,40.26-23.98,1.8-.63,3.95-1.44,5.86-.79,0,0,.1.03.1.03l.83.25c21.17,6.36,42.78,12.71,63.3,20.85h0ZM203.48,338.65l-1.25,1.22s-.47.43-.47.43c.19-.14.36-.32.5-.51l-.44.48c-2.05,2.02-4.59,4.62-6.45,6.82-.02,0-3.23,0-3.24,0,0,0,5.23-2.27,5.23-2.27-.24.28-.83.87-1.06,1.14-.24.28-.67.75-.92,1.02.06-.07.11-.15.15-.24l-.89,1.09c.49-.49.92-1.1,1.22-1.73-6.88,8.67-14.01,17.32-18.51,27.51-11.47,24.03-11.11,52.67-2.07,77.6,1.71,4.37,3.75,9.01,5.97,13.17.3.61.68,1.36.83,1.46,0,0-4,1.19-4,1.19,1.17-9.68,3.07-18.69,6.17-28.68,2.92-9.45,6.76-19.13,11.78-28.24,0,0-.63,2.08-.63,2.08-.01,0-.06-.88-.06-.89,0,0,.62-1.11.62-1.11,13.26-25.36,36.83-44.6,64.1-53.09,6.63.11,13.27.32,19.9.6,0,0-3.74,2.1-3.74,2.1,8.32-11.7,18.11-23.07,26.76-34.68h0c-4.6-.63-8.94-.7-13.37-1.46-17.44-2.58-34.91-5.74-52.21-9.11,0,0-.11-.02-.11-.02,0,0-.05-.01-.05-.01.85.22,1.76.18,2.6-.11,0,0-1.4.64-1.4.64-12.6,5.29-28.25,16.93-34.57,23.23"/>
    </g>
    <g>
      <path class="cls-7" d="M320.33,378.13c6.7-3.96,14.49-4.41,21.25-1.89-1.05,7.14-5.19,13.76-11.89,17.72-5.06,3-10.76,3.98-16.16,3.19-1.74-.26-3.45-.69-5.09-1.31,1.05-7.14,5.19-13.76,11.89-17.71Z"/>
      <path class="cls-2" d="M320,377.56c7.47-4.71,13.96-12.24,23.53-6.53,0,0,4.67,2.82,4.67,2.82l-1.11,3.2c-1.53,4.42-5.14,7.59-7.65,10.6-2.6,3.04-4.91,6.18-7.88,9.46-6.16,6.94-17.05,8.82-25.6,5.42,0,0-5.6-2.38-5.6-2.38,2.42-15.99,6.5-16.2,19.63-22.58h0ZM320.67,378.71c-6.17,3.8-4.18,12.22-5.18,18.17,0,0-4.56-7.71-4.56-7.71,11.91,3.93,29.62,3.73,25.16-13.74,0,0,3.56,6.01,3.56,6.01-6.42.14-12.61-6.75-18.98-2.74h0Z"/>
    </g>
  </g>
  <g>
    <path class="cls-3" d="M428.3,599.66v70.17h-119.84c0-.57,0-1.14.02-1.71,0-.23.01-.46.02-.69v-.08c0-.1,0-.21,0-.31.02-.45.04-.91.06-1.36,0-.13.01-.27.03-.41.02-.38.04-.77.07-1.15.01-.16.02-.33.04-.49.02-.33.05-.66.08-.99.01-.19.03-.38.05-.57h0c.02-.26.05-.51.07-.77.01-.08.02-.16.02-.24.02-.16.04-.32.06-.48.04-.37.09-.76.14-1.13.07-.52.14-1.05.22-1.57.04-.29.09-.58.14-.87.04-.27.08-.53.13-.8.06-.39.13-.77.21-1.16,0-.03.01-.06.01-.09,0-.02,0-.04.01-.07.06-.29.11-.58.17-.87.01-.08.03-.16.04-.23.15-.76.31-1.5.49-2.24.07-.29.14-.57.21-.86.31-1.29.66-2.57,1.04-3.84.06-.22.13-.44.2-.66.23-.75.47-1.49.72-2.23.07-.22.14-.44.22-.66.07-.22.15-.44.23-.66.15-.43.31-.87.47-1.29.16-.43.32-.86.5-1.29.37-.94.77-1.88,1.18-2.81.14-.33.29-.66.44-.99.21-.44.41-.89.62-1.32.21-.44.42-.87.65-1.31.22-.44.44-.87.67-1.3.22-.43.46-.86.69-1.29.22-.41.45-.82.69-1.22,0-.02.01-.03.02-.05.22-.39.46-.78.69-1.17.24-.4.48-.8.73-1.2.28-.46.57-.91.86-1.36.29-.45.59-.9.89-1.34.2-.3.41-.59.61-.89.24-.36.5-.72.76-1.07.22-.31.45-.62.67-.92.42-.57.85-1.12,1.29-1.68.16-.2.32-.41.48-.61.51-.64,1.04-1.28,1.57-1.91.17-.2.34-.4.52-.6.26-.31.53-.61.81-.91.27-.31.55-.61.83-.91.27-.3.56-.6.84-.9.22-.23.44-.46.67-.69.22-.23.45-.46.68-.69.45-.46.91-.91,1.38-1.35.22-.22.45-.43.67-.64.38-.36.76-.71,1.15-1.05.02-.03.05-.04.07-.07.32-.28.64-.56.96-.84.24-.21.49-.42.74-.63.24-.21.49-.41.74-.62.22-.19.45-.37.67-.55,1.27-1.03,2.59-2.02,3.93-2.98.26-.19.53-.37.79-.56.27-.19.53-.37.8-.54.27-.18.54-.36.81-.54.24-.16.47-.32.72-.47.33-.22.67-.42,1.01-.64.24-.16.49-.31.73-.45,1.11-.67,2.22-1.32,3.37-1.94.25-.14.51-.27.77-.41.67-.36,1.35-.71,2.04-1.04.04-.02.09-.04.13-.06.35-.17.7-.34,1.05-.51,1.34-.64,2.71-1.24,4.09-1.8.52-.21,1.04-.41,1.56-.61.45-.17.91-.34,1.36-.51.34-.12.68-.24,1.02-.36.34-.12.69-.24,1.04-.35.34-.12.69-.22,1.04-.34.42-.14.85-.27,1.27-.39.5-.15.99-.29,1.49-.42.13-.04.26-.07.39-.11.33-.09.66-.17.99-.26.27-.07.54-.14.81-.21.1-.02.2-.04.3-.07.19-.05.37-.09.56-.13.18-.04.37-.09.56-.13.36-.08.72-.16,1.08-.24.52-.11,1.05-.22,1.57-.32.32-.06.64-.12.96-.18.61-.11,1.23-.21,1.85-.31.2-.03.41-.06.61-.09.01,0,.03,0,.04,0s.03,0,.04,0c.16-.03.32-.04.48-.07.72-.1,1.44-.19,2.16-.27.58-.06,1.16-.12,1.74-.17.76-.07,1.52-.13,2.29-.17.31-.02.61-.04.91-.05.24-.01.47-.03.7-.03.29-.01.57-.03.85-.03.07,0,.16-.01.23-.01.78-.02,1.57-.03,2.36-.03.52,0,1.05,0,1.57.02.85.01,1.69.04,2.54.09.79.04,1.57.09,2.36.15.42.03.83.07,1.25.11.05,0,.1,0,.15.01.29.03.59.06.88.09.4.04.81.09,1.21.14.4.04.8.1,1.2.16.33.04.66.09.99.14.47.07.93.14,1.39.22.31.05.62.11.94.16.06.01.11.02.17.03.21.04.42.07.62.12.54.1,1.07.21,1.61.32.06.01.11.03.16.04.52.11,1.03.22,1.54.35.23.05.46.11.69.16.27.07.53.13.79.2.33.08.66.17.99.26.5.13,1,.27,1.5.42.42.12.83.24,1.25.37.26.07.52.16.77.24.21.07.42.14.63.21.3.09.59.19.89.3.32.11.63.22.95.33.37.13.73.26,1.09.4.47.17.95.36,1.42.54.59.24,1.19.48,1.78.73.29.12.58.24.87.37.51.22,1.02.45,1.53.69.26.11.51.23.76.36.47.22.94.45,1.41.68.36.17.71.36,1.07.54.36.18.71.37,1.06.56.27.14.54.29.82.44.04.02.09.04.13.07.06.04.12.07.18.11.07.04.16.09.23.13Z"/>
    <path class="cls-2" d="M428.88,599.33c3.97,25.05,5.27,50.79,5.47,76.37-27.05,1.32-53.92-4.23-80.94-3.85-16.33,0-32.91,1.58-49.18,2.86-.17-2.57-.45-6.48-.52-8.99-.08-3.75.06-5.73.42-9.87,0,0,.11-.99.11-.99l.06-.49.03-.25s.02-.12.02-.12c0,.01.01-.07,0,.02-.2.89-.03,1.93-.07,2.77.1-5.53,1.66-11.52,3.39-16.91,1.59-4.7,3.4-8.97,5.78-13.41,0,0-.58,1.26-.58,1.26.13-.47.43-1,.67-1.43,9.23-17.35,24.99-31.12,43.6-37.59,13.72-4.75,27.3-5.58,40.02-3.34,11.46,2.03,22.65,6.62,31.72,13.96h0ZM427.73,599.99c-.03.06-.03.12-.01.14,0,0-.23-.09-.23-.09l-.48-.17s-.98-.35-.98-.35c-9.27-3.27-19.03-5.19-28.85-5.39,0,0-.49,0-.49,0,0,0-.25,0-.25,0-.01,0-.14,0-.06,0,.09.01.18.02.27.02h7.01c-6.02,0-12.94-.16-18.9.65-2.51.27-5.11.92-7.55,1.2-.34.05.81-.06.81-.05,0,0-2.08.48-2.08.48-16.26,3.76-31.01,12.86-42.31,25.1-3.19,3.45-6.09,7.26-8.58,11.25,0,0-.16.26-.16.26,0,0-.08.13-.08.13l-.04.06s-.04.07.02-.04c.25-.39.43-.83.58-1.26-2.03,3.94-4.57,7.97-6.18,12.21-1.64,4.16-2.85,7.63-3.91,12.19,0,0,.17-1.35.17-1.35,0,.88-.27,1.79-.48,2.64-.17.8-.56,2.49-.7,3.3,0,0-.29,1.65-.29,1.65,0,0,.02-.52.02-.49-.07,1.47-.68,4.42-.77,5.91,0,0-.18,1.84-.18,1.84,0,0-4.55-4.55-4.55-4.55,19.86,1.68,39.99,3.23,59.92,2.24,19.94-1,39.91-4.21,59.92-3.67,0,0-5.98,5.98-5.98,5.98.29-23.22,2.17-46.52,5.4-69.84h0Z"/>
  </g>
  <path class="cls-2" d="M262.96,670.3c.06.28-.17.68-.52.91l-1.39-1.38c-2.08-.19-3.34-.4-3.98-.6-.58-.2-1.07-.41.04-.6,1.81-.32,5.51-.5,1.53-1.17,0,0-31.81-5.46-31.81-5.46l39.44,5.4c.93.13,1.84.21,2.55.52,1.54,1.55.39,3.72-1.81,3.9-1.1.13-2.5-.25-4.05-1.54h0ZM262.02,669.36c-2.16-2.2-4.46-3.62-6.46-2.3-.41.4.04,1.03.56,1.22.26-.1.43-.19.88-.3.98-.51,8.08-.33,9.28-.38-4,.52-.28.82,1.51,1.13,1.11.19.61.37.03.55-.65.18-1.91.36-3.99.55l-1.39-1.38c-.32.23-.5.63-.41.91h0Z"/>
  <g>
    <path class="cls-5" d="M262.49,669.83h-113.4v-73.42c.24-.11.49-.22.74-.32.29-.13.57-.26.87-.37.59-.25,1.19-.49,1.78-.73.47-.19.95-.37,1.42-.54.36-.14.72-.27,1.09-.4.32-.11.63-.22.95-.33.29-.11.59-.21.89-.3.21-.07.42-.14.63-.21.26-.09.52-.17.77-.24.42-.13.83-.26,1.25-.37.5-.14,1-.29,1.5-.42.32-.09.66-.18.99-.26.26-.07.52-.13.79-.2.23-.06.46-.11.69-.16.51-.13,1.02-.24,1.54-.35.05-.01.1-.03.16-.04.54-.11,1.07-.22,1.61-.32.21-.04.41-.08.62-.12.06-.01.11-.02.17-.03.31-.06.62-.11.94-.16.46-.08.92-.16,1.39-.22.33-.05.66-.1.99-.14.4-.06.8-.11,1.2-.16.4-.05.81-.09,1.21-.14.29-.04.59-.07.88-.09.05,0,.1-.01.15-.01.42-.04.83-.08,1.25-.11.78-.06,1.57-.11,2.36-.15.84-.04,1.69-.07,2.54-.09.52-.01,1.04-.02,1.57-.02.79,0,1.58.01,2.36.03.07,0,.16,0,.23.01.28,0,.56.02.85.03.23,0,.46.02.7.03.31.01.61.03.91.05.77.05,1.53.11,2.29.17.58.05,1.16.11,1.74.17.72.08,1.44.17,2.16.27.16.03.32.04.48.07.01,0,.03,0,.04,0s.03,0,.04,0c.2.03.41.06.61.09.62.09,1.24.2,1.85.31.32.06.64.12.96.18.52.1,1.05.21,1.57.32.36.08.72.16,1.08.24.19.04.37.09.56.13.19.04.37.08.56.13.1.03.2.05.3.07.27.07.54.13.81.21.33.09.66.17.99.26.13.04.26.07.39.11.5.14.99.27,1.49.42.42.13.85.26,1.27.39.34.11.69.22,1.04.34.35.11.69.22,1.04.35.34.12.69.24,1.02.36.46.16.91.33,1.36.51.52.2,1.04.4,1.56.61,1.39.56,2.75,1.16,4.09,1.8.35.16.7.33,1.05.51.04.02.09.04.13.06.69.34,1.37.69,2.04,1.04.26.14.52.27.77.41,1.14.61,2.26,1.26,3.37,1.94.24.14.49.29.73.45.34.21.67.42,1.01.64.24.15.48.31.72.47.27.17.54.36.81.54.27.17.53.36.8.54.26.18.53.37.79.56,1.34.96,2.66,1.95,3.93,2.98.22.18.45.36.67.55.24.21.49.41.74.62.25.21.49.42.74.63.32.27.64.56.96.84.02.03.05.04.07.07.39.34.77.69,1.15,1.05.22.21.45.42.67.64.47.44.93.89,1.38,1.35.23.22.46.46.68.69.22.23.45.46.67.69.28.3.57.6.84.9.28.3.56.61.83.91.27.3.54.61.81.91.17.2.34.4.52.6.53.62,1.06,1.26,1.57,1.91.16.2.32.41.48.61.44.56.87,1.11,1.29,1.68.22.31.46.61.67.92.26.35.51.71.76,1.07.21.29.41.59.61.89.3.44.6.89.89,1.34.29.45.58.9.86,1.36.25.4.49.8.73,1.2.23.39.46.77.69,1.17.01.02.02.03.02.05.24.4.46.81.69,1.22.24.42.47.86.69,1.29.23.43.45.86.67,1.3.22.44.44.87.65,1.31.21.44.42.88.62,1.32.15.32.3.66.44.99.41.92.81,1.86,1.18,2.81.17.42.34.86.5,1.29.16.42.32.86.47,1.29.08.22.16.44.23.66.08.22.16.44.22.66.26.74.49,1.48.72,2.23.07.22.14.44.2.66.38,1.27.72,2.55,1.04,3.84.07.29.14.57.21.86.17.74.34,1.49.49,2.24.01.08.03.16.04.23.06.29.12.58.17.87,0,.03,0,.04.01.07,0,.03,0,.06.01.09.07.39.14.77.21,1.16.05.27.09.53.13.8.05.29.09.57.14.87.08.52.15,1.05.22,1.57.05.37.09.76.14,1.13.02.16.04.32.06.48,0,.08.01.16.02.24.02.26.05.51.07.76h0c.02.19.04.39.05.57.03.33.06.66.08.99.01.16.02.33.04.49.03.38.05.77.07,1.15.01.14.02.27.02.41.03.45.04.91.06,1.36,0,.13,0,.26,0,.39v.1c0,.2.01.39.02.59.01.56.02,1.14.02,1.71Z"/>
    <path class="cls-2" d="M262.96,670.3c-27.37,3.61-56.37,5.87-84.46,5.08-11.13-.51-22.02-1.7-32.88-2.65,2.88-25.98.88-52.99-1.49-78.98,9.17-5.42,19.61-9.1,30.2-10.18,8.9-1.33,20.57-.7,30.28,1.7,33.86,8.41,58.51,39.08,59.18,72.3,0,0,.01-2.6.01-2.6,0-.09,0-.18-.02-.27-.02-.11-.04-.19-.03-.13v.12c.3,5.44.38,10.24-.79,15.62h0ZM262.02,669.36c-.54-1.12-.64-2.19-.89-3.35-.44-2.08-.75-3.69-1.23-5.48-.34-1.24-.77-3-1.16-4.22-.12-.46-.31-.84-.3-1.34,0,0,.08.65.08.65-1.97-6.34-4.5-12.15-7.75-17.84-1.19-2.2-2.79-4.15-3.79-6.3.07.23.16.45.27.66,0,0,.17.31.17.31.05.08,0,.01.02.03-.35-.5-.89-1.33-1.26-1.83-12.15-17.06-30.89-28.96-51.3-33.29,0,0-2.07-.4-2.07-.4l1.05.08s-.09-.01-.09-.01c-3.14-.35-6.57-.95-9.77-1.12-7.09-.43-14.23.13-21.12,1.58-4.12.85-7.91,1.9-11.89,3.28,0,0,2.85-4.35,2.85-4.35-2.15,24.13-4.02,49.31-1.53,73.42,0,0-3.22-3.22-3.22-3.22,9.27-.86,18.32-1.89,27.29-2.33,28.75-.85,56.53,2.05,85.64,5.08h0Z"/>
  </g>
  <g>
    <path class="cls-5" d="M284.28,595.36c.41.55.8,1.11,1.2,1.67-.01.01-.03.03-.03.04-1.33,1.89-2.61,3.81-3.84,5.77-11.76,18.8-18.72,40.9-19.16,64.6,0-.13,0-.26,0-.39-.02-.45-.04-.91-.06-1.36,0-.13-.01-.27-.02-.41-.02-.38-.04-.77-.07-1.15-.01-.16-.03-.33-.04-.49-.02-.33-.05-.66-.08-.99-.01-.19-.03-.38-.05-.57h0c-.02-.26-.05-.51-.07-.77-.01-.08-.02-.16-.02-.24-.02-.16-.04-.32-.06-.48-.04-.37-.09-.76-.14-1.13-.07-.52-.14-1.05-.22-1.57-.04-.29-.09-.58-.14-.87-.04-.27-.08-.53-.13-.8-.06-.39-.13-.77-.21-1.16,0-.03-.01-.06-.01-.09,0-.02,0-.04-.01-.07-.06-.29-.11-.58-.17-.87-.01-.08-.03-.16-.04-.23-.15-.76-.31-1.5-.49-2.24-.07-.29-.14-.57-.21-.86-.31-1.29-.66-2.57-1.04-3.84-.06-.22-.13-.44-.2-.66-.23-.75-.47-1.49-.72-2.23-.07-.22-.14-.44-.22-.66-.07-.22-.15-.44-.23-.66-.15-.43-.31-.87-.47-1.29-.16-.43-.32-.86-.5-1.29-.37-.94-.77-1.88-1.18-2.81-.14-.33-.29-.66-.44-.99-.21-.44-.41-.89-.62-1.32-.21-.44-.42-.87-.65-1.31-.22-.44-.44-.87-.67-1.3-.22-.43-.46-.86-.69-1.29-.22-.41-.45-.82-.69-1.22,0-.02-.01-.03-.02-.05-.22-.39-.45-.78-.69-1.17-.24-.4-.48-.8-.73-1.2-.28-.46-.57-.91-.86-1.36-.29-.46-.59-.9-.89-1.34-.2-.3-.4-.59-.61-.89-.24-.36-.5-.72-.76-1.07-.22-.31-.45-.62-.67-.92-.42-.57-.85-1.12-1.29-1.68-.16-.2-.32-.41-.48-.61-.51-.64-1.04-1.28-1.57-1.91-.17-.2-.34-.4-.52-.6-.26-.31-.53-.61-.81-.91-.27-.31-.55-.61-.83-.91-.27-.3-.56-.6-.84-.9-.22-.23-.44-.46-.67-.69-.22-.23-.45-.46-.68-.69-.45-.46-.91-.91-1.38-1.35-.22-.22-.45-.43-.67-.64-.38-.36-.76-.71-1.15-1.05-.02-.03-.05-.04-.07-.07-.32-.28-.64-.56-.96-.84-.24-.21-.49-.42-.74-.63-.24-.21-.49-.41-.74-.62-.22-.19-.45-.37-.67-.55-1.27-1.03-2.59-2.02-3.93-2.98-.26-.19-.53-.37-.79-.56-.27-.19-.53-.37-.8-.54-.27-.18-.54-.36-.81-.54-.24-.16-.47-.32-.72-.47-.33-.22-.67-.42-1.01-.64-.24-.16-.49-.31-.73-.45-1.11-.67-2.22-1.32-3.37-1.94-.25-.14-.51-.27-.77-.41-.67-.36-1.35-.71-2.04-1.04-.04-.02-.09-.04-.13-.06-.35-.17-.7-.34-1.05-.51-1.34-.64-2.71-1.24-4.09-1.8-.52-.21-1.04-.41-1.56-.61-.45-.17-.91-.34-1.36-.51-.34-.12-.68-.24-1.02-.36-.34-.12-.69-.24-1.04-.35-.34-.12-.69-.22-1.04-.34-.42-.14-.85-.27-1.27-.39-.5-.15-.99-.29-1.49-.42-.13-.04-.26-.07-.39-.11-.33-.09-.66-.17-.99-.26-.27-.07-.54-.14-.81-.21-.1-.02-.2-.04-.3-.07-.19-.05-.37-.09-.56-.13-.18-.04-.37-.09-.56-.13-.36-.08-.72-.16-1.08-.24-.52-.11-1.05-.22-1.57-.32-.32-.06-.64-.12-.96-.18-.61-.11-1.23-.21-1.85-.31-.2-.03-.41-.06-.61-.09-.01,0-.03,0-.04,0s-.03,0-.04,0c-.16-.03-.32-.04-.48-.07-.72-.1-1.44-.19-2.16-.27-.58-.06-1.16-.12-1.74-.17-.76-.07-1.52-.13-2.29-.17-.31-.02-.61-.04-.91-.05-.24-.01-.47-.03-.7-.03-.29-.01-.57-.03-.85-.03-.07,0-.16-.01-.23-.01-.78-.02-1.57-.03-2.36-.03-.52,0-1.05,0-1.57.02-.85.01-1.69.04-2.54.09-.79.04-1.57.09-2.36.15-.42.03-.83.07-1.25.11-.05,0-.1,0-.15.01-.29.03-.59.06-.88.09-.41.04-.81.09-1.21.14-.4.04-.8.1-1.2.16-.33.04-.66.09-.99.14-.47.07-.93.14-1.39.22-.31.05-.62.11-.94.16-.06.01-.11.02-.17.03-.21.04-.42.07-.62.12-.54.1-1.07.21-1.61.32-.06.01-.11.03-.16.04-.52.11-1.03.22-1.54.35-.23.05-.46.11-.69.16-.27.07-.53.13-.79.2-.33.08-.66.17-.99.26-.5.13-1,.27-1.5.42-.42.12-.83.24-1.25.37-.26.07-.52.16-.77.24-.21.07-.42.14-.63.21-.3.09-.59.19-.89.3-.32.11-.63.22-.95.33-.37.12-.73.26-1.09.4-.47.17-.95.36-1.42.54-.59.24-1.19.48-1.78.73-.29.12-.58.24-.87.37-.24.11-.49.22-.74.32v-48.73c9.53-2.56,19.51-4.03,29.78-4.29.5-.02,1-.03,1.49-.03h.11c.52,0,1.05-.01,1.57-.01.4,0,.8,0,1.21,0,.2,0,.41.01.61.01.29,0,.58,0,.87.02.88.01,1.76.04,2.64.07.42.02.86.04,1.28.06.72.04,1.44.08,2.16.13,3.51.24,6.98.62,10.4,1.14.24.04.47.07.71.11.45.08.91.14,1.36.22.46.07.91.15,1.36.24.41.07.82.15,1.24.23,2.15.41,4.27.87,6.39,1.39.52.12,1.04.25,1.55.38,2.66.69,5.29,1.46,7.88,2.32,5.77,1.9,11.35,4.2,16.72,6.88.46.23.92.46,1.37.7,2.01,1.02,3.97,2.11,5.91,3.24,8.42,4.91,16.23,10.76,23.27,17.43,1.03.97,2.05,1.97,3.04,2.98,3.18,3.21,6.19,6.59,9,10.12,1.13,1.41,2.23,2.86,3.3,4.32Z"/>
    <path class="cls-2" d="M284.82,594.96l1.21,1.67s-.07.87-.07.87c-6.68,9.43-12.18,21.97-14.63,33.89-2.61,11.91-3.3,24.07-3.12,36.15,0,0-11.53-.11-11.53-.11-.39-4.37-.56-6.11-1.31-10.51-5.11-29.96-27-62.98-66.64-64.88-15.54-.93-30.41,4.14-43.85,12.02-.41-6.27-1.01-13.61-1.23-19.83-.63-10.82-.88-30.54-1.3-41.47,14.44-4.52,29.51-7.21,44.75-6.46,43.02,1.71,73.18,24.95,97.72,58.66h0ZM283.74,595.75c-27.46-37.93-88.9-52.53-132.94-41.7,0,0,4.9-6.38,4.9-6.38-.26,14.47-.96,34.52-1.84,48.73,0,0-6.68-4.37-6.68-4.37,2.14-.8,4.28-1.5,6.57-2.16,19.87-5.41,39.25-4,58.36,3.14,26.89,10.56,47.68,30.37,54.15,57.29.44,2.02.7,3.12.85,4.66.03-.31-.05-.71-.09-1.02.67,3.53,1.01,7.27,1.12,9.68.05,1.11.06,2.7.07,3.81,0,0-11.53-.11-11.53-.11.65-13.01,4.16-25.81,9.33-37.67,5.04-11.66,11.96-23.09,18.99-33.11,0,0-.07.87-.07.87,0,0-1.18-1.67-1.18-1.67h0Z"/>
  </g>
  <path class="cls-2" d="M308.99,670.3c.05.27-.17.66-.52.88l-1.36-1.35c-2.09-.2-3.35-.43-4.01-.65-.58-.22-1.07-.45.03-.65,1.8-.33,5.53-.48,1.56-1.21,0,0,7.63.04,7.63.04,1.04.34,2.01.84,2.44,1.77,1.22,1.7.17,3.16-1.92,3-1.01-.06-2.3-.56-3.85-1.84h0ZM308.05,669.36c-2.16-2.19-3.93-3.74-6.12-3.4-.43.18-.09.66.33.95.59.48,1.52.55,2.43.57,0,0,7.63.04,7.63.04-1.28.16-2.09.34-1.76.55.24.21,2.24.44,3.27.64,1.1.2.6.37.01.55-.66.18-1.92.36-4.02.55l-1.36-1.35c-.31.22-.5.61-.41.88h0Z"/>
  <path class="cls-2" d="M281.61,590.82c.04.09.07.19.08.29,0,0,.14.98.14.98-1.32-.49-2.78-1.04-4-1.68-5.99-2.93-12.31-7.34-17.45-12.16-4.46-4.71-7.67-12.09-14.03-14.91-2.32-1.35-6.27-2.42-9.41-3.06-.55-1.85-1.65-6.04-2.19-7.92,0,0,6.69,1.64,6.69,1.64,18.66,3.85,35.68,17.87,40.17,36.82h0ZM280.35,591.26c-4.26-1.57-8.17-4.27-12.03-6.56-11.18-6.93-20.66-15.1-30.22-24.17,0,0,5.33-3.27,5.33-3.27,0,.13-1.96-3.23-1.98-3.21,1.9,1.82,5.66,4.91,7.02,5.75,5.71,4.49,13.74,5.19,19.62,9.47,5.88,4.47,10.78,11.78,12.74,18.21.26,1.04.56,2.11.7,3.19,0,0-1.27.44-1.27.44.01.05.04.11.08.14h0Z"/>
  <g>
    <path class="cls-3" d="M428.3,549.6v50.06c-.07-.04-.16-.08-.23-.13-.06-.04-.12-.07-.18-.11-.04-.02-.09-.04-.13-.07-.27-.15-.54-.3-.82-.44-.35-.19-.7-.38-1.06-.56-.36-.19-.71-.37-1.07-.54-.47-.23-.94-.46-1.41-.68-.25-.12-.5-.24-.76-.36-.51-.24-1.02-.46-1.53-.69-.29-.13-.57-.26-.87-.37-.59-.25-1.19-.49-1.78-.73-.47-.19-.95-.37-1.42-.54-.36-.14-.72-.27-1.09-.4-.32-.11-.63-.22-.95-.33-.29-.11-.59-.21-.89-.3-.21-.07-.42-.14-.63-.21-.26-.09-.52-.17-.77-.24-.42-.13-.83-.26-1.25-.37-.5-.14-1-.29-1.5-.42-.32-.09-.66-.18-.99-.26-.26-.07-.52-.13-.79-.2-.23-.06-.46-.11-.69-.16-.51-.13-1.02-.24-1.54-.35-.05-.01-.1-.03-.16-.04-.54-.11-1.07-.22-1.61-.32-.21-.04-.41-.08-.62-.12-.06-.01-.11-.02-.17-.03-.31-.06-.62-.11-.94-.16-.46-.08-.92-.16-1.39-.22-.33-.05-.66-.1-.99-.14-.4-.06-.8-.11-1.2-.16-.4-.05-.8-.1-1.21-.14-.29-.04-.59-.07-.88-.09-.05,0-.1-.01-.15-.01-.42-.04-.83-.08-1.25-.11-.78-.06-1.57-.11-2.36-.15-.84-.04-1.69-.07-2.54-.09-.52-.01-1.04-.02-1.57-.02-.79,0-1.58.01-2.36.03-.07,0-.16,0-.23.01-.28,0-.56.02-.85.03-.23,0-.46.02-.7.03-.31.01-.61.03-.91.05-.77.05-1.53.11-2.29.17-.58.05-1.16.11-1.74.17-.72.08-1.44.17-2.16.27-.16.03-.32.04-.48.07-.01,0-.03,0-.04,0s-.03,0-.04,0c-.2.03-.41.06-.61.09-.62.09-1.24.2-1.85.31-.32.06-.64.12-.96.18-.52.1-1.05.21-1.57.32-.36.08-.72.16-1.08.24-.19.04-.37.09-.56.13-.19.04-.37.08-.56.13-.1.03-.2.05-.3.07-.27.07-.54.13-.81.21-.33.09-.66.17-.99.26-.13.04-.26.07-.39.11-.5.14-.99.27-1.49.42-.42.13-.85.26-1.27.39-.34.11-.69.22-1.04.34-.35.11-.69.22-1.04.35-.34.12-.69.24-1.02.36-.46.16-.91.33-1.36.51-.52.2-1.04.4-1.56.61-1.39.56-2.75,1.16-4.09,1.8-.35.16-.7.33-1.05.51-.04.02-.09.04-.13.06-.69.34-1.37.69-2.04,1.04-.26.14-.52.27-.77.41-1.14.61-2.26,1.26-3.37,1.94-.24.14-.49.29-.73.45-.34.21-.67.42-1.01.64-.24.15-.48.31-.72.47-.27.17-.54.36-.81.54-.27.17-.53.36-.8.54-.26.18-.53.37-.79.56-1.34.96-2.66,1.95-3.93,2.98-.22.18-.45.36-.67.55-.24.21-.49.41-.74.62-.25.21-.49.42-.74.63-.32.27-.64.56-.96.84-.03.03-.05.04-.07.07-.39.34-.77.69-1.15,1.05-.22.21-.45.42-.67.64-.47.44-.93.89-1.38,1.35-.23.22-.46.46-.68.69-.22.23-.45.46-.67.69-.28.3-.57.6-.84.9-.28.3-.56.61-.83.91-.27.3-.54.61-.81.91-.17.2-.34.4-.52.6-.53.62-1.06,1.26-1.57,1.91-.16.2-.32.41-.48.61-.44.56-.87,1.11-1.29,1.68-.22.31-.46.61-.67.92-.26.35-.51.71-.76,1.07-.21.29-.41.59-.61.89-.31.44-.6.89-.89,1.34-.29.45-.58.9-.86,1.36-.25.4-.49.8-.73,1.2-.24.39-.46.77-.69,1.17-.01.02-.02.03-.02.05-.24.4-.46.81-.69,1.22-.24.42-.47.86-.69,1.29-.23.43-.45.86-.67,1.3-.22.44-.44.87-.65,1.31-.21.44-.42.88-.62,1.32-.15.32-.3.66-.44.99-.41.92-.81,1.86-1.18,2.81-.17.42-.34.86-.5,1.29-.16.42-.32.86-.47,1.29-.08.22-.16.44-.23.66-.08.22-.16.44-.22.66-.26.74-.49,1.48-.72,2.23-.07.22-.14.44-.2.66-.38,1.27-.72,2.55-1.04,3.84-.07.29-.14.57-.21.86-.17.74-.34,1.49-.49,2.24-.01.08-.03.16-.04.23-.06.29-.12.58-.17.87,0,.03,0,.04-.01.07,0,.03,0,.06-.01.09-.07.39-.14.77-.21,1.16-.05.27-.09.53-.13.8-.05.29-.09.57-.14.87-.08.52-.15,1.05-.22,1.57-.05.37-.09.76-.14,1.13-.02.16-.04.32-.06.48,0,.08-.01.16-.02.24-.03.26-.05.51-.07.76h0c-.02.19-.04.39-.05.57-.03.33-.06.66-.08.99-.01.16-.02.33-.04.49-.03.38-.05.77-.07,1.15-.01.14-.02.27-.03.41-.02.45-.04.91-.06,1.36,0,.1,0,.21,0,.31v.08c0,.23-.01.46-.02.69-.01.56-.02,1.14-.02,1.71h-45.98c0-.57,0-1.14-.02-1.71,0-.2-.01-.39-.02-.59v-.1c.44-23.7,7.4-45.8,19.16-64.6,1.22-1.96,2.51-3.89,3.84-5.77,0-.01.02-.02.03-.04.39-.56.79-1.12,1.19-1.67,3.74-5.12,7.84-9.95,12.3-14.44.99-1.01,2.01-2.01,3.04-2.98,7.04-6.67,14.84-12.52,23.27-17.43,2.38-1.39,4.8-2.71,7.28-3.94,5.37-2.67,10.95-4.98,16.72-6.88,12.47-4.12,25.79-6.34,39.64-6.34.52,0,1.05,0,1.57.01h.11c.49,0,.99.01,1.49.03,12.62.31,24.78,2.46,36.22,6.21Z"/>
    <path class="cls-2" d="M428.84,549.21c2.17,18.49,3.65,39.14,4.47,58.02-6.89-3.37-14.44-7.21-21.93-9.1-13.5-3.87-28.46-3.43-39.59-.81-20.11,4.48-39.1,16.09-50.35,33.63-3.6,4.78-8.99,18.35-9.65,24.52-.19,1.04-.36,2.31-.51,3.33-.24,1.98-.41,3.57-.52,5.37-.11,1.74-.17,3.89-.1,5.66,0,0,.03,2.15.03,2.15,0,0-2.24.05-2.24.05-15.01.33-34.91,1.51-50.01,2.38-1.43-14.91-.12-30.15,4.12-44.57,8.52-27.96,23.06-49.66,46.71-67.22,33.87-24.76,81.28-31.2,119.57-13.42h0ZM427.76,549.99c-25.47-4.87-52.58-3.9-76.8,5.47-31.88,12.02-56.23,35.76-69.61,61.12-8.27,15.7-12.9,33.21-14.4,50.87,0,0-.1,2.38-.1,2.38l-4.36-4.36c13.67.66,32.52,2,45.98,2.16,0,0-2.2,2.2-2.2,2.2.08-2.33.26-5.69.5-7.96,3.13-30.38,23.17-62.91,55.25-74.06,21.77-7.55,47.17-5.51,68.62,7.85,0,0-6.95,3.99-6.95,3.99.82-16.59,2.43-32.8,4.08-49.67h0Z"/>
  </g>
  <g>
    <path class="cls-5" d="M219.31,669.83h-70.21v-19.74c6.79-10.55,18.62-17.54,32.1-17.54,20.77,0,37.67,16.62,38.11,37.29Z"/>
    <path class="cls-2" d="M219.78,670.29c-16.28,4.23-34.96,6.56-52.24,4.16-7.2-1.08-13.85-2.4-20.72-2.6.42-5.6.33-11.25-.23-16.84,0,0-.61-4.94-.61-4.94l-.06-.52s.56-1.16.56-1.16c12.32-28.07,53.25-30.83,69.07-4.37,4.72,7.61,6.84,17.63,4.24,26.26h0ZM218.83,669.36c-.49-1.42-1.02-2.12-1.48-3.13-.47-1.04-1.04-2.31-1.47-3.37-11.79-24.96-44.84-31.79-64.17-11.1,0,0,.49-1.68.49-1.68-.88,6.46-1.39,13.24-.96,19.74,0,0-2.15-2.15-2.15-2.15,11.34-.74,21.43-4.52,32.81-3.32,12.39.77,23.88,2.57,36.93,5h0Z"/>
  </g>
  <g>
    <path class="cls-3" d="M428.3,651.78v18.05h-71.24c.44-20.67,17.34-37.29,38.11-37.29,14.19,0,26.56,7.75,33.13,19.24Z"/>
    <path class="cls-2" d="M428.95,651.61c2.45,7.07,3.48,14.66,4.43,22.12,0,0-5.07.67-5.07.67-11.89,1.42-23.76,2.32-35.62.04-11.81-2.46-23.65-3.47-35.62-1.66,0,0-2.64.35-2.64.35-.58-5.63-.9-11.32.42-17.05,3.22-14.08,15.2-25.85,29.23-29.26,18.54-4.82,40.06,5.95,44.87,24.8h0ZM427.66,651.95c-22.6-22.33-60.59-14.15-67.66,17.94,0,0-2.94-3-2.94-3,11.97,1.81,23.81.8,35.62-1.66,11.86-2.28,23.73-1.38,35.62.04,0,0-4.56,4.56-4.56,4.56.88-5.93,2.15-12.01,3.92-17.88h0Z"/>
  </g>
  <path class="cls-2" d="M80.53,669.15c33.84-4.57,67.82-6.05,101.87-4.89,16.98.86,33.96,3.01,50.93,3.41,25.48.82,50.97-1.67,76.4-3.2,38.14-1.71,76.45-2.6,114.6-.6,21.13,1.12,42.62,2.47,63.67,5.28,0,0,0,1.33,0,1.33-21.04,2.81-42.53,4.16-63.67,5.28-38.16,2-76.46,1.12-114.6-.6-25.43-1.52-50.92-4.02-76.4-3.2-16.98.4-33.96,2.54-50.93,3.41-16.98.85-33.96.32-50.93-.37-16.98-.88-33.96-1.97-50.93-4.52,0,0,0-1.33,0-1.33h0Z"/>
  <path class="cls-2" d="M469.89,669.83c-4.55-13.6-6.06-27.53-4.89-41.63.86-6.94,3.02-13.88,3.41-20.82.88-10.44-1.72-20.9-3.2-31.22-1.1-10.37-1.94-20.81-1.77-31.22.58-14.02,2.21-28.14,6.45-41.63,0,0,1.33,0,1.33,0,8.16,26.96,7.88,55.74,2.98,83.27-1.28,6.94-1.95,13.88-1.5,20.82.39,6.94,2.55,13.88,3.41,20.82.85,6.94.32,13.88-.37,20.82-.8,6.94-1.98,13.88-4.52,20.82h-1.33Z"/>
  <g>
    <g>
      <g>
        <path class="cls-5" d="M467.56,535.3c3.93,6.03,4.71,13.26,2.74,19.67-6.55-.62-12.77-4.15-16.7-10.18-3.93-6.03-4.71-13.26-2.74-19.67,6.55.62,12.77,4.15,16.7,10.18Z"/>
        <path class="cls-2" d="M468.11,534.93c3.02,4.9,9.17,9.01,9.05,15.48.29,3.76-2.58,7.86-4.26,11.03,0,0-3.13-.98-3.13-.98-4.24-1.33-7.27-4.7-10.17-6.9-2.91-2.31-5.95-4.29-9.19-6.9-6.8-5.39-9.09-15.49-6.36-23.64,0,0,2.12-5.8,2.12-5.8,15.58,1.71,15.39,5.23,21.93,17.7h0ZM467,535.66c-3.74-5.53-11.38-2.95-16.81-3.47,0,0,7.47-5,7.47-5-2.91,10.66-2.76,27.88,13.17,22.27,0,0-5.81,3.88-5.81,3.88-.74-5.99,5.99-11.88,1.98-17.69h0Z"/>
      </g>
      <g>
        <path class="cls-5" d="M475.12,535.3c-3.93,6.03-4.71,13.26-2.74,19.67,6.55-.62,12.77-4.15,16.7-10.18,3.93-6.03,4.71-13.26,2.74-19.67-6.55.62-12.77,4.15-16.7,10.18Z"/>
        <path class="cls-2" d="M475.68,535.66c-4.01,5.81,2.72,11.69,1.98,17.69,0,0-5.81-3.88-5.81-3.88,15.93,5.62,16.07-11.62,13.17-22.27,0,0,7.47,5,7.47,5-5.43.52-13.08-2.06-16.81,3.47h0ZM474.56,534.93c6.53-12.47,6.38-16,21.93-17.7,0,0,2.12,5.8,2.12,5.8,2.73,8.14.44,18.25-6.36,23.64-3.24,2.61-6.28,4.59-9.19,6.9-2.89,2.2-5.93,5.57-10.17,6.9l-3.13.98c-1.67-3.2-4.55-7.25-4.26-11.03-.12-6.48,6.03-10.59,9.05-15.48h0Z"/>
      </g>
      <g>
        <path class="cls-5" d="M467.56,562.87c3.93,6.03,4.71,13.26,2.74,19.67-6.55-.62-12.77-4.15-16.7-10.18-3.93-6.03-4.71-13.26-2.74-19.67,6.55.62,12.77,4.15,16.7,10.18Z"/>
        <path class="cls-2" d="M468.11,562.51c3.02,4.9,9.17,9.01,9.05,15.48.29,3.76-2.58,7.86-4.26,11.03,0,0-3.13-.98-3.13-.98-4.24-1.33-7.27-4.7-10.17-6.9-2.91-2.31-5.95-4.29-9.19-6.9-6.8-5.39-9.09-15.49-6.36-23.64,0,0,2.12-5.8,2.12-5.8,15.58,1.71,15.39,5.23,21.93,17.7h0ZM467,563.23c-3.74-5.53-11.38-2.95-16.81-3.47,0,0,7.47-5,7.47-5-2.91,10.66-2.76,27.88,13.17,22.27,0,0-5.81,3.88-5.81,3.88-.74-5.99,5.99-11.88,1.98-17.69h0Z"/>
      </g>
      <g>
        <path class="cls-5" d="M475.12,562.87c-3.93,6.03-4.71,13.26-2.74,19.67,6.55-.62,12.77-4.15,16.7-10.18,3.93-6.03,4.71-13.26,2.74-19.67-6.55.62-12.77,4.15-16.7,10.18Z"/>
        <path class="cls-2" d="M475.68,563.23c-4.01,5.81,2.72,11.69,1.98,17.69,0,0-5.81-3.88-5.81-3.88,15.93,5.62,16.07-11.62,13.17-22.27,0,0,7.47,5,7.47,5-5.43.52-13.08-2.06-16.81,3.46h0ZM474.56,562.51c6.53-12.47,6.38-16,21.93-17.7,0,0,2.12,5.8,2.12,5.8,2.73,8.14.44,18.25-6.36,23.64-3.24,2.61-6.28,4.59-9.19,6.9-2.89,2.2-5.93,5.57-10.17,6.9l-3.13.98c-1.67-3.2-4.55-7.25-4.26-11.03-.12-6.48,6.03-10.59,9.05-15.48h0Z"/>
      </g>
      <g>
        <path class="cls-5" d="M467.56,590.98c3.93,6.03,4.71,13.26,2.74,19.67-6.55-.62-12.77-4.15-16.7-10.18-3.93-6.03-4.71-13.26-2.74-19.67,6.55.62,12.77,4.15,16.7,10.18Z"/>
        <path class="cls-2" d="M468.11,590.62c3.02,4.9,9.17,9.01,9.05,15.48.29,3.76-2.58,7.86-4.26,11.03,0,0-3.13-.98-3.13-.98-4.24-1.33-7.27-4.7-10.17-6.9-2.91-2.31-5.95-4.29-9.19-6.9-6.8-5.39-9.09-15.49-6.36-23.64,0,0,2.12-5.8,2.12-5.8,15.58,1.71,15.39,5.23,21.93,17.7h0ZM467,591.34c-3.74-5.53-11.38-2.95-16.81-3.47,0,0,7.47-5,7.47-5-2.91,10.66-2.76,27.88,13.17,22.27,0,0-5.81,3.88-5.81,3.88-.74-5.99,5.99-11.88,1.98-17.69h0Z"/>
      </g>
      <g>
        <path class="cls-5" d="M475.12,590.98c-3.93,6.03-4.71,13.26-2.74,19.67,6.55-.62,12.77-4.15,16.7-10.18,3.93-6.03,4.71-13.26,2.74-19.67-6.55.62-12.77,4.15-16.7,10.18Z"/>
        <path class="cls-2" d="M475.68,591.34c-4.01,5.81,2.72,11.69,1.98,17.69,0,0-5.81-3.88-5.81-3.88,15.93,5.62,16.07-11.62,13.17-22.27,0,0,7.47,5,7.47,5-5.43.52-13.08-2.06-16.81,3.46h0ZM474.56,590.62c6.53-12.47,6.38-16,21.93-17.7,0,0,2.12,5.8,2.12,5.8,2.73,8.14.44,18.25-6.36,23.64-3.24,2.61-6.28,4.59-9.19,6.9-2.89,2.2-5.93,5.57-10.17,6.9l-3.13.98c-1.67-3.2-4.55-7.25-4.26-11.03-.12-6.48,6.03-10.59,9.05-15.48h0Z"/>
      </g>
      <g>
        <path class="cls-5" d="M467.56,620.83c3.93,6.03,4.71,13.26,2.74,19.67-6.55-.62-12.77-4.15-16.7-10.18-3.93-6.03-4.71-13.26-2.74-19.67,6.55.62,12.77,4.15,16.7,10.18Z"/>
        <path class="cls-2" d="M468.11,620.47c3.02,4.9,9.17,9.01,9.05,15.48.29,3.76-2.58,7.86-4.26,11.03,0,0-3.13-.98-3.13-.98-4.24-1.33-7.27-4.7-10.17-6.9-2.91-2.31-5.95-4.29-9.19-6.9-6.8-5.39-9.09-15.49-6.36-23.64,0,0,2.12-5.8,2.12-5.8,15.58,1.71,15.39,5.23,21.93,17.7h0ZM467,621.2c-3.74-5.53-11.38-2.95-16.81-3.47,0,0,7.47-5,7.47-5-2.91,10.66-2.76,27.88,13.17,22.27,0,0-5.81,3.88-5.81,3.88-.74-5.99,5.99-11.88,1.98-17.69h0Z"/>
      </g>
      <g>
        <path class="cls-5" d="M475.12,620.83c-3.93,6.03-4.71,13.26-2.74,19.67,6.55-.62,12.77-4.15,16.7-10.18,3.93-6.03,4.71-13.26,2.74-19.67-6.55.62-12.77,4.15-16.7,10.18Z"/>
        <path class="cls-2" d="M475.68,621.2c-4.01,5.81,2.72,11.69,1.98,17.69,0,0-5.81-3.88-5.81-3.88,15.93,5.62,16.07-11.62,13.17-22.27,0,0,7.47,5,7.47,5-5.43.52-13.08-2.06-16.81,3.47h0ZM474.56,620.47c6.53-12.47,6.38-16,21.93-17.7,0,0,2.12,5.8,2.12,5.8,2.73,8.14.44,18.25-6.36,23.64-3.24,2.61-6.28,4.59-9.19,6.9-2.89,2.2-5.93,5.57-10.17,6.9l-3.13.98c-1.67-3.2-4.55-7.25-4.26-11.03-.12-6.48,6.03-10.59,9.05-15.48h0Z"/>
      </g>
      <g>
        <path class="cls-5" d="M467.56,506.08c3.93,6.03,4.71,13.26,2.74,19.67-6.55-.62-12.77-4.15-16.7-10.18-3.93-6.03-4.71-13.26-2.74-19.67,6.55.62,12.77,4.15,16.7,10.18Z"/>
        <path class="cls-2" d="M468.11,505.72c3.02,4.9,9.17,9.01,9.05,15.48.29,3.76-2.58,7.86-4.26,11.03,0,0-3.13-.98-3.13-.98-4.24-1.33-7.27-4.7-10.17-6.9-2.91-2.31-5.95-4.29-9.19-6.9-6.8-5.39-9.09-15.49-6.36-23.64,0,0,2.12-5.8,2.12-5.8,15.58,1.71,15.39,5.23,21.93,17.7h0ZM467,506.45c-3.74-5.53-11.38-2.95-16.81-3.47,0,0,7.47-5,7.47-5-2.91,10.66-2.76,27.88,13.17,22.27,0,0-5.81,3.88-5.81,3.88-.74-5.99,5.99-11.88,1.98-17.69h0Z"/>
      </g>
      <g>
        <path class="cls-5" d="M475.12,506.08c-3.93,6.03-4.71,13.26-2.74,19.67,6.55-.62,12.77-4.15,16.7-10.18,3.93-6.03,4.71-13.26,2.74-19.67-6.55.62-12.77,4.15-16.7,10.18Z"/>
        <path class="cls-2" d="M475.68,506.45c-4.01,5.81,2.72,11.69,1.98,17.69,0,0-5.81-3.88-5.81-3.88,15.93,5.62,16.07-11.62,13.17-22.27,0,0,7.47,5,7.47,5-5.43.52-13.08-2.06-16.81,3.47h0ZM474.56,505.72c6.53-12.47,6.38-16,21.93-17.7,0,0,2.12,5.8,2.12,5.8,2.73,8.14.44,18.25-6.36,23.64-3.24,2.61-6.28,4.59-9.19,6.9-2.89,2.2-5.93,5.57-10.17,6.9l-3.13.98c-1.67-3.2-4.55-7.25-4.26-11.03-.12-6.48,6.03-10.59,9.05-15.48h0Z"/>
      </g>
      <g>
        <path class="cls-5" d="M467.56,477.51c3.93,6.03,4.71,13.26,2.74,19.67-6.55-.62-12.77-4.15-16.7-10.18-3.93-6.03-4.71-13.26-2.74-19.67,6.55.62,12.77,4.15,16.7,10.18Z"/>
        <path class="cls-2" d="M468.11,477.14c3.02,4.9,9.17,9.01,9.05,15.48.29,3.76-2.58,7.86-4.26,11.03,0,0-3.13-.98-3.13-.98-4.24-1.33-7.27-4.7-10.17-6.9-2.91-2.31-5.95-4.29-9.19-6.9-6.8-5.39-9.09-15.49-6.36-23.64,0,0,2.12-5.8,2.12-5.8,15.58,1.71,15.39,5.23,21.93,17.7h0ZM467,477.87c-3.74-5.53-11.38-2.95-16.81-3.47,0,0,7.47-5,7.47-5-2.91,10.66-2.76,27.88,13.17,22.27,0,0-5.81,3.88-5.81,3.88-.74-5.99,5.99-11.88,1.98-17.69h0Z"/>
      </g>
      <g>
        <path class="cls-5" d="M475.12,477.51c-3.93,6.03-4.71,13.26-2.74,19.67,6.55-.62,12.77-4.15,16.7-10.18,3.93-6.03,4.71-13.26,2.74-19.67-6.55.62-12.77,4.15-16.7,10.18Z"/>
        <path class="cls-2" d="M475.68,477.87c-4.01,5.81,2.72,11.69,1.98,17.69,0,0-5.81-3.88-5.81-3.88,15.93,5.62,16.07-11.62,13.17-22.27,0,0,7.47,5,7.47,5-5.43.52-13.08-2.06-16.81,3.47h0ZM474.56,477.14c6.53-12.47,6.38-16,21.93-17.7,0,0,2.12,5.8,2.12,5.8,2.73,8.14.44,18.25-6.36,23.64-3.24,2.61-6.28,4.59-9.19,6.9-2.89,2.2-5.93,5.57-10.17,6.9l-3.13.98c-1.67-3.2-4.55-7.25-4.26-11.03-.12-6.48,6.03-10.59,9.05-15.48h0Z"/>
      </g>
      <g>
        <path class="cls-5" d="M467.56,454.06c3.93,6.03,4.71,13.26,2.74,19.67-6.55-.62-12.77-4.15-16.7-10.18-3.93-6.03-4.71-13.26-2.74-19.67,6.55.62,12.77,4.15,16.7,10.18Z"/>
        <path class="cls-2" d="M468.11,453.69c3.02,4.9,9.17,9.01,9.05,15.48.29,3.76-2.58,7.86-4.26,11.03,0,0-3.13-.98-3.13-.98-4.24-1.33-7.27-4.7-10.17-6.9-2.91-2.31-5.95-4.29-9.19-6.9-6.8-5.39-9.09-15.49-6.36-23.64,0,0,2.12-5.8,2.12-5.8,15.58,1.71,15.39,5.23,21.93,17.7h0ZM467,454.42c-3.74-5.53-11.38-2.95-16.81-3.47,0,0,7.47-5,7.47-5-2.91,10.66-2.76,27.88,13.17,22.27,0,0-5.81,3.88-5.81,3.88-.74-5.99,5.99-11.88,1.98-17.69h0Z"/>
      </g>
      <g>
        <path class="cls-5" d="M475.12,454.06c-3.93,6.03-4.71,13.26-2.74,19.67,6.55-.62,12.77-4.15,16.7-10.18,3.93-6.03,4.71-13.26,2.74-19.67-6.55.62-12.77,4.15-16.7,10.18Z"/>
        <path class="cls-2" d="M475.68,454.42c-4.01,5.81,2.72,11.69,1.98,17.69,0,0-5.81-3.88-5.81-3.88,15.93,5.62,16.07-11.62,13.17-22.27,0,0,7.47,5,7.47,5-5.43.52-13.08-2.06-16.81,3.47h0ZM474.56,453.69c6.53-12.47,6.38-16,21.93-17.7,0,0,2.12,5.8,2.12,5.8,2.73,8.14.44,18.25-6.36,23.64-3.24,2.61-6.28,4.59-9.19,6.9-2.89,2.2-5.93,5.57-10.17,6.9l-3.13.98c-1.67-3.2-4.55-7.25-4.26-11.03-.12-6.48,6.03-10.59,9.05-15.48h0Z"/>
      </g>
      <g>
        <path class="cls-5" d="M479.72,435.32c0,7.25-3.27,13.71-8.38,17.93-5.12-4.23-8.38-10.69-8.38-17.93,0-5.48,1.87-10.51,5-14.47,1.01-1.27,2.14-2.43,3.39-3.46,5.12,4.23,8.38,10.69,8.38,17.93Z"/>
        <path class="cls-2" d="M480.38,435.32c-.15,5.74,2.77,12.5-.82,17.87-1.79,3.34-6.47,5.24-9.61,6.99,0,0-2.15-2.65-2.15-2.65-2.79-3.44-3.44-7.95-4.61-11.4-1.14-3.55-2.58-6.87-3.89-10.81-2.83-8.26.69-18.04,7.5-23.42,0,0,4.98-3.74,4.98-3.74,12.11,10.23,9.98,12.96,8.6,27.15h0ZM479.05,435.32c-.13-6.74-8.02-8.85-12.25-12.44,0,0,9.07,0,9.07,0-8.5,7.58-17.3,21.69-1,26.09,0,0-7.08,0-7.08,0,2.73-5.3,11.47-6.63,11.25-13.65h0Z"/>
      </g>
    </g>
    <g>
      <g>
        <path class="cls-5" d="M424.52,512.84c3.93,6.03,4.71,13.26,2.74,19.67-6.55-.62-12.77-4.15-16.7-10.18-3.93-6.03-4.71-13.26-2.74-19.67,6.55.62,12.77,4.15,16.7,10.18Z"/>
        <path class="cls-2" d="M425.08,512.47c3.02,4.9,9.17,9.01,9.05,15.48.29,3.76-2.58,7.86-4.26,11.03,0,0-3.13-.98-3.13-.98-4.24-1.33-7.27-4.7-10.17-6.9-2.91-2.31-5.95-4.29-9.19-6.9-6.8-5.39-9.09-15.49-6.36-23.64,0,0,2.12-5.8,2.12-5.8,15.58,1.71,15.39,5.23,21.93,17.7h0ZM423.96,513.2c-3.74-5.53-11.38-2.95-16.81-3.47,0,0,7.47-5,7.47-5-2.91,10.66-2.76,27.88,13.17,22.27,0,0-5.81,3.88-5.81,3.88-.74-5.99,5.99-11.88,1.98-17.69h0Z"/>
      </g>
      <g>
        <path class="cls-5" d="M432.08,512.84c-3.93,6.03-4.71,13.26-2.74,19.67,6.55-.62,12.77-4.15,16.7-10.18,3.93-6.03,4.71-13.26,2.74-19.67-6.55.62-12.77,4.15-16.7,10.18Z"/>
        <path class="cls-2" d="M432.64,513.2c-4.01,5.81,2.72,11.69,1.98,17.69,0,0-5.81-3.88-5.81-3.88,15.94,5.62,16.07-11.62,13.17-22.27,0,0,7.47,5,7.47,5-5.43.52-13.08-2.06-16.81,3.47h0ZM431.53,512.47c6.53-12.47,6.38-16,21.93-17.7,0,0,2.12,5.8,2.12,5.8,2.73,8.14.44,18.25-6.36,23.64-3.24,2.61-6.28,4.59-9.19,6.9-2.89,2.2-5.93,5.57-10.17,6.9,0,0-3.13.98-3.13.98-1.67-3.2-4.55-7.25-4.26-11.03-.12-6.48,6.03-10.59,9.05-15.48h0Z"/>
      </g>
      <g>
        <path class="cls-5" d="M424.52,542.63c3.93,6.03,4.71,13.26,2.74,19.67-6.55-.62-12.77-4.15-16.7-10.18-3.93-6.03-4.71-13.26-2.74-19.67,6.55.62,12.77,4.15,16.7,10.18Z"/>
        <path class="cls-2" d="M425.08,542.27c3.02,4.9,9.17,9.01,9.05,15.48.29,3.76-2.58,7.86-4.26,11.03,0,0-3.13-.98-3.13-.98-4.24-1.33-7.27-4.7-10.17-6.9-2.91-2.31-5.95-4.29-9.19-6.9-6.8-5.39-9.09-15.49-6.36-23.64,0,0,2.12-5.8,2.12-5.8,15.58,1.71,15.39,5.23,21.93,17.7h0ZM423.96,543c-3.74-5.53-11.38-2.95-16.81-3.47,0,0,7.47-5,7.47-5-2.91,10.66-2.76,27.88,13.17,22.27,0,0-5.81,3.88-5.81,3.88-.74-5.99,5.99-11.88,1.98-17.69h0Z"/>
      </g>
      <g>
        <path class="cls-5" d="M432.08,542.63c-3.93,6.03-4.71,13.26-2.74,19.67,6.55-.62,12.77-4.15,16.7-10.18,3.93-6.03,4.71-13.26,2.74-19.67-6.55.62-12.77,4.15-16.7,10.18Z"/>
        <path class="cls-2" d="M432.64,543c-4.01,5.81,2.72,11.69,1.98,17.69,0,0-5.81-3.88-5.81-3.88,15.94,5.62,16.07-11.62,13.17-22.27,0,0,7.47,5,7.47,5-5.43.52-13.08-2.06-16.81,3.47h0ZM431.53,542.27c6.53-12.47,6.38-16,21.93-17.7,0,0,2.12,5.8,2.12,5.8,2.73,8.14.44,18.25-6.36,23.64-3.24,2.61-6.28,4.59-9.19,6.9-2.89,2.2-5.93,5.57-10.17,6.9l-3.13.98c-1.67-3.2-4.55-7.25-4.26-11.03-.12-6.48,6.03-10.59,9.05-15.48h0Z"/>
      </g>
      <g>
        <path class="cls-5" d="M424.52,573.19c3.93,6.03,4.71,13.26,2.74,19.67-6.55-.62-12.77-4.15-16.7-10.18-3.93-6.03-4.71-13.26-2.74-19.67,6.55.62,12.77,4.15,16.7,10.18Z"/>
        <path class="cls-2" d="M425.08,572.83c3.02,4.9,9.17,9.01,9.05,15.48.29,3.76-2.58,7.86-4.26,11.03,0,0-3.13-.98-3.13-.98-4.24-1.33-7.27-4.7-10.17-6.9-2.91-2.31-5.95-4.29-9.19-6.9-6.8-5.39-9.09-15.49-6.36-23.64,0,0,2.12-5.8,2.12-5.8,15.58,1.71,15.39,5.23,21.93,17.7h0ZM423.96,573.56c-3.74-5.53-11.38-2.95-16.81-3.47,0,0,7.47-5,7.47-5-2.91,10.66-2.76,27.88,13.17,22.27,0,0-5.81,3.88-5.81,3.88-.74-5.99,5.99-11.88,1.98-17.69h0Z"/>
      </g>
      <g>
        <path class="cls-5" d="M432.08,573.19c-3.93,6.03-4.71,13.26-2.74,19.67,6.55-.62,12.77-4.15,16.7-10.18,3.93-6.03,4.71-13.26,2.74-19.67-6.55.62-12.77,4.15-16.7,10.18Z"/>
        <path class="cls-2" d="M432.64,573.56c-4.01,5.81,2.72,11.69,1.98,17.69,0,0-5.81-3.88-5.81-3.88,15.94,5.62,16.07-11.62,13.17-22.27,0,0,7.47,5,7.47,5-5.43.52-13.08-2.06-16.81,3.47h0ZM431.53,572.83c6.53-12.47,6.38-16,21.93-17.7,0,0,2.12,5.8,2.12,5.8,2.73,8.14.44,18.25-6.36,23.64-3.24,2.61-6.28,4.59-9.19,6.9-2.89,2.2-5.93,5.57-10.17,6.9l-3.13.98c-1.67-3.2-4.55-7.25-4.26-11.03-.12-6.48,6.03-10.59,9.05-15.48h0Z"/>
      </g>
      <g>
        <path class="cls-5" d="M424.52,600.64c3.93,6.03,4.71,13.26,2.74,19.67-6.55-.62-12.77-4.15-16.7-10.18-3.93-6.03-4.71-13.26-2.74-19.67,6.55.62,12.77,4.15,16.7,10.18Z"/>
        <path class="cls-2" d="M425.08,600.28c3.02,4.9,9.17,9.01,9.05,15.48.29,3.76-2.58,7.86-4.26,11.03,0,0-3.13-.98-3.13-.98-4.24-1.33-7.27-4.7-10.17-6.9-2.91-2.31-5.95-4.29-9.19-6.9-6.8-5.39-9.09-15.49-6.36-23.64,0,0,2.12-5.8,2.12-5.8,15.58,1.71,15.39,5.23,21.93,17.7h0ZM423.96,601c-3.74-5.53-11.38-2.95-16.81-3.47,0,0,7.47-5,7.47-5-2.91,10.66-2.76,27.88,13.17,22.27,0,0-5.81,3.88-5.81,3.88-.74-5.99,5.99-11.88,1.98-17.69h0Z"/>
      </g>
      <g>
        <path class="cls-5" d="M432.08,600.64c-3.93,6.03-4.71,13.26-2.74,19.67,6.55-.62,12.77-4.15,16.7-10.18,3.93-6.03,4.71-13.26,2.74-19.67-6.55.62-12.77,4.15-16.7,10.18Z"/>
        <path class="cls-2" d="M432.64,601c-4.01,5.81,2.72,11.69,1.98,17.69,0,0-5.81-3.88-5.81-3.88,15.94,5.62,16.07-11.62,13.17-22.27,0,0,7.47,5,7.47,5-5.43.52-13.08-2.06-16.81,3.46h0ZM431.53,600.28c6.53-12.47,6.38-16,21.93-17.7,0,0,2.12,5.8,2.12,5.8,2.73,8.14.44,18.25-6.36,23.64-3.24,2.61-6.28,4.59-9.19,6.9-2.89,2.2-5.93,5.57-10.17,6.9l-3.13.98c-1.67-3.2-4.55-7.25-4.26-11.03-.12-6.48,6.03-10.59,9.05-15.48h0Z"/>
      </g>
      <g>
        <path class="cls-5" d="M424.52,627.8c3.93,6.03,4.71,13.26,2.74,19.67-6.55-.62-12.77-4.15-16.7-10.18-3.93-6.03-4.71-13.26-2.74-19.67,6.55.62,12.77,4.15,16.7,10.18Z"/>
        <path class="cls-2" d="M425.08,627.43c3.02,4.9,9.17,9.01,9.05,15.48.29,3.76-2.58,7.86-4.26,11.03,0,0-3.13-.98-3.13-.98-4.24-1.33-7.27-4.7-10.17-6.9-2.91-2.31-5.95-4.29-9.19-6.9-6.8-5.39-9.09-15.49-6.36-23.64,0,0,2.12-5.8,2.12-5.8,15.58,1.71,15.39,5.23,21.93,17.7h0ZM423.96,628.16c-3.74-5.53-11.38-2.95-16.81-3.47,0,0,7.47-5,7.47-5-2.91,10.66-2.76,27.88,13.17,22.27,0,0-5.81,3.88-5.81,3.88-.74-5.99,5.99-11.88,1.98-17.69h0Z"/>
      </g>
      <g>
        <path class="cls-5" d="M432.08,627.8c-3.93,6.03-4.71,13.26-2.74,19.67,6.55-.62,12.77-4.15,16.7-10.18,3.93-6.03,4.71-13.26,2.74-19.67-6.55.62-12.77,4.15-16.7,10.18Z"/>
        <path class="cls-2" d="M432.64,628.16c-4.01,5.81,2.72,11.69,1.98,17.69,0,0-5.81-3.88-5.81-3.88,15.94,5.62,16.07-11.62,13.17-22.27,0,0,7.47,5,7.47,5-5.43.52-13.08-2.06-16.81,3.46h0ZM431.53,627.43c6.53-12.47,6.38-16,21.93-17.7,0,0,2.12,5.8,2.12,5.8,2.73,8.14.44,18.25-6.36,23.64-3.24,2.61-6.28,4.59-9.19,6.9-2.89,2.2-5.93,5.57-10.17,6.9l-3.13.98c-1.67-3.2-4.55-7.25-4.26-11.03-.12-6.48,6.03-10.59,9.05-15.48h0Z"/>
      </g>
      <g>
        <path class="cls-5" d="M424.52,483.62c3.93,6.03,4.71,13.26,2.74,19.67-6.55-.62-12.77-4.15-16.7-10.18-3.93-6.03-4.71-13.26-2.74-19.67,6.55.62,12.77,4.15,16.7,10.18Z"/>
        <path class="cls-2" d="M425.08,483.26c3.02,4.9,9.17,9.01,9.05,15.48.29,3.76-2.58,7.86-4.26,11.03,0,0-3.13-.98-3.13-.98-4.24-1.33-7.27-4.7-10.17-6.9-2.91-2.31-5.95-4.29-9.19-6.9-6.8-5.39-9.09-15.49-6.36-23.64,0,0,2.12-5.8,2.12-5.8,15.58,1.71,15.39,5.23,21.93,17.7h0ZM423.96,483.99c-3.74-5.53-11.38-2.95-16.81-3.47,0,0,7.47-5,7.47-5-2.91,10.66-2.76,27.88,13.17,22.27,0,0-5.81,3.88-5.81,3.88-.74-5.99,5.99-11.88,1.98-17.69h0Z"/>
      </g>
      <g>
        <path class="cls-5" d="M432.08,483.62c-3.93,6.03-4.71,13.26-2.74,19.67,6.55-.62,12.77-4.15,16.7-10.18,3.93-6.03,4.71-13.26,2.74-19.67-6.55.62-12.77,4.15-16.7,10.18Z"/>
        <path class="cls-2" d="M432.64,483.99c-4.01,5.81,2.72,11.69,1.98,17.69,0,0-5.81-3.88-5.81-3.88,15.94,5.62,16.07-11.62,13.17-22.27,0,0,7.47,5,7.47,5-5.43.52-13.08-2.06-16.81,3.47h0ZM431.53,483.26c6.53-12.47,6.38-16,21.93-17.7,0,0,2.12,5.8,2.12,5.8,2.73,8.14.44,18.25-6.36,23.64-3.24,2.61-6.28,4.59-9.19,6.9-2.89,2.2-5.93,5.57-10.17,6.9l-3.13.98c-1.67-3.2-4.55-7.25-4.26-11.03-.12-6.48,6.03-10.59,9.05-15.48h0Z"/>
      </g>
      <g>
        <path class="cls-5" d="M424.52,455.05c3.93,6.03,4.71,13.26,2.74,19.67-6.55-.62-12.77-4.15-16.7-10.18-3.93-6.03-4.71-13.26-2.74-19.67,6.55.62,12.77,4.15,16.7,10.18Z"/>
        <path class="cls-2" d="M425.08,454.68c3.02,4.9,9.17,9.01,9.05,15.48.29,3.76-2.58,7.86-4.26,11.03,0,0-3.13-.98-3.13-.98-4.24-1.33-7.27-4.7-10.17-6.9-2.91-2.31-5.95-4.29-9.19-6.9-6.8-5.39-9.09-15.49-6.36-23.64,0,0,2.12-5.8,2.12-5.8,15.58,1.71,15.39,5.23,21.93,17.7h0ZM423.96,455.41c-3.74-5.53-11.38-2.95-16.81-3.47,0,0,7.47-5,7.47-5-2.91,10.66-2.76,27.88,13.17,22.27,0,0-5.81,3.88-5.81,3.88-.74-5.99,5.99-11.88,1.98-17.69h0Z"/>
      </g>
      <g>
        <path class="cls-5" d="M432.08,455.05c-3.93,6.03-4.71,13.26-2.74,19.67,6.55-.62,12.77-4.15,16.7-10.18,3.93-6.03,4.71-13.26,2.74-19.67-6.55.62-12.77,4.15-16.7,10.18Z"/>
        <path class="cls-2" d="M432.64,455.41c-4.01,5.81,2.72,11.69,1.98,17.69,0,0-5.81-3.88-5.81-3.88,15.94,5.62,16.07-11.62,13.17-22.27,0,0,7.47,5,7.47,5-5.43.52-13.08-2.06-16.81,3.47h0ZM431.53,454.68c6.53-12.47,6.38-16,21.93-17.7,0,0,2.12,5.8,2.12,5.8,2.73,8.14.44,18.25-6.36,23.64-3.24,2.61-6.28,4.59-9.19,6.9-2.89,2.2-5.93,5.57-10.17,6.9,0,0-3.13.98-3.13.98-1.67-3.2-4.55-7.25-4.26-11.03-.12-6.48,6.03-10.59,9.05-15.48h0Z"/>
      </g>
      <g>
        <path class="cls-5" d="M424.52,431.6c3.93,6.03,4.71,13.26,2.74,19.67-6.55-.62-12.77-4.15-16.7-10.18-3.93-6.03-4.71-13.26-2.74-19.67,6.55.62,12.77,4.15,16.7,10.18Z"/>
        <path class="cls-2" d="M425.08,431.23c3.02,4.9,9.17,9.01,9.05,15.48.29,3.76-2.58,7.86-4.26,11.03,0,0-3.13-.98-3.13-.98-4.24-1.33-7.27-4.7-10.17-6.9-2.91-2.31-5.95-4.29-9.19-6.9-6.8-5.39-9.09-15.49-6.36-23.64,0,0,2.12-5.8,2.12-5.8,15.58,1.71,15.39,5.23,21.93,17.7h0ZM423.96,431.96c-3.74-5.53-11.38-2.95-16.81-3.47,0,0,7.47-5,7.47-5-2.91,10.66-2.76,27.88,13.17,22.27,0,0-5.81,3.88-5.81,3.88-.74-5.99,5.99-11.88,1.98-17.69h0Z"/>
      </g>
      <g>
        <path class="cls-5" d="M432.08,431.6c-3.93,6.03-4.71,13.26-2.74,19.67,6.55-.62,12.77-4.15,16.7-10.18,3.93-6.03,4.71-13.26,2.74-19.67-6.55.62-12.77,4.15-16.7,10.18Z"/>
        <path class="cls-2" d="M432.64,431.96c-4.01,5.81,2.72,11.69,1.98,17.69,0,0-5.81-3.88-5.81-3.88,15.94,5.62,16.07-11.62,13.17-22.27,0,0,7.47,5,7.47,5-5.43.52-13.08-2.06-16.81,3.47h0ZM431.53,431.23c6.53-12.47,6.38-16,21.93-17.7,0,0,2.12,5.8,2.12,5.8,2.73,8.14.44,18.25-6.36,23.64-3.24,2.61-6.28,4.59-9.19,6.9-2.89,2.2-5.93,5.57-10.17,6.9l-3.13.98c-1.67-3.2-4.55-7.25-4.26-11.03-.12-6.48,6.03-10.59,9.05-15.48h0Z"/>
      </g>
      <g>
        <path class="cls-5" d="M436.68,412.86c0,7.25-3.27,13.71-8.38,17.93-5.12-4.23-8.38-10.69-8.38-17.93,0-5.48,1.87-10.51,5-14.47,1.01-1.27,2.14-2.43,3.39-3.46,5.12,4.23,8.38,10.69,8.38,17.93Z"/>
        <path class="cls-2" d="M437.35,412.86c-.15,5.74,2.77,12.5-.82,17.87-1.79,3.34-6.47,5.24-9.61,6.99,0,0-2.15-2.65-2.15-2.65-2.79-3.44-3.44-7.95-4.61-11.4-1.14-3.55-2.58-6.87-3.89-10.81-2.83-8.26.69-18.04,7.5-23.42,0,0,4.98-3.74,4.98-3.74,12.11,10.23,9.98,12.96,8.6,27.15h0ZM436.02,412.86c-.13-6.74-8.02-8.85-12.25-12.44,0,0,9.07,0,9.07,0-8.5,7.58-17.3,21.69-1,26.09,0,0-7.08,0-7.08,0,2.73-5.3,11.47-6.63,11.25-13.65h0Z"/>
      </g>
    </g>
  </g>
  <g>
    <rect class="cls-9" x="96.65" y="468.34" width="51.41" height="201.48"/>
    <path class="cls-2" d="M148.54,670.29c-16.55,1.68-35.29,3.56-51.89,4.2,0,0-4.43.22-4.43.22l-.24-4.89c-1.6-33.6-2.08-67.17.6-100.74,2.68-33.57,2.58-67.14.42-100.74,0,0-.21-3.43-.21-3.43,0,0,3.85-.22,3.85-.22,17.28-1.05,40.13-2.19,57.28-2.55,0,0,.15,6.19.15,6.19,2.33,66.86-.11,135.53-5.55,201.95h0ZM147.59,669.35c-4.83-67.42-8.09-133.7-5.54-201,0,0,6.02,6.02,6.02,6.02-14.64-.4-36.62-1.42-51.41-2.37,0,0,3.65-3.65,3.65-3.65-1.01,16.79-1.65,33.58-1.65,50.37-.23,33.58,4.42,67.15,4,100.74-.1,16.79-.49,33.58-1.32,50.37l-4.67-4.67c4.01.22,8.03.42,12.1.74,8.01.61,30.55,2.68,38.84,3.47h0Z"/>
  </g>
  <polygon class="cls-2" points="96.65 513.14 149.09 519.8 96.65 526.47 96.65 513.14 96.65 513.14"/>
  <polygon class="cls-2" points="96.65 562.73 149.09 569.39 96.65 576.05 96.65 562.73 96.65 562.73"/>
  <polygon class="cls-2" points="96.65 612.55 149.09 619.22 96.65 625.88 96.65 612.55 96.65 612.55"/>
  <g>
    <path class="cls-1" d="M409.31,317.34c0,10.45-4.22,19.91-11.06,26.77-6.87,6.88-16.36,11.15-26.86,11.15-20.94,0-37.92-16.98-37.92-37.92,0-8.78,2.99-16.86,8-23.29,6.93-8.9,17.76-14.63,29.92-14.63,20.94,0,37.92,16.98,37.92,37.92Z"/>
    <path class="cls-2" d="M409.98,317.34c.45,40.52-38.58,58.96-66.91,28.34-20.57-22.1-17.89-56.38,11.14-69.81,10.7-4.91,23.64-4.69,34.17.48,15.3,7.38,21.79,25.12,21.61,40.99h0ZM408.65,317.34c-.64-27.99-40.2-40.19-59.6-22.35-18.11,15.92-16.43,47.43,9.26,53.98,20.47,4.33,50.3-7.71,50.34-31.64h0Z"/>
  </g>
  <path class="cls-2" d="M237.5,514.5c-4.4-8.48-5.16-18.84-2.07-27.83,1.8-4.42,5.04-8.33,6.76-12.54,2.89-6.28,3.05-13.67,4.72-20.44,4.56-15.99,15.92-30.55,32.09-35.84,0,0,.92.97.92.97-.78,2.42-1.74,4.57-2.75,6.62-4.52,9.97-10.09,19.16-16.83,27.73-4.5,7.25-12.42,13.35-14.05,22.25-.92,4.36.05,9.12.03,13.49-.2,6.61-2.16,12.84-4.41,19.06-.78,2.15-1.71,4.32-3.08,6.54,0,0-1.33,0-1.33,0h0Z"/>
</svg>