<svg viewBox="74.88 19.16955128205128 1799.0400000000002 567.4187179487179" xmlns="http://www.w3.org/2000/svg" data-name="Capa 1" id="Capa_1" style="max-height: 500px" width="1799.0400000000002" height="567.4187179487179">
  <defs>
    <style>
      .cls-1 {
        fill: #803014;
      }
    </style>
  </defs>
  <g id="LOGOTIPO">
    <g data-name="LOGOTIPO" id="LOGOTIPO-2">
      <path d="M332.39,284.83c-3.83,8.94-4.9,7.94-8.62,12.77-5.09,6.62-8.93,8.02-12.99,10.89-12.5,8.84-29.5,11.75-38.46,10.01-16.11-3.14-16.97-.96-30.83-9.54-11.13-6.88-13.32-11.79-15.42-14.01-8.48-8.99-11.38-29.12-10.81-34.64,3.88-37.67,11.51-40.84,12.61-42.62,1.32-2.14,11.03-14.72,24.63-20.05,22.1-8.65,35.08-4.36,36.06-4.21,18.83,2.82,21.64,7.49,24.8,9.47,13.4,8.37,13.9,8.43,20.22,22.77,15.85,35.95-.16,56.73-1.2,59.16ZM292.7,253.32c-.02-.28.37-4.03-2.98-9.66-2.07-3.46-5.75-5.51-6.36-5.77-.51-.21-1.71-2.15-11.41-1.4-1.42.11-6.34,1.87-8.15,4.62-.45.68-1.57,1.52-2.71,4.89-1.42,4.2-.83,4.33-.76,8.89.04,2.53,1.68,7.04,4.57,10.03.94.97,1.5,1.96,3.43,3.03,1.42.78,1.22,1.13,3.67,1.74.67.17,6.75,3.54,14.97-2.52,3.28-2.42,3.26-2.56,4.66-6.62.33-.96,1.35-1.95,1.06-7.23Z" class="cls-1"/>
      <path d="M476,315.98c-3.89.79-9.14.69-18.31.69-.42,0-5.5.52-5.96.51-13.3-.32-8.37.33-17.96-.11-2.29-3.79-7.76-8.93-10.61-14.81-3.96-8.2-11.52-14.83-14.54-18.65-5.87-7.43-12.18-13.94-17.16-20.83,0,4.26-.8,12.21-.81,19.96,0,6.6-2,12.47-1.81,18.27.23,6.88-2.21,14.18-1.49,14.67-4.96.34-14.47,1.09-27.69.38-3.32-.18-13.24.02-14.12-.44.14-2.14-.47-4.37-.38-6.51.4-10.44-.81-18.86-.62-28.27.25-13.15,1.99-32.74,2.02-45.56.04-16.28,1.43-27.86,1.73-35.2.2-4.8,22.59-7.91,32.98-7.51,12.88.5,52.11-.29,60.98,3.34,9.13,3.75,14.46,4.81,18.59,12.62,3.1,5.86,3.64,21.53,1.42,27.1-7.73,19.41-26.49,23.91-29.65,24.73,1.25,4.19,1.26,1.53,9.14,10.63,7.95,9.19,10.83,11.32,17.13,20.42,5.62,8.1,11.51,12.99,13.73,17.17,2.03,3.83,2.86,4.56,3.38,7.41ZM423.31,229.97c.52-5.93-25.6-5.83-31.08-6.29,0,0,.27,6.56.68,16.9,2.73-2.73,29.77-3.47,30.4-10.61Z" class="cls-1"/>
      <path d="M574.81,314.86c-10.28.54-27.71.33-37.85.61-11.73.32-19.08.46-31.69.08-18.44-8.12-36.8-40.57-37.63-48.74-2.01-19.71-.15-30.84,6.54-42.04,11.32-18.95,12.64-24.63,33.94-31.13,7.18-2.19,23.84-2.76,35.11-2.29,9.07.37,22.22,3.75,27.43,5.14-1.78,9.91.03,15.93-.33,22.09-.38,6.6.66,11.58,1.19,14.96-15.98-2.63-23.22-3.87-36.43-2.16-4.17.55-10.57,1.46-15.89,5.01-4.47,2.98-9.72,8.36-9.84,13.84-.12,5.46-.17,10.66,2.41,14.17,5.08,6.92,9.46,9.84,20.96,18.38.32-3.69.04-10.2.6-21.21.3-5.81.1-12.95-.18-21.19,13.92,1.56,14.26.6,22.65.4,4.05-.1,13.14.21,20.5-.3-.67,5.18-.59,13.17-.48,21.6.09,6.93-1.06,51.19-1.02,52.77Z" class="cls-1"/>
      <path d="M706.87,261.73c.16,11.34-21.49,54.16-37.63,53.77-2.34-.06-25.32.63-36.38.77-13.76.18-18.05-1.57-20.86-1.71-.78-.04-15.63-6.43-22.33-15.81-4.13-5.79-6.65-24.46-7.01-35.2-.98-29.39-1-55.61-.13-62.23l-.43-6.87c6.96-.72,15.15.53,23.02.14,6.85-.34,15.74-.74,22.32-.34-.14,2.04.5,4.82.15,10.56-.21,3.43-.58,5.75-.75,13.31-.17,8.05-.25,11.57-.76,26.54-.07,2.04.89,15.45.36,21.93.92,9.65,11.05,9.9,12.96,9.64,6.74-.91,8.2-1.96,12.55-5.28,3.43-2.62,8.14-11.07,9.66-14.45,3.83-8.5,4.76-13.64,4.52-17.48-.36-5.59,1.05-39.25-.21-45.18,21.76,1.26,19,1.9,40.83.71.5,2.16.95,10.18.95,29.77,0,10.8-1,24.36-.82,37.39Z" class="cls-1"/>
      <path d="M789.45,314.99c-9.56-.27-11.41,1.29-17.47.28-5.07-.85-51.47.15-57-1.71l-.46-19.99c-.78-7.24-.26-21.19-.86-60.08-.18-11.35,3.04-25.64,3.8-40.04,12.74-.75,25.58,1.81,43.26-.29,1.11-.13.37,35.01,1.94,60.47.66,10.66,2.03,26.87,2.08,27.21.63.71.3.46,12.89.91,5.31.19,6.17-.22,12.52.74-1.16,11.99-.62,25.27-.7,32.51Z" class="cls-1"/>
      <path d="M868.57,314.99c-9.56-.27-11.41,1.29-17.47.28-5.07-.85-51.47.15-57-1.71l-.46-19.99c-.78-7.24-.26-21.19-.86-60.08-.18-11.35,3.04-25.64,3.8-40.04,12.74-.75,25.58,1.81,43.26-.29,1.11-.13.37,35.01,1.94,60.47.66,10.66,2.03,26.87,2.08,27.21.63.71.3.46,12.89.91,5.31.19,6.17-.22,12.52.74-1.16,11.99-.62,25.27-.7,32.51Z" class="cls-1"/>
      <path d="M985.95,284.83c-3.83,8.94-4.9,7.94-8.62,12.77-5.08,6.62-8.93,8.02-12.98,10.89-12.5,8.84-29.5,11.75-38.46,10.01-16.11-3.14-16.97-.96-30.83-9.54-11.13-6.88-13.32-11.79-15.41-14.01-8.48-8.99-11.38-29.12-10.81-34.64,3.87-37.67,11.51-40.84,12.61-42.62,1.32-2.14,11.03-14.72,24.62-20.05,22.1-8.65,35.08-4.36,36.06-4.21,18.83,2.82,21.64,7.49,24.8,9.47,13.4,8.37,13.9,8.43,20.22,22.77,15.85,35.95-.16,56.73-1.2,59.16ZM946.25,253.32c-.02-.28.38-4.03-2.98-9.66-2.07-3.46-5.75-5.51-6.36-5.77-.51-.21-1.71-2.15-11.41-1.4-1.42.11-6.34,1.87-8.15,4.62-.45.68-1.57,1.52-2.71,4.89-1.42,4.2-.83,4.33-.76,8.89.04,2.53,1.67,7.04,4.57,10.03.94.97,1.5,1.96,3.43,3.03,1.41.78,1.22,1.13,3.67,1.74.67.17,6.75,3.54,14.97-2.52,3.27-2.42,3.26-2.56,4.66-6.62.33-.96,1.35-1.95,1.06-7.23Z" class="cls-1"/>
      <path d="M1066.53,253.87c5.78,5.19,10.78,17.21,10.18,21.85-2.74,21.27-22.35,39.61-22.35,39.61-4.48,3.53-16.25,2.85-21.28,3.34-6.1.6-9.71,1.05-23.3.83-7.1-.11-9,.28-15.36-.47-.01-.32,2.21-4.77,9.6-12,4.94-4.83,14.41-13.55,18.58-17.68,12.35-12.19,9.94-15.96,9.77-16.62-.91-3.56-20.07-13.16-23.53-16.02-.73-.6-6.66-6.19-10.33-10.85-3.94-5-6.38-12.82-.45-24.53,1.3-2.57,6.32-8.04,12.57-14.66,4.29-4.55,9.7-10.93,12.71-12.06,1.1-.09,7.32-.25,16.97.06,4.54.14,10.96-1.09,15.81-.76,7.78.53,12.24,1.27,11.95,1.6-5.07,5.82-9.36,10.63-11.86,13.01-4.41,4.21-10.46,14.39-12.28,17.9-1.81,3.47-1.35,5.84-.83,6.85.19.38,14.96,12.96,23.44,20.58h0Z" class="cls-1"/>
      <path d="M1203.73,315.42c-2.95.13-1.93.06-14.71.43-4.19.12-4.26.37-10.69.6-6.34.22-11.36-.37-22.37-.35-2.09-5.72-2.33-8.09-3.93-13.91-1.48.16-12.98-.44-21.24-.48-6.68-.03-8.47-.05-9.43.09-.29,1.21-2.85,9.37-4.7,14.08-2.19.12-8.88-.44-18.3-.4-9.34.04-21.41.68-22.82.61-4.85-.27-6.53-.35-6.53-.35,5.55-10.82,8.66-21.2,15.2-33.51,5.43-10.23,8.55-20.33,14.26-31.98,5.99-12.22,10.74-25.42,11.6-27.41,4.99-11.57,9.06-19.27,10.81-27.54,5.45-.44,27.3-.74,28.98-.37,1.99,3.65,7.01,15.33,7.05,15.41,2.27,4.66,7.65,15.69,10.85,22.42,4.27,8.98,8.01,18.71,17.91,38.03,3.08,6.02,3.74,9.26,6.59,15.37,3.57,7.65,10.06,24.81,11.5,29.28ZM1137.34,269.51c3.5.15,3.85.22,6.49.32-1.58-4.64-1.33-5.23-2.01-8.35-1.19-5.46-3.16-11.82-3.46-13.73-.84,1.29-3.3,10.12-4.88,13.81-1.21,2.84-1.97,6.13-2.96,7.93,3.77-.16,4.14-.1,6.81.02h0Z" class="cls-1"/>
      <path d="M1363.08,315.5c-12.14.9-17.63-.03-26.12.77-12.97,1.24-23.21-.39-25.51-.84-2.85-7.11-3.4-7.15-5.64-14.22-.82-2.6-1.83-8.89-3.74-14.78-1.6-4.91-2.01-15.05-5.12-19.21-1.19,3.26-11.79,25.02-14.98,25.02-4.2,0-10.38-15.57-17.01-22.59-1.94,7.22-5.18,20-6.28,24.62-1.49,6.28-3.36,10.54-4.38,17.18-.25,1.62-.98,3.08-1.18,4.74-7.79-.2-13.18.12-21.24.12-6.59,0-11.31.6-15.43.44-6.53-.24-10.75-1.26-12.36-1.08,1.35-4.72,2.21-11.58,4.34-18.06,3.11-9.45,7.6-18.93,9.25-26.61,1.08-5,8.33-30.25,13.79-47.44,4.92-15.5,16.12-35.64,18.29-35.75,4.59-.24,9.86,10.85,17.17,22.38,4.37,6.9,11.51,19.01,15.1,25.95,4.92-4.53,12.52-18.28,18.5-25.04,7.25-8.17,13.58-21.6,14.29-22.42,2.65-.25,27.35,63.15,28.2,65.87,6.48,20.56,11.72,36.32,11.72,36.32,3.2,8.23,7.48,21.41,8.37,24.62Z" class="cls-1"/>
      <path d="M1462.41,314.22c-31.72-2.82-54.52,2.69-98.17-.68.09-15.97,1.77-28.19,1.95-39.32.6-38.12.08-51.8.86-58.9l.46-19.59c5.52-1.82,78.38-.93,87.93-1.2.09,7.1-.46,20.11.71,31.86-6.35.94-43.34.03-43.98.73-.16,1.13-.05,4.26-.04,5.31,20.74.49,33.77-.03,33.84.57.43,3.67-.47,17.21,1.83,33.02-9.84.98-14.44.27-15.69.18-10.47-.75-17.26-.02-25.87-1.01-.48,10.69-.98,7.61-1.4,8.88,20.7,1.82,31.35-.67,40.92.63,1.76.24,15.2,1.25,15.62,1.17,1.01-.19,1.02,35.82,1.02,38.33Z" class="cls-1"/>
      <path d="M1603.99,247.79c-.22,16.55-.42,28.99-.45,30.39-.35,16.72-.25,28.08-.11,39.24-2.53-.07-4.11-.51-6.88-.48-2.74.03-6.68.51-9.43.64-5.68.26-8.14-.93-13.53-.9-4.9-5.33-16.49-10.15-24.38-17.6-2.35-2.22-20.71-14.72-25.53-18.06-6.18-4.27-13.77-11.07-18.42-14.66.03,9.19,1.82,29.88,1.63,32.13-.38,4.45-.32,13.64-.38,18.33-1.06-.63-8.35.18-15.5.37-7.11.19-13.36-.84-15.09-1.07l-8.33-.18c1-15.2-.18-66.09.63-80.57.61-10.88.03-37.56.25-42.75,3.44,2.59,4.82,1.62,8.83,4.91,4.21,3.46,10.35,7.32,13.96,9.56,16.25,10.06,18.26,12.69,25.55,17.53,2.18,1.45,23.11,13.23,28.37,18.35,1.73,1.68,14.88,7.06,16.73,8.7.64-7.64,1.5-14.76,1.22-25.92-.22-8.64,2.23-24.79,1.67-31.7,6.02.57,10.71,1.69,20.26,1.83,4.74.07,12.87-1.82,18.58-.69.14,2.87-.09,7.69,0,10.8.37,14.26.53,28.7.35,41.81Z" class="cls-1"/>
      <path d="M1706.46,220.79c-.44,12.16-1.32,13.9-.31,20.61-15.19-1.47-15.18.58-30.43-.7-1.99,24.16-1.77,27.04-2.21,36.91-.4,9.01-.14,17.52-.27,24.96-.1,5.89-.44,11.25-1.54,14.64-.14.44-1.32-.29-5.68-.51-15.86-.8-29.28-.4-32.66-.34-.96-5.34-.55-5.27-1.02-25.82-.48-21.04-1.35-26.48.71-51.19-9.71-1.96-9.93-.62-25.28-3.25,2.11-23.01-.52-15.94.02-39.14.01-.54,3.9-1.09,4.23-1.12,3.63-.31,15.76.27,18.53-.43.16-.04,21.09,2.01,32.63,1.04,5.04-.42,30.16,2.21,43.26-1.4-.31,12.38.23,19.98.03,25.72Z" class="cls-1"/>
      <path d="M1807.48,314.22c-31.72-2.82-54.52,2.69-98.17-.68.09-15.97,1.77-28.19,1.95-39.32.6-38.12.08-51.8.86-58.9l.46-19.59c5.52-1.82,78.38-.93,87.93-1.2.09,7.1-.46,20.11.71,31.86-6.36.94-43.35.03-43.98.73-.16,1.13-.05,4.26-.04,5.31,20.74.49,33.77-.03,33.84.57.43,3.67-.47,17.21,1.83,33.02-9.84.98-14.44.27-15.69.18-10.47-.75-17.26-.02-25.87-1.01-.48,10.69-.98,7.61-1.4,8.88,20.7,1.82,31.35-.67,40.92.63,1.76.24,15.2,1.25,15.62,1.17,1.01-.19,1.02,35.82,1.02,38.33Z" class="cls-1"/>
      <path d="M381.77,566.73c-22.36,1.66-32.47-.06-48.1,1.43-23.89,2.28-42.74-.72-46.98-1.55-5.25-13.09-6.26-13.18-10.37-26.18-1.52-4.79-3.37-16.38-6.89-27.22-2.95-9.04-3.69-27.71-9.44-35.38-2.2,6-21.72,46.09-27.59,46.08-7.75-.01-19.12-28.68-31.34-41.61-3.58,13.29-9.54,36.83-11.56,45.34-2.74,11.56-6.19,19.4-8.08,31.64-.46,2.99-1.81,5.68-2.18,8.74-14.34-.37-24.27.22-39.11.23-12.13,0-20.82,1.1-28.42.81-12.02-.45-19.8-2.32-22.76-1.98,2.49-8.7,4.07-21.33,8-33.27,5.72-17.4,13.99-34.85,17.03-49.01,1.98-9.21,15.34-55.71,25.39-87.37,9.06-28.55,29.68-65.62,33.68-65.84,8.45-.45,18.16,19.99,31.61,41.21,8.05,12.71,21.19,35,27.8,47.78,9.06-8.34,23.05-33.67,34.07-46.11,13.34-15.05,25-39.78,26.31-41.28,4.88-.47,50.36,116.29,51.94,121.31,11.92,37.86,21.58,66.89,21.58,66.89,5.9,15.16,13.77,39.43,15.41,45.34Z" class="cls-1"/>
      <path d="M463.61,385.27c-1.05,31.37-4.7,69.6-4.08,78.09,2.29,31.7.45,36.15.67,48.27.13,7.45-.05,18.44-.21,38.38l-.31,18.06c-18.13,1.56-60.87-2.98-72.84-3.27-2.08-5.74-.26-38.85-.24-40.59.43-30.48-.06-49.11-.36-73.53-.1-8.38,1.5-33.2,1.27-41.91-.74-26.95.57-38.67,1.76-59.94,2.4.3,4.54-.56,38.41-2.02,9.48-.41,18.73-1.98,34.46-2.23.58,2.35,2.14,20.71,1.47,40.7Z" class="cls-1"/>
      <path d="M602.1,453.24c10.65,9.56,19.85,31.69,18.75,40.25-5.05,39.17-41.17,72.94-41.17,72.94-8.26,6.51-29.92,5.24-39.19,6.16-11.24,1.11-17.87,1.93-42.92,1.52-13.08-.21-16.57.51-28.28-.86-.03-.58,4.07-8.79,17.67-22.09,9.09-8.89,26.52-24.96,34.22-32.55,22.74-22.45,18.31-29.39,18-30.6-1.68-6.55-36.96-24.23-43.34-29.51-1.33-1.1-12.27-11.4-19.03-19.97-7.26-9.2-11.75-23.61-.82-45.18,2.4-4.73,11.65-14.81,23.14-26.98,7.9-8.37,17.86-20.12,23.4-22.21,2.03-.16,13.49-.46,31.26.11,8.36.26,20.19-2.01,29.12-1.39,14.33.97,22.53,2.34,22.01,2.94-9.34,10.72-17.23,19.56-21.84,23.95-8.12,7.75-19.25,26.5-22.62,32.96-3.33,6.39-2.48,10.75-1.53,12.61.36.7,27.54,23.87,43.16,37.89h0Z" class="cls-1"/>
      <path d="M705.62,385.27c-1.05,31.37-4.7,69.6-4.08,78.09,2.29,31.7.45,36.15.67,48.27.13,7.45-.05,18.44-.21,38.38l-.31,18.06c-18.13,1.56-60.87-2.98-72.84-3.27-2.08-5.74-.26-38.85-.24-40.59.43-30.48-.06-49.11-.36-73.53-.1-8.38,1.5-33.2,1.27-41.91-.74-26.95.57-38.67,1.76-59.94,2.4.3,4.54-.56,38.41-2.02,9.48-.41,18.73-1.98,34.46-2.23.58,2.35,2.14,20.71,1.47,40.7Z" class="cls-1"/>
      <path d="M929.03,510.26c-7.05,16.46-9.02,14.61-15.86,23.52-9.37,12.19-16.44,14.77-23.92,20.05-23.02,16.29-54.33,21.64-70.83,18.44-29.67-5.77-31.25-1.77-56.77-17.57-20.49-12.67-24.53-21.71-28.39-25.8-15.61-16.55-20.96-53.63-19.91-63.8,7.14-69.37,21.2-75.2,23.23-78.49,2.44-3.94,20.31-27.11,45.35-36.91,40.7-15.93,64.6-8.03,66.41-7.75,34.68,5.19,39.86,13.79,45.67,17.43,24.67,15.41,25.59,15.52,37.24,41.93,29.19,66.21-.29,104.46-2.21,108.95ZM855.93,452.23c-.03-.51.69-7.42-5.49-17.79-3.8-6.37-10.59-10.14-11.71-10.63-.94-.39-3.16-3.95-21.01-2.57-2.62.2-11.67,3.44-15.01,8.5-.82,1.25-2.88,2.79-4.98,9.01-2.62,7.74-1.53,7.98-1.4,16.37.07,4.66,3.08,12.96,8.42,18.48,1.73,1.79,2.76,3.6,6.32,5.57,2.61,1.44,2.24,2.07,6.76,3.21,1.24.31,12.44,6.53,27.56-4.63,6.03-4.45,6.01-4.71,8.58-12.2.61-1.76,2.49-3.59,1.96-13.32Z" class="cls-1"/>
      <path d="M1203.86,442.05c-.41,30.48-.77,53.39-.83,55.96-.65,30.79-.46,51.71-.21,72.26-4.66-.12-7.56-.93-12.67-.89-5.04.05-12.3.95-17.37,1.18-10.46.48-14.98-1.72-24.91-1.65-9.02-9.81-30.37-18.68-44.89-32.42-4.33-4.09-38.15-27.11-47.02-33.26-11.37-7.87-25.35-20.39-33.92-27,.06,16.92,3.36,55.03,3.01,59.16-.7,8.2-.59,25.11-.7,33.76-1.94-1.15-15.38.34-28.54.69-13.09.35-24.61-1.55-27.8-1.97l-15.33-.32c1.84-27.99-.34-121.71,1.17-148.37,1.13-20.03.05-69.17.46-78.72,6.34,4.76,8.87,2.99,16.26,9.04,7.76,6.37,19.06,13.48,25.71,17.6,29.93,18.52,33.63,23.36,47.05,32.28,4.02,2.67,42.56,24.36,52.24,33.79,3.18,3.1,27.4,13,30.8,16.02,1.18-14.08,2.77-27.19,2.24-47.73-.41-15.9,4.11-45.65,3.08-58.38,11.09,1.04,19.72,3.1,37.31,3.37,8.73.14,23.7-3.35,34.22-1.26.25,5.28-.17,14.16-.01,19.88.68,26.27.98,52.86.65,76.99Z" class="cls-1"/>
      <path d="M1397.93,564.37c-58.43-5.2-100.41,4.95-180.79-1.24.17-29.42,3.26-51.92,3.59-72.41,1.11-70.2.14-95.38,1.59-108.46l.85-36.08c10.17-3.35,144.34-1.72,161.93-2.21.16,13.08-.84,37.04,1.31,58.68-11.7,1.73-79.82.05-80.99,1.34-.28,2.08-.09,7.84-.06,9.79,38.2.89,62.19-.05,62.32,1.05.8,6.76-.87,31.69,3.37,60.82-18.13,1.81-26.59.5-28.9.33-19.28-1.39-31.79-.04-47.63-1.87-.88,19.69-1.82,14.01-2.57,16.35,38.12,3.35,57.73-1.24,75.35,1.17,3.25.45,27.99,2.3,28.77,2.16,1.85-.34,1.88,65.96,1.88,70.58Z" class="cls-1"/>
      <path d="M1648.32,567.62c-7.18,1.45-16.84,1.26-33.72,1.26-.77,0-10.12.96-10.97.94-24.5-.58-15.41.6-33.08-.21-4.22-6.97-14.29-16.44-19.53-27.27-7.29-15.1-21.22-27.32-26.77-34.35-10.81-13.67-22.42-25.67-31.59-38.37,0,7.84-1.48,22.49-1.5,36.77-.01,12.16-3.69,22.96-3.33,33.65.43,12.67-4.06,26.1-2.75,27.02-9.14.63-26.64,2.01-50.99.71-6.12-.32-24.38.03-26.01-.82.26-3.94-.86-8.04-.7-11.98.73-19.22-1.49-34.74-1.15-52.07.46-24.21,3.67-60.29,3.73-83.89.08-29.98,2.64-51.3,3.19-64.83.36-8.84,41.6-14.57,60.74-13.84,23.72.91,95.96-.54,112.29,6.16,16.81,6.9,26.63,8.86,34.24,23.23,5.71,10.8,6.71,39.64,2.62,49.92-14.24,35.74-48.78,44.03-54.6,45.53,2.3,7.72,2.33,2.81,16.84,19.58,14.64,16.92,19.94,20.84,31.55,37.6,10.34,14.92,21.2,23.91,25.28,31.62,3.73,7.05,5.27,8.39,6.22,13.64ZM1551.3,409.23c.96-10.93-47.14-10.73-57.24-11.59,0,0,.49,12.08,1.25,31.13,5.02-5.02,54.83-6.4,55.98-19.55Z" class="cls-1"/>
      <path d="M1846.68,510.26c-7.06,16.46-9.02,14.61-15.87,23.52-9.36,12.19-16.44,14.77-23.91,20.05-23.02,16.29-54.33,21.64-70.83,18.44-29.67-5.77-31.25-1.77-56.77-17.57-20.49-12.67-24.53-21.71-28.39-25.8-15.62-16.55-20.96-53.63-19.91-63.8,7.14-69.37,21.2-75.2,23.23-78.49,2.44-3.94,20.31-27.11,45.34-36.91,40.7-15.93,64.6-8.03,66.42-7.75,34.67,5.19,39.85,13.79,45.67,17.43,24.67,15.41,25.59,15.52,37.24,41.93,29.19,66.21-.29,104.46-2.21,108.95ZM1773.58,452.23c-.03-.51.69-7.42-5.49-17.79-3.8-6.37-10.59-10.14-11.71-10.63-.94-.39-3.16-3.95-21.01-2.57-2.62.2-11.67,3.44-15.01,8.5-.83,1.25-2.88,2.79-4.98,9.01-2.62,7.74-1.53,7.98-1.4,16.37.07,4.66,3.08,12.96,8.42,18.48,1.73,1.79,2.76,3.6,6.32,5.57,2.6,1.44,2.24,2.07,6.76,3.21,1.24.31,12.44,6.53,27.56-4.63,6.03-4.45,6.01-4.71,8.58-12.2.61-1.76,2.5-3.59,1.96-13.32Z" class="cls-1"/>
      <path d="M189.04,160c-30.62-2.37-52.62,2.26-94.74-.57.09-13.42,1.71-23.68,1.88-33.02.58-32.02.07-43.5.83-49.47l.45-16.46c5.33-1.53,75.64-.78,84.86-1.01.08,5.96-.44,16.89.68,26.76-6.13.79-41.83.02-42.44.61-.15.95-.05,3.57-.03,4.46,20.02.41,32.59-.02,32.66.48.42,3.08-.45,14.46,1.76,27.74-9.5.82-13.94.23-15.14.15-10.1-.63-16.66-.02-24.96-.85-.46,8.98-.95,6.39-1.35,7.46,19.98,1.53,30.26-.57,39.49.53,1.71.2,14.67,1.05,15.08.98.97-.16.99,30.09.99,32.19Z" class="cls-1"/>
      <path d="M221.77,113.2l-.18-.4c-2.24-5.03-3.51-7.81-4.27-9.69-1.23-3.06-2.45-4.19-5-12.19-.68-2.14-6.3-11.8-10.15-19.72-2.45-5.05-3.83-9.69-3.86-10.28,3.77.04,7.25.11,9.74.09,6.33-.04,11.11-.05,13.38.09,5.21.33,6.05-.08,6.71-.13,2.79,5.38,4.27,9.35,6.91,16.16.5,1.28,1.84,3.95,3.05,6.36,1.81-3.24,4.39-7.72,8.25-14.51l24.52-41.19c4.59-.53,8.83-.19,14.95-.28,4.32-.07,10.48-.68,14.44-.53,3.34.13,8.54,1.03,10.2,1.07-3.36,7.48-30.35,51.79-30.81,52.58-1.64,2.84-2.98,6.1-4.88,9.25-1.92,3.18-4.41,6.24-5.65,8.48-3.34,6.06-4.16,8.71-7.54,14.93,1.03,2.49,2.05,5.15,3.35,8.51.86,2.2,4.2,8.47,5.07,10.58,2.55,6.17,4.38,10.87,7.88,18.57.2.44,6.57,8.99,4.78,10.94-1.22.02-5.2.52-7.67.6-2.94.09-7.35-.26-10.52-.3-4.48-.05-7.66.14-10.94-.16l-2.09-4.56c-2.24-5.04-3.51-7.81-4.27-9.69-.72-1.77-1.43-2.9-2.39-5.09-3.6,6.78-39.14,61.94-43.31,68.6-1.13.47-2.85.08-9.08-.23-3.14-.16-9.65.23-18.26.17-3.39-.03-8.16.1-13.3.17.28-1.06,36.58-59.05,41.99-68.07,6.36-10.62,14.49-22.97,18.92-30.1Z" class="cls-1"/>
      <path d="M361.9,67.15c13.63,11.64,16.83,33.49,6.25,43.62-3.12,2.99-9.47,7.28-13.25,9.8-6.84,4.53-7.47,5.26-17.33,11.22-.28,5.85-.35,7.37-.38,8.49-.14,6.41.09,9.83.08,12.83,0,6.28-.12,7.58-.23,8.74-.08.78-3.63.84-9.94.81-4.99-.02-12.18-.05-17.35-.19-6.5-.17-11.5-.13-12.91-.03.55-3.55.44-6.47.27-10.34-.17-4.06-.37-9.12.2-16.93.09-1.31.06-11.82.28-25.34.08-4.85.55-10.77.57-15.83.01-5.08-.56-10.37-.55-14.89.03-11,.08-19.21.14-19.21,1.15.02,10.12-.51,16.93-.24,6.79.27,13.25-.38,19.39-.2,2.75.08,21.49,2.28,27.82,7.69h0ZM346.15,88.21s-2.96-4.92-9.23-2.38c0,2.08-.73,15.37-.45,16.3,5.84-1.49,12.28-9.72,9.67-13.93Z" class="cls-1"/>
      <path d="M477.89,118.04c-2.18,14.29-5.86,16.43-7.4,18.82-6.57,10.17-6.61,10.55-17.88,15.37-28.26,12.07-44.62-.05-46.55-.84-7.04-2.9-6.25-3.71-10.06-6.52-5.21-3.85-6.32-6.76-8.59-9.84-6.98-9.47-9.29-22.36-7.93-29.16,2.44-12.22.73-12.87,7.45-23.4,5.4-8.45,9.26-10.12,11-11.71,7.06-6.44,22.89-8.67,27.23-8.24,29.64,2.89,32.14,8.68,33.55,9.51,1.69,1,11.6,8.35,15.81,18.65,6.84,16.75,3.48,26.6,3.37,27.35ZM439.31,102.64c-.06-.8-3.06-6.56-4.84-7.21-2.21-.8-2.28-.47-4.67-.42-1.33.02-6.87,2.33-7.94,7.69-.07.38-1.86,3.82,1.34,8.46,1.27,1.85,1.54,2.82,3.68,3.6.5.18,5.25,2.45,9.56-1.8,1.53-1.51,2.01-3.53,2.14-3.87.11-.29,1.13-.97.73-6.45Z" class="cls-1"/>
    </g>
  </g>
</svg>