<?xml version="1.0" encoding="UTF-8"?>
<svg id="Capa_1" data-name="Capa 1" xmlns="http://www.w3.org/2000/svg" viewBox="0 0 1311.85 1517.84">
  <defs>
    <style>
      .cls-1 {
        fill: #f0d387;
      }

      .cls-2 {
        fill: #803014;
      }

      .cls-3 {
        fill: #fcf1dc;
      }

      .cls-4 {
        fill: #c65617;
      }

      .cls-5 {
        fill: #802f13;
      }

      .cls-6 {
        fill: #f1d488;
      }

      .cls-7 {
        fill: #fffffd;
      }

      .cls-8 {
        fill: #e05f10;
      }
    </style>
  </defs>
  <path class="cls-5" d="M600.1,1434.24h-33.69v-16.76c0-2.41.02-4.82.06-7.2l16.7-.14v-9.42l.09,9.42,16.71-.14.06,1.79c.05,2,.07,3.86.07,5.7v16.76Z"/>
  <path class="cls-5" d="M739.07,1434.24h-33.69v-16.76c0-1.84.02-3.69.06-5.51l.06-2.13,16.65.06v-9.18l.09,9.18,16.78.06c.04,2.49.06,5.02.06,7.52v16.76Z"/>
  <rect class="cls-5" x="0" y="1400.69" width="1311.85" height="33.52"/>
  <g>
    <path class="cls-4" d="M1201.78,895.13h0c34.6,0,62.7,28.09,62.7,62.7v459.63h-125.39v-459.63c0-34.6,28.09-62.7,62.7-62.7Z"/>
    <path class="cls-2" d="M1277.89,1430.86h-152.21v-486.32c0-34.64,28.18-62.82,62.82-62.82h26.57c34.64,0,62.83,28.18,62.83,62.82v486.32ZM1152.5,1404.04h98.58v-459.5c0-19.85-16.15-36-36.01-36h-26.57c-19.85,0-36,16.15-36,36v459.5Z"/>
  </g>
  <path class="cls-2" d="M670.85,343.88v-26.82c109.51,0,201.3-85.46,208.97-194.56l26.75,1.88c-8.66,123.09-112.2,219.5-235.73,219.5Z"/>
  <g>
    <path class="cls-8" d="M997.63,1495.51l.41-.66c85.12-134.58,45.09-312.71-89.56-397.88-25.88-16.37-53.35-28.13-81.5-35.42,71.41-36.9,159.99-35.89,232.82,10.18,109.43,69.22,142.01,213.94,72.79,323.37-32.28,51.03-81.07,85.4-134.96,100.41Z"/>
    <path class="cls-2" d="M967.42,1517.84l19.34-30.22c81.01-128.08,42.7-298.27-85.44-379.31-24.25-15.34-50.39-26.7-77.7-33.78l-33.95-8.8,31.16-16.1c77.8-40.2,172.11-36.06,246.15,10.76,115.47,73.04,149.99,226.41,76.95,341.88-32.88,51.98-83.56,89.68-142.7,106.15l-33.81,9.42ZM865.28,1059.98c17.44,6.91,34.28,15.49,50.36,25.66,130.4,82.48,176.04,249.07,111.08,385,38.61-17.69,71.47-46.26,94.52-82.7,65.13-102.97,34.34-239.74-68.63-304.87-56.09-35.49-125.25-43.46-187.34-23.08Z"/>
  </g>
  <g>
    <g>
      <path class="cls-7" d="M1106,618.24c-.07.07-.07.13-.13.13-.2.13-.34.27-.54.4-8.92,6.84-124.98,95.34-185.92,133.63-9.92,6.24-18.37,11.13-24.67,14.08-3.42,1.61-6.17,2.68-8.18,3.08-5.77-28.23-21.66-53.71-43.38-74.22-.07,0-.07-.07-.13-.07-11-10.46-23.47-19.51-36.88-27.02-12.14-6.91-25.08-12.4-38.35-16.49-.4-.13-.34-.67.13-.67,74.76,3.22,157.7-94.77,175.26-170.27.4-1.61.8-3.35,1.07-5.1,1.61-8.18,3.82-14.75,6.44-19.98,24.47-49.48,138.07,11.96,139.21,51.18l33.73,50.69c10.06-2.01-10.41,54.25-17.65,60.62Z"/>
      <path class="cls-2" d="M876.08,785.35l-2.67-13.09c-4.68-22.94-17.15-44.97-36.16-63.96l-3.46-3.3c-9.99-9.5-21.49-17.92-34.19-25.04-11.12-6.33-23.12-11.49-35.74-15.38l-11.17-3.44,1.63-11.92c1.09-6.68,6.83-11.53,13.63-11.53,65.82,2.88,145.25-87.07,162.2-159.89.35-1.42.67-2.76.88-4.1,1.85-9.5,4.41-17.37,7.7-23.94,10.81-21.87,35.39-30.43,67.37-23.44,42.29,9.24,91.86,43.7,96.83,75.97l29.5,44.35c2.25,1.47,4.13,3.55,5.4,6.13,7.29,14.73-11.04,59.95-20.68,72.94l-3.74,6.02-2.97.03c-19.39,14.77-126.21,95.78-183.9,132.01-11.12,6.99-19.66,11.85-26.11,14.87-4.72,2.22-8.19,3.48-11.24,4.09l-13.1,2.63ZM848.46,681.94h.03l3.88,3.66c20.42,19.29,35.1,41.67,43.06,65.47,4.62-2.52,10.25-5.87,16.84-10.01,60.57-38.05,177.15-126.99,184.53-132.64,4.46-6.19,14.11-31.92,15.88-43.05l-36.06-54.2-.11-3.84c-.42-14.45-37.46-46.36-76.14-54.81-13.63-2.97-31.22-3.79-37.64,9.19-2.23,4.46-4.01,10.03-5.3,16.61-.24,1.61-.73,3.76-1.22,5.75-9.3,39.96-35.31,85.16-69.54,120.72-23.85,24.78-49.12,42.34-73.98,51.77.03.02.06.03.09.05,12.92,7.24,24.86,15.73,35.49,25.27l.19.07ZM1115.69,627.48h.01s-.01,0-.01,0Z"/>
    </g>
    <g>
      <path class="cls-7" d="M1136.34,429.48l-62.22,82.52c-2.7-.15-5.4-.29-8.14-.61-10.78-.98-21.71-2.73-32.61-5.27-129.45-30.15-209.98-159.59-179.83-289.04l.09-.38c2.84.9,5.78,1.75,8.83,2.46,12.96,3.02,25.83,3.69,38.3,2.25,10.13,74.54,55.04,140.86,121.29,177.67,19.12,10.72,40.12,18.91,62.54,24.13,17.31,4.03,34.68,6.07,51.75,6.27Z"/>
      <path class="cls-2" d="M1080.52,525.78l-7.14-.39c-3.06-.17-5.98-.33-8.94-.68-11.2-1.02-22.79-2.89-34.11-5.53-136.47-31.79-221.63-168.67-189.85-305.15l3.29-14.12,13.91,4c2.51.8,5.12,1.56,7.82,2.18,11.18,2.6,22.52,3.27,33.72,1.99l13.05-1.5,1.77,13.02c9.59,70.53,52.4,133.24,114.53,167.76,18.29,10.26,38.15,17.92,59.07,22.79,16.03,3.74,32.47,5.73,48.86,5.92l26.51.31-82.49,109.4ZM863.98,233.19c-20.2,117.78,54.81,232.47,172.44,259.87,10.12,2.35,20.48,4.03,30.79,4.97.2.02.4.05.6.07l42.84-56.81c-9.78-1.11-19.5-2.79-29.09-5.02-23.38-5.45-45.6-14.03-66.05-25.5-65.79-36.55-112.23-101.44-126.04-175.24-8.51.11-17.03-.69-25.48-2.34Z"/>
    </g>
    <g>
      <polygon class="cls-6" points="1176.68 376.02 1136.34 429.48 1074.12 512 1070.86 516.3 1065.98 511.39 989.3 434.45 1022.06 399.08 1030.08 390.5 1000.2 369.39 1065.37 315.61 1176.68 376.02"/>
      <path class="cls-2" d="M1072.24,536.72l-101.54-101.93,39.09-42.2-31.67-22.37,85.69-70.71,132.96,72.16-124.54,165.05ZM1007.89,434.11l61.57,61.78,87.13-115.51-89.67-48.67-44.66,36.85,28.13,19.86-42.5,45.68Z"/>
    </g>
    <g>
      <polygon class="cls-8" points="1186.46 487.49 998.7 424.3 954.32 471.95 1128.31 572.22 1186.46 487.49"/>
      <path class="cls-2" d="M1132.36,590.03l-199.35-114.89,61.78-66.31,212.77,71.61-75.19,109.59ZM975.62,468.75l148.65,85.67,41.09-59.88-162.74-54.77-27,28.98Z"/>
    </g>
    <g>
      <polygon class="cls-7" points="1092.52 304.82 1153.28 261.05 1264.48 323.34 1200.26 399.9 1092.52 304.82"/>
      <path class="cls-2" d="M1201.69,419.05l-130.65-115.29,81.34-58.59,132.78,74.39-83.47,99.49ZM1113.99,305.88l84.84,74.87,44.98-53.62-89.62-50.2-40.2,28.96Z"/>
    </g>
    <g>
      <path class="cls-7" d="M988.61,236.47s10.46,82.9,123.08,124.57c70.39,26.04,93.68,51.81,101.26,67.47,3.09,6.39,11.9,7.52,15.8,1.59,7.88-11.96,21.81-37.12,10.03-63.37-11.35-25.29-43.08-36.36-70.52-40.24-39.86-5.64-112.62-24.88-179.64-90.01Z"/>
      <path class="cls-2" d="M1221.58,447.39c-.5,0-1.01-.02-1.52-.05-8.23-.54-15.58-5.52-19.2-12.99-5.72-11.83-25.52-35.46-93.84-60.73-118.89-43.99-131.25-131.75-131.73-135.47l-4.79-37.96,27.43,26.67c64.96,63.13,135.76,81.19,172.18,86.34,23.66,3.35,65.62,14.04,80.87,48.03,7.24,16.14,11.2,42.46-11.07,76.24-4.13,6.28-10.91,9.91-18.35,9.91ZM1023.75,282.83c16.24,22.32,44.31,47.78,92.59,65.63,65.42,24.21,93.38,49.29,105.12,67.84,9.15-16.4,10.87-31.2,5.08-44.09-10.35-23.07-45.52-30.38-60.16-32.45-31.39-4.44-86.21-17.67-142.63-56.93Z"/>
    </g>
    <g>
      <path class="cls-7" d="M1050.28,963.25s136.55-110.15,70.67-362.73c-4.95-19-28.07-57.13-69.15-47.68-22.9,5.27-40.27,24.35-45.02,47.36-3.44,16.65-2.46,37.56,13.35,57.36,0,0,80.24,126.63,5.96,254.76l24.19,50.92Z"/>
      <path class="cls-2" d="M1045.47,984.37l-34.52-72.65,3.54-6.11c66.84-115.29-.1-231.57-5.38-240.35-15.25-19.48-20.6-42.89-15.47-67.76,5.94-28.73,27.59-51.38,55.15-57.72,45.68-10.5,77.28,27.23,85.13,57.37,67.29,257.99-69.38,371.82-75.23,376.54l-13.23,10.68ZM1041.18,912.85l13.19,27.78c31.14-33.96,105.03-139.53,53.6-336.71-2.61-10.01-19.27-45.79-53.17-38-17.38,3.99-31.08,18.52-34.89,37.01-3.58,17.34.02,32.91,10.69,46.28l.85,1.19c3.4,5.37,81.23,131.05,9.72,262.45Z"/>
    </g>
    <g>
      <path class="cls-7" d="M893.75,795.99c-.34.13-.67.34-1.01.47-34.66,15.89-66.65,21.46-106.27,20.78-18.24-.27-36.81-2.55-55.38-6.84-21.92-5.1-42.64-12.87-61.75-22.93-1.21-.54-2.35-1.14-3.49-1.74-12.67-6.84-24.61-14.68-35.74-23.4-6.24-4.76-12.14-9.79-17.83-15.09-8.65-7.98-16.69-16.63-24.14-25.61-15.22-18.51-27.89-39.09-37.48-61.08-9.05-20.38-15.42-42.04-18.84-64.37-2.75-16.63-3.75-33.59-3.08-50.76.54-16.43,2.75-32.99,6.64-49.55,1.34-6.03,2.95-11.87,4.76-17.7.54.47,1.07,1.01,1.68,1.47,2.68,2.41,5.5,4.76,8.25,7.11,3.42,2.82,6.84,5.57,10.33,8.18,20.52,15.69,43.25,28.83,67.92,38.89,9.12,3.69,18.51,7.04,28.09,9.86,4.02,1.21,8.11,2.35,12.2,3.35,2.01.6,4.02,1.07,6.03,1.54,4.22,1.01,8.45,1.81,12.67,2.61,2.15.4,4.22.74,6.37,1.14,2.15.34,4.22.67,6.3,1.01,1.94.27,3.96.54,5.9.8,5.97.8,11.87,1.34,17.77,1.68-2.95,9.25-6.24,18.37-9.79,27.36,1.14,2.28,2.28,4.49,3.42,6.77.54,1.01,1.07,2.01,1.54,3.02h.07c1.34,2.61,2.75,5.23,4.16,7.84,22.26,40.7,45.32,77.71,75.97,111.23,5.63,6.24,11.53,12.27,17.7,18.24,23.73,22.73,50.29,41.97,77.04,65.71Z"/>
      <path class="cls-2" d="M792.65,830.71c-2.11,0-4.24-.02-6.4-.06-19.19-.28-38.78-2.7-58.17-7.18-22.6-5.25-44.33-13.3-64.62-23.94-1.33-.61-2.6-1.27-3.87-1.94-13.27-7.16-25.93-15.45-37.74-24.7-6.25-4.77-12.41-9.98-18.69-15.82-8.61-7.94-17.15-17-25.33-26.88-16.14-19.63-29.41-41.24-39.45-64.28-9.54-21.48-16.22-44.29-19.8-67.69-2.84-17.2-3.94-35.19-3.23-53.31.56-17.2,2.91-34.76,6.99-52.09,1.28-5.77,2.93-11.91,5.01-18.61l6.1-19.66,17.36,15.15c1.98,1.79,4.05,3.54,6.1,5.28l1.87,1.59c3.09,2.54,6.35,5.17,9.67,7.66,19.97,15.27,41.79,27.76,64.93,37.19,9.17,3.71,18.2,6.88,26.81,9.41,3.88,1.16,7.75,2.25,11.63,3.2l.65.18c1.74.52,3.48.92,5.22,1.33,4.09.98,8.12,1.74,12.14,2.51l17.89,2.84c5.37.72,10.85,1.24,16.7,1.57l17.27.99-5.26,16.48c-2.36,7.39-5.01,14.95-7.9,22.55l2.3,4.4c1.3,2.53,2.66,5.07,4.03,7.61,18.51,33.85,41.83,73.28,74.06,108.54,5.2,5.76,10.78,11.51,17.12,17.65,13.15,12.59,27.26,24.13,42.19,36.35,11.2,9.16,22.79,18.63,34.43,28.97l16.34,14.5-21.25,8.44c-32.93,15.11-64.84,21.81-105.1,21.81ZM547.72,502.11c-3.24,14.67-5.1,29.33-5.57,43.76-.64,16.4.34,32.56,2.91,48.13,3.25,21.21,9.26,41.72,17.87,61.11,9.09,20.85,21.05,40.34,35.59,58.01,7.39,8.92,15.1,17.1,22.87,24.27,5.68,5.28,11.19,9.94,16.88,14.28,10.75,8.42,22.13,15.87,33.97,22.26.77.41,1.64.88,2.57,1.29l.8.39c18.36,9.66,38.06,16.97,58.54,21.74,17.53,4.05,35.22,6.24,52.55,6.49,31.41.59,56.74-3.11,81.73-11.94-5.77-4.83-11.51-9.52-17.15-14.14-15.35-12.56-29.84-24.41-43.8-37.78-6.83-6.6-12.82-12.78-18.38-18.94-34.09-37.3-58.45-78.45-77.78-113.78-.16-.29-.31-.58-.47-.87h-.48l-3.67-7.76c-.36-.79-.79-1.56-1.21-2.35l-6.26-12.45,2.2-5.57c1.4-3.55,2.76-7.1,4.05-10.64-.45-.06-.9-.11-1.35-.18l-19.24-3.05c-4.48-.85-8.9-1.7-13.32-2.75-2.11-.49-4.27-1.01-6.44-1.64-4.2-1.04-8.4-2.21-12.54-3.45-9.39-2.76-19.26-6.22-29.27-10.27-25.38-10.35-49.27-24.02-71.04-40.66-1.51-1.13-3.02-2.29-4.53-3.49Z"/>
    </g>
    <path class="cls-2" d="M640.14,361.3l-13.78-3.26c-25.45-6.01-49.58-15.99-71.74-29.65-22.09-13.5-41.97-30.62-59.04-50.85-8.3-9.96-15.69-20.36-22.03-30.98l-8.8-14.74,16.43-4.97c50-15.13,88.13-54.21,102-104.53l1.83-6.66,6.48-2.37c6.92-2.53,13.76-5.65,20.32-9.26l14.85-8.16,4.53,16.33c12.11,43.64,18.62,88.62,19.35,133.69.38,17.75-.26,36.41-1.92,55.36-1.32,15.8-3.33,31.33-5.98,46.11l-2.5,13.94ZM505.57,246.6c3.31,4.66,6.83,9.24,10.56,13.71,15.16,17.96,32.85,33.2,52.53,45.22,15.65,9.65,32.39,17.23,49.93,22.62,1.38-9.51,2.49-19.27,3.32-29.18,1.57-18.05,2.19-35.72,1.83-52.58-.61-37.5-5.41-74.87-14.3-111.38-.78.33-1.55.66-2.33.98-15.97,50.47-52.97,90.57-101.53,110.6Z"/>
    <g>
      <path class="cls-8" d="M357.18,404.23l-33.6-103.76-51.51,22.71.36,74.55c-.18,0-.43.01-.58.08-1.04.02-2.05.12-3.09.14-1.97.08-4.02.2-6.03.39-1.36.08-2.7.23-4.13.34-1.44.11-2.92.32-4.43.47-1.84.2-3.74.43-5.65.66-.25.02-.58.08-.87.21-.68.04-1.44.11-2.16.25-.97.17-1.95.34-2.92.5-1.48.21-2.96.43-4.4.72-2.67.48-5.27.93-7.88,1.55-.33.06-.58.08-.87.21-.83.1-1.7.31-2.49.49-.15.06-.4.09-.54.15-5.94,1.39-11.81,2.94-17.7,4.83-2.18.61-4.29,1.37-6.4,2.12-1.45.47-2.98.96-4.4,1.5-1.5.57-2.95,1.04-4.41,1.68-.91.31-1.79.7-2.77,1.05-2.67,1.09-5.33,2.18-8.04,3.37-9.51,4.19-18.62,8.91-27.25,14.11l-.07.03c-4.83,2.92-9.6,5.98-14.15,9.12.38-3.49.73-6.87,1.32-10.28.46-3.52,1.09-7.04,1.73-10.55.44-2.38.87-4.75,1.42-7.09,0-.18.05-.28.09-.39.61-2.98,1.29-5.99,2.11-8.88.58-2.44,1.2-4.81,1.92-7.14,2.03-7.1,4.4-14,7.06-20.85.46-1.34,1.02-2.64,1.59-3.93.94-2.42,1.99-4.81,2.99-7.09.2-.53.48-1.09.69-1.61s.51-1.01.72-1.54c.28-.56.56-1.12.83-1.68.68-1.43,1.36-2.87,2.07-4.23,1.51-3.11,3.09-6.08,4.74-9.08.24-.45.43-.8.63-1.15.16-.42.43-.8.63-1.15,2.23-3.87,4.49-7.66,6.85-11.41,1.08-1.7,2.13-3.3,3.25-4.93,1.89-2.84,3.82-5.61,5.85-8.34,1.76-2.35,3.52-4.7,5.36-7.08.3-.31.53-.58.8-.96,4.3-5.3,8.78-10.42,13.42-15.35,2.41-2.46,4.82-4.92,7.26-7.31.49-.48,1.05-.99,1.54-1.46,2.03-1.94,4.13-3.92,6.22-5.71,2.32-2.07,4.6-4.04,6.95-6.04.71-.57,1.42-1.15,2.12-1.72,2.46-1.96,4.95-3.84,7.51-5.76,2.9-2.15,5.83-4.23,8.79-6.23,2.74-1.91,5.62-3.7,8.5-5.5,2.81-1.76,5.72-3.48,8.66-5.13.15-.06.29-.13.48-.3.73-.32,1.43-.72,2.2-1.15,1.25-.73,2.54-1.38,3.82-2.03.33-.23.77-.43,1.14-.59.22-.1.33-.23.58-.26,1.4-.79,2.76-1.48,4.15-2.09,2.86-1.44,5.9-2.86,8.9-4.19,2.63-1.16,5.37-2.28,8.04-3.37,2.67-1.09,5.36-2.1,8.1-3.04,2.7-1.02,5.43-1.96,8.12-2.79,2-.62,4-1.24,5.92-1.82,1.85-.55,3.71-1.11,5.52-1.56.47-.12,1.02-.27,1.49-.39.8-.18,1.56-.43,2.36-.6,1.27-.3,2.43-.63,3.66-.83,1.88-.48,3.8-.89,5.65-1.27,2.17-.43,4.23-.9,6.43-1.26,2.57-.52,5.09-.93,7.65-1.28,2.13-.33,4.26-.65,6.34-.87.9-.14,1.84-.2,2.74-.33l95.98,144.77c-.59,1.05,47.5,68.29,44.27,75.83-7.43,16.64-69.87-16.75-74.06,1.09-3.32,13.87-45.6-5.06-67.07-39.55Z"/>
      <path class="cls-2" d="M124.62,469.41l3.37-30.42c.37-3.34.73-6.6,1.31-9.88.4-3.16,1.07-6.89,1.74-10.63.43-2.32.83-4.47,1.29-6.56l.06-1.05.43-1.16c.62-2.98,1.32-5.97,2.14-8.86.52-2.21,1.21-4.85,2.01-7.45,1.96-6.87,4.4-14.07,7.37-21.74.39-1.18,1.09-2.81,1.8-4.44.81-2.11,1.93-4.69,3.02-7.16,0,.02-.01.03-.01.03,0,0,.17-.42.36-.84.38-.93.68-1.58,1.01-2.22l1.14-2.34c.67-1.42,1.41-2.98,2.18-4.47,1.43-2.97,3.12-6.14,4.87-9.33l.4-.73c.29-.6.61-1.18.94-1.73,2.37-4.11,4.72-8.05,7.18-11.96,1.19-1.88,2.32-3.59,3.52-5.35,1.93-2.89,3.98-5.85,6.15-8.77,1.82-2.44,3.62-4.83,5.49-7.25l1.01-1.23c4.49-5.54,9.22-10.95,14.07-16.1,2.66-2.72,5.14-5.25,7.65-7.71l1.56-1.48c2.29-2.19,4.57-4.33,6.85-6.28,2.2-1.97,4.57-4.01,7.01-6.08l2.36-1.92c2.65-2.11,5.25-4.08,7.92-6.08,3.09-2.29,6.18-4.48,9.29-6.59,2.8-1.95,5.87-3.87,8.94-5.78,2.65-1.67,5.43-3.32,8.24-4.91l.56-.51,1.99-.88c.34-.15.67-.35,1.03-.55,1.24-.72,2.6-1.42,3.96-2.12.52-.3,1.07-.58,1.59-.83.31-.16.63-.32.95-.46,1.47-.8,2.92-1.51,4.39-2.16,2.46-1.25,5.7-2.78,8.91-4.19,2.7-1.19,5.51-2.34,8.24-3.46,3.03-1.24,5.96-2.34,8.92-3.36,2.6-.98,5.58-2.01,8.51-2.92l6-1.85c2.11-.64,4.18-1.25,6.2-1.75l2.37-.62c.59-.16,1.19-.32,1.79-.45l.72-.18c1.03-.26,2.05-.5,3.07-.69,1.92-.47,3.86-.89,5.73-1.27l1.93-.4c1.66-.34,3.3-.68,5.02-.96,2.37-.49,5.19-.95,8.05-1.33,2.1-.32,4.43-.68,6.71-.92.03-.02.69-.09,1.36-.17l9.24-1.35,105.22,158.72-.15.27c1.39,2.11,3.01,4.53,4.53,6.82,36.78,55.16,40.64,64.95,36.5,74.6-8.3,18.6-32.24,12.94-53.36,7.94-6.46-1.53-16.56-3.92-21.86-4.15-2.83,5.15-7.91,8.64-14.33,9.68-20.96,3.39-56.84-20.49-75.29-50.12l-.87-1.39-29.53-91.2-29.87,13.17.39,79.99-12.84-.7-2.01.07c-.66.04-1.33.07-2,.09-1.49.07-3.3.17-5.09.33l-4.37.35c-.64.05-1.29.13-1.94.21l-12.79,1.72c-1.63.24-2.87.42-4.09.66l-.96.17c-2.08.37-4.13.73-6.16,1.21l-.67.29-3.55.64c-6.42,1.51-11.71,2.95-16.66,4.54-2.34.67-4.14,1.32-5.95,1.97-1.69.55-2.99.97-4.2,1.43l-1.68.62c-.7.25-1.39.49-2.09.8l-1.89.73c-.59.23-1.2.47-1.84.69-1.94.81-4.49,1.85-7.08,2.99-8.97,3.95-17.63,8.44-25.74,13.33l-.95.56c-4.38,2.67-8.61,5.41-12.59,8.15l-24.17,16.67ZM437.3,446.85s0,.05-.02.08c0-.03,0-.05.02-.08ZM369.42,398.48c13.98,21.56,35.38,33.63,44.41,36.03,1.55-2.38,3.62-4.42,6.11-5.96,10.58-6.54,25.84-2.93,43.51,1.26,4.82,1.14,11.54,2.73,17.07,3.63-7.61-13.55-22.22-35.46-28.71-45.19-4.15-6.23-7.07-10.61-8.93-13.99h-.02s-91.35-137.78-91.35-137.78c-.15.03-.31.05-.46.07-2.56.34-4.79.71-7.06,1.17-1.83.31-3.11.58-4.4.85l-2.08.43c-1.57.32-3.27.68-4.95,1.11l-1.27.26c-.47.07-.92.2-1.39.32l-1.96.49c-.6.16-1.2.32-1.82.46l-1.05.29c-1.72.43-3.36.92-5,1.41l-5.81,1.79c-2.43.76-4.91,1.61-7.37,2.54-2.84.99-5.31,1.92-7.75,2.91-2.63,1.07-5.22,2.13-7.7,3.22-2.8,1.23-5.63,2.56-8.3,3.9-1.59.72-2.55,1.21-3.55,1.77l-2.91,1.46c-.85.44-1.7.87-2.53,1.36-.45.25-.86.47-1.24.68l-.35.32-1.67.76c-2.61,1.47-5.19,3-7.68,4.56-2.73,1.7-5.42,3.37-7.98,5.15-2.93,1.98-5.7,3.95-8.44,5.99-2.41,1.8-4.8,3.61-7.15,5.48l-2.03,1.65c-2.03,1.73-4.23,3.62-6.46,5.62-2.11,1.81-4.02,3.62-5.87,5.4l-1.46,1.39c-2.35,2.3-4.69,4.69-7.03,7.08-4.14,4.4-8.36,9.23-12.37,14.16-.4.54-.77,1-1.18,1.45-1.66,2.17-3.27,4.31-4.87,6.45-1.86,2.5-3.65,5.08-5.42,7.73-1.13,1.65-2.09,3.12-3.09,4.69-2.24,3.56-4.41,7.2-6.55,10.91l-1.02,1.87c-1.64,2.99-3.11,5.76-4.52,8.66-.79,1.53-1.38,2.77-1.96,4.01l-.83,1.67c-.18.41-.38.81-.58,1.21h0s-.19.47-.4.95l-.34.81c-.93,2.09-1.89,4.28-2.75,6.51-.63,1.48-1.06,2.43-1.4,3.43-2.86,7.4-5.04,13.84-6.85,20.19-.72,2.33-1.26,4.43-1.78,6.58-.75,2.69-1.31,5.07-1.79,7.39,5.88-3.16,11.95-6.13,18.15-8.86,2.82-1.24,5.6-2.38,8.38-3.52l1.55-.59c.46-.18.91-.36,1.37-.52,1.09-.46,2.18-.87,3.29-1.27l1.27-.46c1.64-.62,3.39-1.2,5.06-1.74,2.03-.73,4.42-1.58,6.88-2.27,4.87-1.57,10.44-3.11,17.03-4.68l1.95-.48c.87-.2,1.65-.36,2.39-.49.45-.11.85-.2,1.22-.26,2.48-.58,4.95-1.02,7.48-1.48l.68-.12c1.42-.28,3.14-.54,4.85-.79l2.14-.38c.86-.16,1.71-.29,2.53-.37.65-.14,1.31-.24,1.98-.3l7.26-.83c1.02-.12,2.03-.23,3.02-.3l1.36-.12-.34-70.73,73.14-32.24,37.65,116.28ZM229.74,416.85l-.17.04c.06-.01.12-.03.17-.04ZM232.55,416.24h0,0ZM250.51,413.06l-.28.03c.09,0,.18-.02.28-.03ZM182.99,352.32h0s0,0,0,0Z"/>
    </g>
    <g>
      <path class="cls-4" d="M707.29,1274.78h-.07c-24.47,5.43-49.95,8.31-76.1,8.31-10.93,0-21.79-.47-32.45-1.48l-.47-1.27-32.12-82.34c-1.01-3.42-1.81-6.84-2.41-10.26-3.55-22.26,4.49-44.86,19.98-61.28l48.07-50.15c0-2.08-214.35-130.07-221.13-416.37v-.07c-1.27-55.72,5.3-117.47,22.86-185.46l-103.12-35.4-12.81,54.78,59.87,44.52c-.13.13-.27.34-.27.47-.6.87-1.14,1.74-1.74,2.55-1.14,1.68-2.28,3.35-3.35,5.1-.74,1.14-1.41,2.28-2.21,3.49-.74,1.21-1.47,2.55-2.28,3.82-.94,1.61-1.88,3.29-2.88,4.89-.13.27-.27.54-.34.87-.4.54-.8,1.21-1.07,1.88l-1.41,2.61c-.67,1.34-1.41,2.61-2.01,3.96-1.27,2.41-2.48,4.76-3.49,7.24-.2.27-.34.47-.4.8-.4.74-.74,1.54-1.07,2.28-.07.13-.2.4-.2.54-2.48,5.57-4.76,11.2-6.77,17.03-.8,2.15-1.48,4.29-2.15,6.44-.54,1.41-1.01,2.95-1.48,4.43-.4,1.54-.94,2.95-1.27,4.56-.34.87-.54,1.81-.8,2.82-.74,2.82-1.47,5.57-2.15,8.45-2.35,10.12-4.09,20.25-5.1,30.24v.13c-.6,5.56-1.01,11.26-1.21,16.76-2.55-2.41-5.1-4.69-7.44-7.24-2.55-2.48-4.96-5.1-7.38-7.71-1.68-1.74-3.29-3.55-4.83-5.36-.13-.13-.2-.2-.27-.34-2.01-2.28-4.02-4.63-5.83-7.04-1.61-1.88-3.15-3.82-4.56-5.77-4.49-5.9-8.58-11.93-12.4-18.17-.8-1.21-1.54-2.41-2.21-3.69-1.41-2.15-2.68-4.43-3.89-6.64-.27-.47-.6-1.01-.87-1.47-.27-.54-.47-1.07-.8-1.54-.27-.54-.54-1.07-.8-1.68-.8-1.41-1.54-2.82-2.15-4.16-1.61-3.08-3.02-6.1-4.43-9.25-.27-.47-.4-.8-.54-1.21-.27-.4-.4-.8-.54-1.21-1.81-4.09-3.49-8.18-5.03-12.34-.74-1.88-1.34-3.62-2.01-5.5-1.14-3.22-2.21-6.44-3.15-9.72-.8-2.82-1.68-5.63-2.48-8.52,0-.4-.13-.8-.27-1.21-1.68-6.64-3.08-13.28-4.22-19.98-.54-3.42-1.01-6.77-1.47-10.19-.07-.67-.13-1.41-.27-2.08-.34-2.82-.6-5.7-.8-8.45-.27-3.08-.47-6.1-.67-9.19,0-.87-.07-1.81-.07-2.68-.13-3.15-.13-6.3-.13-9.45.07-3.62.13-7.24.34-10.79.07-3.35.4-6.7.67-10.12.27-3.29.67-6.64,1.14-9.99,0-.13.07-.34,0-.54.2-.8.34-1.61.4-2.48.2-1.41.47-2.88.67-4.29.07-.4.13-.87.27-1.27,0-.2,0-.4.13-.6.2-1.61.47-3.08.8-4.56.54-3.15,1.27-6.44,2.01-9.65.6-2.75,1.41-5.63,2.15-8.45.67-2.75,1.47-5.57,2.41-8.31.8-2.75,1.68-5.5,2.61-8.11.74-2.01,1.41-3.96,2.08-5.83.67-1.81,1.34-3.62,2.08-5.36.2-.47.4-1.01.6-1.41.34-.74.6-1.54.94-2.28.54-1.21.94-2.35,1.54-3.42.74-1.81,1.54-3.55,2.35-5.3.94-1.94,1.81-3.89,2.88-5.9,1.07-2.35,2.28-4.63,3.55-6.84,1.01-1.94,2.01-3.82,3.08-5.63.47-.8.94-1.54,1.41-2.35l85.89,5.03,87.5,5.1c.47,1.14,1.01,2.15,1.48,3.22,1.74,3.89,3.62,7.78,5.63,11.53,1.74,3.42,3.55,6.84,5.5,10.19,8.85,15.96,19.24,31.04,31.04,45.12,9.05,10.93,18.91,21.32,29.5,30.84-1.81,5.83-3.42,11.67-4.76,17.7-3.89,16.56-6.1,33.12-6.64,49.55-.13,3.75-.2,7.58-.2,11.33v.07c.07,14.68,1.41,29.23,3.89,43.45,3.96,23.06,11.06,45.26,20.85,66.11,9.25,19.78,20.99,38.35,34.87,55.25,7.44,8.98,15.49,17.63,24.14,25.61,4.29,4.02,8.78,7.84,13.34,11.6,2.95,2.41,5.9,4.69,8.98,6.97,11.4,8.45,23.53,16.02,36.47,22.66,1.14.6,2.28,1.21,3.49,1.74,17.63,8.72,36.61,15.56,56.52,20.18,18.57,4.29,37.14,6.57,55.38,6.84,40.03.67,72.21-5.03,107.28-21.25l.07.07c1.41,1.01,2.73,2.2,4.16,3.15,119.91,79.99,148.04,386.63-185.46,478.32Z"/>
      <path class="cls-2" d="M631.12,1296.5c-11.55,0-22.89-.52-33.7-1.53l-8.42-.79-3.38-9.22-32.39-83.16c-1.14-3.86-2.06-7.79-2.76-11.71-4.12-25.77,4.66-52.91,23.43-72.82l37.58-39.2c-68.99-51.39-208.75-184.06-214.28-417.8-1.29-56.7,5.52-116.21,20.27-177.15l-77.44-26.58-7.43,31.76,65.28,48.53-10.2,10.35c-.51.77-1.01,1.51-1.55,2.23-.65.99-1.68,2.49-2.65,4.07l-.94,1.5c-.49.78-.98,1.57-1.53,2.39l-.53.94c-.51.87-1.03,1.76-1.57,2.62l-.45.8c-.44.76-.88,1.53-1.34,2.29l-.24,1.15-1.79,2.6-2.14,4.02c-.3.56-.6,1.11-.85,1.68l-.38.77c-1.06,2.01-2.08,3.95-2.92,6.02l-1.86,4.04c-2.51,5.62-4.58,10.84-6.34,15.94-.84,2.25-1.43,4.16-2.03,6.07l-.27.78c-.36.95-.67,1.97-.99,2.98l-.13.42c-.18.67-.38,1.32-.58,1.97-.15.51-.33,1.01-.44,1.56l-1.32,4.86c-.59,2.22-1.17,4.42-1.7,6.71-2.23,9.6-3.82,18.99-4.75,27.9l-.08.89c-.56,5.17-.94,10.49-1.14,15.81l-1.09,29.66-23.24-22.03c-2.1-1.96-4.16-3.91-6.12-6.01-2.56-2.51-5-5.14-7.44-7.78-1.73-1.81-3.4-3.67-5.01-5.55l-1.49-1.74c-1.8-2.07-3.58-4.19-5.22-6.35-1.74-2.05-3.41-4.17-4.95-6.29-4.47-5.86-8.77-12.17-12.98-19.04-.69-1.02-1.53-2.39-2.33-3.87-1.47-2.29-2.82-4.69-4.1-7.04l-1.9-3.44c-.26-.51-.51-1.02-.76-1.56-.83-1.48-1.59-2.97-2.25-4.39-1.58-3.05-2.99-6.06-4.39-9.17-.3-.58-.54-1.09-.75-1.6-.36-.73-.62-1.38-.8-1.89-1.83-4.16-3.53-8.33-5.1-12.56-.56-1.41-1.11-2.95-1.68-4.55l-.39-1.1c-1.25-3.53-2.41-7.01-3.42-10.57l-1.03-3.53c-.49-1.67-.99-3.35-1.47-5.05l-.49-2.09c-1.71-6.81-3.15-13.69-4.3-20.46-.58-3.67-1.06-7.11-1.54-10.62l-.3-2.31c-.36-3.02-.64-6.1-.86-9.04-.26-3.01-.47-6.13-.67-9.31l-.06-1.7c-.02-.63-.04-1.25-.04-1.85-.13-2.77-.13-6.11-.13-9.45.08-4.21.15-7.92.36-11.56.04-2.43.27-5.37.52-8.33l.17-2.08c.22-2.65.51-5.32.85-7.99l-.32-.93,1.77-9.2c.04-.28.09-.54.13-.79v-2.63l.67-1.13c.15-.88.33-1.75.52-2.62.57-3.28,1.33-6.69,2.1-10.03.49-2.24,1.14-4.67,1.78-7.09l.47-1.78c.74-3.04,1.66-6.23,2.69-9.25.7-2.44,1.66-5.45,2.69-8.31l2.06-5.79c.8-2.16,1.55-4.16,2.36-6.08.43-1.04.71-1.69.99-2.23.19-.59.44-1.2.7-1.78l.32-.75c.41-.98.82-1.93,1.29-2.84.74-1.77,1.53-3.5,2.32-5.21l.85-1.78c.69-1.46,1.39-2.93,2.18-4.44,1.2-2.59,2.54-5.12,3.95-7.58.84-1.65,1.97-3.75,3.16-5.77l5.5-9.39,190.04,11.1,3.21,7.8c.17.41.36.79.54,1.17l.83,1.79c1.69,3.76,3.44,7.35,5.16,10.55,1.76,3.46,3.46,6.67,5.28,9.81,8.51,15.33,18.46,29.8,29.72,43.24,8.93,10.78,18.4,20.68,28.19,29.48l6.39,5.74-2.55,8.2c-1.84,5.94-3.31,11.39-4.48,16.64-3.7,15.76-5.81,31.55-6.32,47.08-.13,3.64-.2,7.29-.2,10.89.07,13.69,1.31,27.55,3.69,41.2,3.7,21.54,10.35,42.63,19.78,62.72,8.77,18.74,19.9,36.37,33.09,52.43,7.38,8.91,15.09,17.09,22.87,24.27,3.59,3.37,7.51,6.77,12.77,11.1,2.75,2.25,5.53,4.39,8.43,6.54,10.91,8.09,22.56,15.32,34.63,21.52,1.02.54,1.89,1.01,2.81,1.42,17.41,8.6,35.45,15.04,54.11,19.37,17.54,4.05,35.23,6.24,52.54,6.49,39.33.64,69.71-5.33,101.45-20.02l8.71-4.04,5.91,6.2c.42.32.83.64,1.24.97.48.38.94.77,1.44,1.1,65.55,43.73,100.47,141.57,84.92,237.94-20.28,125.72-120.25,222.12-274.27,264.47l-2.16.48c-25.35,5.52-51.43,8.32-77.56,8.32ZM608.15,1268.93c7.47.5,15.16.75,22.98.75,24.67,0,49.3-2.69,73.19-7.99h0c195.92-54.08,243.43-175.26,254.31-242.72,13.59-84.2-16.57-172.23-71.78-210.31-33.03,14.13-65.25,19.95-105.83,19.24-19.18-.28-38.77-2.7-58.18-7.18-20.68-4.81-40.68-11.95-59.44-21.23-1-.43-2.41-1.17-3.81-1.91-13.22-6.78-26.12-14.8-38.19-23.75-3.24-2.4-6.36-4.81-9.49-7.37-5.76-4.74-10.07-8.49-14.02-12.2-8.58-7.91-17.12-16.97-25.29-26.84-14.65-17.83-26.98-37.37-36.69-58.12-10.45-22.26-17.83-45.65-21.92-69.53-2.64-15.09-4.01-30.47-4.08-45.65,0-4.04.07-8.02.21-11.94.56-17.26,2.91-34.81,6.98-52.14.75-3.36,1.61-6.83,2.61-10.44-8.54-8.16-16.8-17.03-24.63-26.48-12.31-14.68-23.24-30.57-32.44-47.17-1.94-3.34-3.87-6.97-5.72-10.61-1.27-2.37-2.62-5.04-3.98-7.91l-157.01-9.17c-.05.09-.09.18-.14.27-1.35,2.38-2.37,4.29-3.27,6.26l-.36.73c-.66,1.24-1.23,2.45-1.79,3.65l-.85,1.78c-.63,1.36-1.35,2.91-2.01,4.54l-.73,1.5c-.12.24-.24.56-.37.87l-.6,1.41c-.47,1.18-.71,1.79-.98,2.37l-.52,1.2c-.61,1.45-1.21,3.07-1.81,4.69l-2.06,5.78c-.83,2.29-1.61,4.79-2.34,7.27-.99,2.93-1.68,5.35-2.25,7.71l-.55,2.1c-.54,2.04-1.09,4.09-1.53,6.07-.7,3.08-1.39,6.11-1.89,9.02l-.15.74c-.24,1.04-.43,2.08-.57,3.22l-1.06,6.13c-.08.78-.18,1.53-.31,2.27l-.13.99c-.43,3.1-.81,6.19-1.06,9.23l-.17,2.15c-.2,2.4-.41,4.77-.45,7.14-.21,3.81-.27,7.17-.33,10.53,0,2.96,0,5.93.12,8.89l.04,1.4c.02.45.03.91.04,1.35.18,2.86.37,5.66.62,8.53.19,2.6.43,5.15.72,7.65.14.87.25,1.78.33,2.64.4,2.92.86,6.18,1.38,9.51,1.01,5.96,2.32,12.19,3.87,18.35.17.55.38,1.3.54,2.21.36,1.26.73,2.51,1.1,3.76l1.11,3.78c.86,3.03,1.85,5.98,2.9,8.93l.4,1.11c.47,1.32.92,2.61,1.46,3.96,1.54,4.13,3.11,7.98,4.81,11.82l1.05,2.37c1.3,2.9,2.59,5.68,4.07,8.52l.34.71c.44.97.98,1.98,1.56,3l.94,1.88c.35.61.67,1.23.98,1.89l.56.92c1.18,2.15,2.26,4.12,3.47,5.96l.65,1.1c.45.86.95,1.67,1.5,2.49,4.02,6.54,7.82,12.11,11.92,17.5,1.39,1.91,2.71,3.57,4.08,5.17l.53.67c1.38,1.84,2.9,3.63,4.43,5.38,1-6.48,2.28-13.11,3.83-19.81.59-2.55,1.23-5,1.88-7.47l.52-2c.22-.85.44-1.67.7-2.46.25-1.03.54-2.02.84-3l.77-2.59c.43-1.37.87-2.75,1.36-4.06.71-2.26,1.43-4.52,2.28-6.79,1.63-4.74,3.6-9.79,5.92-15.14v-.49l1.47-2.93c.32-.71.59-1.31.85-1.85.26-.64.54-1.21.81-1.7,1.08-2.52,2.27-4.84,3.41-7,.44-.95.93-1.88,1.42-2.81l1.96-3.69c.37-.8.76-1.52,1.14-2.16.14-.3.26-.55.35-.73l.62-1.1c.66-1.06,1.29-2.15,1.91-3.23l.76-1.32c.63-1.01.98-1.62,1.33-2.22l1.97-3.23-56.8-42.23,18.19-77.79,128.89,44.25-3.1,12.01c-16.22,62.75-23.76,123.91-22.44,181.79,5.49,231.94,149.85,359.05,211.67,402.93,5.08,3.6,9.46,6.72,9.46,13.81v5.39l-51.81,54.04c-13.03,13.82-19.19,32.5-16.42,49.89.45,2.55,1.1,5.32,1.88,8.05l29.35,75.24ZM367.04,583.94l-.28.58c.08-.15.17-.34.28-.58Z"/>
    </g>
    <g>
      <path class="cls-4" d="M731.76,1414.58l-81.06.27-1.41-3.62-50.62-129.6c10.66,1.01,21.52,1.48,32.45,1.48,26.15,0,51.63-2.88,76.1-8.31l24.54,139.8Z"/>
      <path class="cls-2" d="M641.54,1428.29l-63.27-162.06,21.66,2.04c9.99.94,20.48,1.41,31.2,1.41,24.67,0,49.3-2.69,73.19-7.99l13.69-3.04,29.72,169.29-106.19.35ZM618.8,1296.31l41.05,105.1,55.95-.18-19.41-110.58c-25.5,4.63-51.96,6.5-77.59,5.67Z"/>
    </g>
    <g>
      <path class="cls-4" d="M619.56,325.74c-25.29-5.97-48.68-15.86-69.64-28.78-21.92-13.4-41.16-30.19-57.37-49.4-7.89-9.47-15.07-19.52-21.33-30.01-.81.3-1.6.53-2.47.74-.31-2.21-.63-4.33-1.02-6.56l.02-.08c-2.93-18.09-6.88-36-11.57-53.59l.02-.08c-5.44-19.66-11.78-38.95-19.38-57.79,0,0,.02-.08-.04-.17-2.04-5.32-4.19-10.58-6.5-15.8.96-.6,1.9-1.12,2.84-1.64,1.36-.91,2.8-1.81,4.21-2.55,29.83-17.76,61.62-32.28,94.78-43.19l.08.02c17.15-5.61,34.59-10.33,52.41-13.9,1.14-.31,2.34-.52,3.54-.74,6.53-1.27,13.05-2.46,19.67-3.38,23.85-3.72,48.09-5.55,72.6-5.42-8.87,19.03-21.09,35.89-35.77,49.96-10.92,10.59-23.21,19.63-36.55,26.87,11.96,43.1,18.64,88.08,19.38,133.9.39,18.4-.3,36.87-1.92,55.46-1.28,15.38-3.23,30.77-5.99,46.14Z"/>
      <path class="cls-2" d="M630.26,342.04l-13.78-3.25c-26.11-6.16-50.87-16.4-73.6-30.42-22.67-13.85-43.07-31.42-60.58-52.17-6.27-7.53-12.04-15.3-17.25-23.23l-7.55,1.82-2.05-14.66c-.28-2.06-.59-4.04-.95-6.12l-.5-2.86.04-.13c-2.68-15.92-6.32-32.56-10.83-49.52l-.77-2.89c-5.41-19.21-11.33-36.72-18.07-53.42l-1.52-3.77.03-.12c-1.55-3.92-3.16-7.8-4.87-11.65l-4.72-10.64,9.87-6.17c1-.63,1.99-1.19,2.97-1.73,1.5-.99,3.06-1.94,4.6-2.77,30.67-18.23,63.36-33.11,97.18-44.24l3.68-1.21.11.03c17.09-5.46,33.45-9.73,49.86-13.03,1.36-.35,2.78-.62,4.2-.87,5.78-1.12,12.87-2.44,20.18-3.46C630.31,1.75,655.48-.09,680.47,0l20.92.11-8.83,18.96c-9.46,20.32-22.47,38.49-38.65,53.98-9.21,8.92-19.35,16.85-30.23,23.62,10.72,41.66,16.5,84.42,17.19,127.25.39,18.25-.27,37.39-1.96,56.84-1.36,16.22-3.42,32.16-6.15,47.34l-2.5,13.94ZM480.58,207.08l2.14,3.59c5.79,9.7,12.56,19.22,20.12,28.3,15.6,18.48,33.81,34.17,54.06,46.55,16.23,10.01,33.6,17.86,51.8,23.41,1.45-9.91,2.61-20.1,3.47-30.44,1.62-18.54,2.25-36.71,1.88-54.06-.71-44.06-7.06-87.98-18.9-130.59l-2.85-10.29,9.38-5.09c12.24-6.64,23.55-14.95,33.61-24.71,8.38-8.03,15.75-16.87,22.05-26.44-15.94.74-31.83,2.34-47.48,4.78-6.9.97-13.56,2.21-19.18,3.3-1.02.18-1.81.3-2.56.51l-.9.21c-16.67,3.34-33.31,7.75-50.87,13.49l-3.67,1.2h-.04c-29.66,10.03-58.39,23.13-85.48,38.98.56,1.4,1.11,2.81,1.66,4.22l2.16,3.49-.27,1.38c6.85,17.38,12.87,35.59,18.39,55.53l.86,3.13-.03.16c4.4,16.88,7.98,33.47,10.63,49.39Z"/>
    </g>
    <g>
      <path class="cls-6" d="M891.5,763.32c-8.65,3.6-16.77,6.24-24.22,8.15-24.78,6.33-43.05,4.33-55.6.94-10.37-2.75-16.87-6.48-20.11-7.34l-.34-.02c-5.43-2.27-11.16-4.21-16.96-5.88-.19-.05-.26-.07-.44-.19-8.36-2.22-17.04-4.03-25.92-5.07-40.68-5.1-79.83,4.15-112.38,23.83-.33.19-.64.32-.9.52-41,25.13-71.38,66.74-80.86,116.88-14.3-1.02-28.43-1.09-42.35-.13-11.26-29.48-15.56-62.18-11.41-95.63,7.14-57.55,38-106.46,81.49-138.07,1.12-.81,2.22-1.56,3.32-2.31,23.92-16.69,51.51-28.17,80.92-33.14,8.02-1.48,16.3-2.34,24.58-2.71l.15-.03c14.56-.23,28.19-.36,44.18,2.9l.06.02c5.63,1.01,11.34,2.24,16.78,3.69l.13.03c4.21,1.12,8.33,2.35,12.34,3.69,15.28,5.16,29.62,12.02,42.87,20.38,37.17,23.31,65.62,58.32,81.06,99.25,1.32,3.4,2.51,6.77,3.6,10.25Z"/>
      <path class="cls-2" d="M564.73,909.35l-11.91-.84c-13.81-.99-27.43-1.02-40.48-.13l-9.91.68-3.54-9.27c-12.27-32.14-16.49-67.43-12.19-102.06,7.29-58.73,38.96-112.41,86.9-147.27,1.17-.85,2.32-1.64,3.47-2.42,25.76-17.97,55.63-30.2,86.43-35.4,7.76-1.43,16.28-2.4,25.17-2.84l1.57-.09c14.39-.24,29.28-.46,47.08,3.17,5.94,1.06,11.95,2.38,17.6,3.88,4.62,1.22,9.01,2.53,13.29,3.96,16.15,5.46,31.55,12.78,45.77,21.76,39.28,24.63,69.99,62.24,86.45,105.85,1.39,3.58,2.67,7.22,3.85,10.98l3.65,11.67-11.29,4.7c-8.62,3.59-17.37,6.53-26.03,8.75-22.43,5.74-43.44,6.03-62.44.89-7.53-2-13.3-4.47-17.12-6.11-.8-.34-1.49-.65-2.1-.9l-.46-.03-2.46-.91c-4.55-1.91-9.76-3.72-15.49-5.37l-1.94-.57c-7.94-2.03-15.24-3.42-22.25-4.25-36.61-4.59-72.51,3.02-103.88,21.98l-.83.48c-39.02,23.92-66.25,63.26-74.69,107.93l-2.22,11.73ZM531.4,880.92c3.9,0,7.81.07,11.76.22,12.02-47.03,42.04-88.04,83.74-113.86l.38-.3,1.74-.95c36.17-21.87,78.01-30.77,120.56-25.41,8.71,1.01,17.8,2.79,27.69,5.41l2.4.76c5.77,1.72,10.74,3.45,15.38,5.34,2.1.56,4.08,1.41,6.59,2.48,3.46,1.49,7.79,3.34,13.49,4.85,14.56,3.94,30.98,3.6,48.85-.97,3.47-.89,6.96-1.92,10.46-3.08-14.65-37.2-41.09-69.12-74.71-90.21-12.47-7.87-25.94-14.27-40.04-19.04-3.71-1.24-7.55-2.39-11.49-3.43-5.06-1.34-10.35-2.5-15.83-3.48l-.89-.19c-14.19-2.89-26.8-2.74-40.09-2.53l-.45.03c-8.04.36-15.69,1.2-22.75,2.5-27.11,4.58-53.22,15.27-75.68,30.94-1.23.84-2.16,1.47-3.1,2.15-41.97,30.52-69.69,77.49-76.07,128.88-3.36,27.05-.79,54.53,7.43,80.07,3.52-.12,7.07-.18,10.65-.18ZM641.45,789.78l-.05.03s.03-.02.05-.03Z"/>
    </g>
    <g>
      <path class="cls-8" d="M747.5,320.65c-18.83,6.02-38.49,9.95-58.72,11.01-10.5.77-21.14.69-31.86-.07-.72-.09-1.46-.09-2.27-.2-11.25-.97-22.79-2.83-34.15-5.48l-.94-.22c.34-1.82.62-3.74.96-5.56,2.22-13.44,3.97-26.99,5.06-40.53,1.61-18.62,2.27-37.05,1.86-55.48-.72-45.84-7.34-90.82-19.35-133.92,13.33-7.22,25.67-16.24,36.56-26.83,18.9,25.21,35.47,52.28,49.61,80.6,4.92,9.73,9.6,19.75,13.79,29.8,14,32.41,24.66,66.44,31.89,101.33,1.58,7.39,2.99,14.82,4.22,22.29,1.35,7.67,2.42,15.51,3.34,23.24Z"/>
      <path class="cls-2" d="M673.77,345.62c-5.78,0-11.75-.22-17.81-.64l-.67-.07c-.99-.07-1.67-.12-2.37-.21-11.25-.96-23.37-2.9-35.46-5.72l-13.44-3.14,3.32-18.16c2.22-13.44,3.88-26.7,4.88-39.14,1.62-18.73,2.21-36.41,1.82-54.1-.7-44.3-7.04-88.21-18.86-130.62l-2.87-10.3,9.4-5.09c12.36-6.69,23.66-14.99,33.6-24.65l10.93-10.64,9.15,12.2c19.11,25.48,36.22,53.29,50.88,82.65,5.34,10.56,10.12,20.89,14.17,30.64,14.17,32.81,25.18,67.77,32.64,103.75,1.6,7.49,3.06,15.2,4.32,22.83,1.2,6.77,2.3,14.39,3.42,23.83l1.32,10.99-10.55,3.37c-20.78,6.65-41.67,10.56-62.11,11.63-5.04.37-10.29.56-15.71.56ZM658.12,318.24c10.36.71,20.33.74,29.67.05,14.89-.79,29.92-3.22,44.95-7.26-.58-4.09-1.16-7.79-1.78-11.28-1.22-7.37-2.6-14.66-4.13-21.81-7.11-34.29-17.57-67.51-31.09-98.82-3.88-9.31-8.37-19.04-13.45-29.08-11.73-23.49-25.07-45.89-39.78-66.79-5.96,4.86-12.23,9.34-18.8,13.41,10.71,41.49,16.47,84.25,17.15,127.27.41,18.33-.23,37.49-1.9,56.84-.88,10.94-2.25,22.51-4.06,34.44,7.04,1.28,14.04,2.23,20.92,2.82l1,.09c.45.03.89.07,1.32.11Z"/>
    </g>
    <g>
      <path class="cls-3" d="M728.34,513.28c-3.8,16.29-8.36,32.33-13.55,47.88-7.91-.44-15.79-1.37-23.69-2.54-8.47-1.23-16.86-2.77-25.4-4.76-42.77-9.96-81.39-28.54-114.2-53.61-7.03-5.27-13.74-10.88-20.29-16.78-10.59-9.49-20.4-19.86-29.49-30.82-11.76-14.05-22.2-29.12-31.05-45.06-4.11-7.15-7.72-14.35-11.12-21.75.16-1.04.32-2.07.4-3.13.71-4.46,1.36-9.02,1.91-13.51.04-.16.05-.24.01-.41.23-1.68.43-3.28.55-4.83l.07-.31c.04-.16.05-.24.01-.41l.04-.16.02-.08.02-.08s.02-.08-.04-.18c.16-.7.17-1.45.24-2.09.12-.88.24-1.76.29-2.66.28-1.92.39-3.79.59-5.73.06-.98.12-1.95.21-3.01l.09-1.46c.39-3.46.69-6.86.91-10.28.06-1.31.13-2.69.19-4,.25-3.91.4-7.75.48-11.62.12-3.36.22-6.64.27-10.01.02-1.15.04-2.3-.02-3.47.08-3.2.09-6.42.02-9.66-.02-3.8-.1-7.7-.21-11.53-.02-.25-.03-.58-.05-.84-.12-4.08-.25-8.15-.53-12.26-.3-6.51-.76-13.06-1.41-19.49-.95-10.46-2.11-20.72-3.76-31.02.87-.21,1.67-.44,2.49-.74,6.24,10.45,13.38,20.54,21.34,29.99,16.17,19.21,35.39,35.99,57.38,49.37,19.55,12.15,41.32,21.52,64.71,27.46,1.61.54,3.25.92,4.9,1.31l.94.22c11.36,2.65,22.9,4.51,34.15,5.48.8.1,1.54.11,2.27.2,10.72.76,21.36.85,31.86.07,20.23-1.07,39.9-4.99,58.72-11.01,1.69,14.02,2.84,28.24,3.4,42.5,1.36,31.37-.08,63.08-4.54,94.99l-.02.08c-1.55,11.61-3.51,23.22-5.9,34.88l-.02.08c-.99,4.97-2.06,9.92-3.2,14.78Z"/>
      <path class="cls-2" d="M733.16,569.8l-10.22-.57c-7.53-.42-15.68-1.29-24.92-2.67-9.2-1.34-17.87-2.96-26.47-4.96-43.9-10.23-84.04-29.08-119.3-56.01-6.86-5.14-13.8-10.88-21.12-17.47-10.57-9.47-20.96-20.32-30.83-32.22-12.42-14.84-23.35-30.71-32.45-47.11-3.88-6.74-7.7-14.21-11.58-22.66l-1.68-3.67.62-3.99c.11-.7.23-1.4.28-2.11l.13-1.06c.58-3.65,1.12-7.38,1.59-11.08l-.04-.17.32-2.37c.04-.34.09-.67.13-1.01l-.52-.82,1.23-5.88c.13-1.01.22-1.49.24-1.99l.12-1.26c.15-.99.23-1.96.31-2.95l.52-6.82c.37-3.23.64-6.42.85-9.61l.18-3.73c.25-3.99.4-7.64.47-11.31.12-3.47.22-6.65.26-9.92.02-.94.04-1.77,0-2.63l-.03-.52v-.51c.09-2.98.1-5.98.03-9-.02-3.84-.1-7.54-.19-11.18l-.03-.46c-.15-4.52-.27-8.43-.54-12.37-.32-6.88-.78-13.2-1.37-19.05-1.07-11.73-2.22-21.3-3.66-30.25l-1.97-12.27,12.08-2.89c.3-.07.58-.14.86-.24l10.51-3.98,5.76,9.65c5.95,9.97,12.7,19.46,20.08,28.22,15.62,18.56,33.82,34.22,54.09,46.56,18.84,11.71,39.34,20.41,61.04,25.92l.97.28c1.2.41,2.43.67,3.66.96l.95.22c10.84,2.52,21.7,4.27,32.25,5.18l1,.09c.45.03.89.07,1.32.11,10.36.71,20.33.74,29.67.05,18.42-.97,37.04-4.47,55.63-10.41l15.46-4.94,1.94,16.11c1.74,14.46,2.91,29.12,3.48,43.57,1.41,32.4-.16,65.18-4.66,97.37l-.1.75c-1.58,11.66-3.58,23.44-5.95,35.05-1.03,5.13-2.13,10.22-3.29,15.21h0c-3.83,16.44-8.51,32.95-13.89,49.09l-3.24,9.71ZM482.26,378.41c2.98,6.28,5.91,11.92,8.93,17.17,8.38,15.1,18.34,29.55,29.71,43.13,9.07,10.93,18.53,20.82,28.15,29.44,6.74,6.07,13.07,11.31,19.38,16.04,32.32,24.69,69.02,41.92,109.2,51.28,7.85,1.83,15.8,3.32,24.29,4.55,4.36.65,8.43,1.18,12.26,1.58,3.78-12.14,7.13-24.43,9.99-36.69h0c1.1-4.72,2.14-9.54,3.11-14.38,2.33-11.38,4.26-22.81,5.77-34.1l.13-.86c4.2-30.36,5.65-61.26,4.32-91.85-.34-8.57-.89-17.2-1.67-25.8-15.55,3.93-31.08,6.32-46.35,7.12-10.42.78-21.79.75-33.52-.08l-.67-.07c-.99-.07-1.67-.12-2.37-.21-11.25-.96-23.37-2.9-35.46-5.72l-.95-.22c-1.88-.44-3.75-.89-5.59-1.48-24.21-6.2-47.1-15.94-68.04-28.95-20.68-12.58-39.49-28.32-55.92-46.77.14,2.18.26,4.4.36,6.65.27,3.91.4,8.07.53,12.24l.08.92v.22c.09,3.92.17,7.91.19,11.8.07,3.08.07,6.35-.01,9.62.05,1.3.03,2.57,0,3.85-.04,3.39-.14,6.77-.27,10.23-.07,3.84-.23,7.88-.49,11.98l-.18,3.76c-.24,3.76-.54,7.28-.94,10.85l-.49,6.49c-.11,1.31-.24,2.6-.41,3.91,0,.07-.01.14-.02.21l.54.85-1.1,4.7c-.03.25-.07.51-.12.76-.07.75-.15,1.51-.24,2.28l.15.7-.52,2.49c-.51,4.12-1.1,8.28-1.74,12.37Z"/>
    </g>
    <g>
      <path class="cls-6" d="M905.24,184.15c1.52,15.55-6.27,31.08-19.61,39.19-8.82,5.37-18.49,7.03-27.45,5.79-3.4-.47-5.61-3.89-4.68-7.2,1.9-6.81,2.02-14.21.1-21.51-3.6-13.73-13.69-24.06-26.16-28.55-.96-.34-1.46-1.42-1.02-2.34,5.05-10.48,14.55-18.72,26.75-21.93,24.45-6.42,49.5,10.25,52.07,36.54Z"/>
      <path class="cls-2" d="M863.92,242.94c-2.51,0-5.04-.17-7.58-.52-5.43-.75-10.29-3.82-13.32-8.43-3.04-4.63-3.94-10.34-2.45-15.66,1.3-4.66,1.32-9.66.05-14.5-2.35-8.96-8.98-16.19-17.74-19.34-4.08-1.48-7.33-4.61-8.94-8.59-1.6-3.94-1.45-8.4.41-12.23,6.9-14.34,19.81-24.94,35.4-29.04,15.62-4.11,32.2-1.17,45.47,8.08,13.25,9.23,21.76,23.86,23.36,40.12h0c2.04,20.72-8.16,41.12-25.98,51.96-8.85,5.38-18.64,8.14-28.67,8.14ZM845.46,166.34c10.27,7.37,17.82,18.16,21.1,30.68,1.62,6.16,2.16,12.52,1.62,18.75,3.23-.51,6.81-1.66,10.48-3.89,8.93-5.43,14.25-16.05,13.23-26.43h0c-.84-8.57-5.1-15.93-12-20.74-6.81-4.74-15.3-6.26-23.33-4.14-4.16,1.09-7.94,3.08-11.1,5.77ZM838.52,175.29s-.01.04-.02.06c0-.02.01-.04.02-.06Z"/>
    </g>
    <g>
      <path class="cls-6" d="M1017.83,979.09c-15.61.43-30.57-8.42-37.73-22.3-4.74-9.17-5.72-18.94-3.86-27.79.71-3.36,4.27-5.32,7.51-4.17,6.67,2.37,14.03,3,21.45,1.6,13.95-2.64,24.96-11.98,30.31-24.11.41-.93,1.52-1.36,2.4-.85,10.1,5.76,17.66,15.82,20.01,28.22,4.7,24.84-13.68,48.67-40.08,49.4Z"/>
      <path class="cls-2" d="M1016.71,992.52c-20.26,0-39.19-11.48-48.53-29.57-5.94-11.52-7.69-24.21-5.07-36.7,1.13-5.38,4.54-10.01,9.35-12.7,4.82-2.71,10.59-3.2,15.78-1.34,4.54,1.61,9.53,1.98,14.46,1.05,9.11-1.72,16.78-7.83,20.53-16.34,1.7-3.9,5.04-6.94,9.12-8.3,4.04-1.34,8.5-.9,12.2,1.2,13.87,7.92,23.54,21.54,26.53,37.37,3.01,15.88-1.08,32.2-11.22,44.79-10.13,12.58-25.31,20.05-41.66,20.5h0c-.5.02-1,.02-1.49.02ZM988.87,939.92c.28,3.25,1.18,6.91,3.15,10.73,4.8,9.28,14.99,15.35,25.44,15.04h0c8.6-.24,16.24-3.97,21.52-10.52,5.2-6.46,7.29-14.83,5.76-22.98-.8-4.23-2.52-8.14-4.98-11.49-8.08,9.74-19.35,16.51-32.06,18.92-6.27,1.18-12.64,1.28-18.82.3ZM1047.8,907.7s-.03.07-.05.1c.02-.03.03-.07.05-.1Z"/>
    </g>
    <g>
      <polygon class="cls-4" points="471.45 61.53 299.34 134.73 312.38 192.73 382.19 241.44 471.22 217.54 471.45 61.53"/>
      <path class="cls-2" d="M379.64,256.01l-79.19-55.26-16.64-73.98,201.09-85.53-.28,186.59-104.98,28.17ZM324.32,184.71l60.42,42.16,73.09-19.62.19-125.43-143.14,60.88,9.45,42.01Z"/>
    </g>
  </g>
  <g>
    <path class="cls-4" d="M603.25,1284.37l51.09,130.88h-65.84l-65.84-188.07-20.92-59.81c-1.07-3.42-1.88-6.84-2.41-10.33-3.62-22.19,4.49-44.79,19.91-61.22l60.88-62.82c28.82,24.54,56.84,46.07,56.84,46.07l-48.26,51.42c-15.49,16.43-23.53,39.02-19.98,61.28.6,3.42,1.41,6.84,2.41,10.26l32.12,82.34Z"/>
    <path class="cls-2" d="M673.97,1428.66h-94.99l-89.9-256.86c-1.41-4.49-2.38-8.62-3.01-12.71-4.13-25.31,4.61-52.43,23.39-72.44l69.77-72.01,9.58,8.15c28.21,24.03,56.04,45.44,56.31,45.65l11.73,9.02-58.38,62.21c-13.13,13.92-19.3,32.6-16.52,49.99.45,2.53,1.09,5.3,1.88,8.06l90.13,230.94ZM598.01,1401.84h36.7l-76.44-196.02c-1.14-3.9-2.07-7.84-2.75-11.72-4.12-25.75,4.66-52.89,23.43-72.8l38.19-40.69c-8.94-7.06-22.09-17.58-36.09-29.28l-52.17,53.84c-12.98,13.82-19.13,32.46-16.31,49.72.45,2.92,1.09,5.66,1.97,8.48l83.48,238.47Z"/>
  </g>
  <g>
    <g>
      <path class="cls-1" d="M410.99,1198.66c7.39,90.1-62.42,169.38-155.95,177.05-93.53,7.67-175.37-59.18-182.76-149.28-4.36-53.12,18.13-102.44,56.51-135.56-.36-2.39-.62-4.84-.82-7.29-5.56-67.79,46.92-127.36,117.25-133.13,70.32-5.77,131.86,44.45,137.42,112.24,1.41,17.24-.93,33.89-6.39,49.27,19.45,24.12,32.04,53.85,34.73,86.7Z"/>
      <path class="cls-5" d="M240.32,1393.08c-43.83,0-85.78-14.76-119.56-42.36-38.08-31.1-61.23-74.75-65.18-122.91-4.43-54,15.77-105.86,55.63-143.62-5.85-76.54,53.5-143.95,132.64-150.44,79.4-6.51,149.2,50.72,155.5,127.58,1.32,16.1-.19,32-4.49,47.37,18.89,26.05,30.2,56.49,32.83,88.59h0c3.95,48.16-11.77,95-44.26,131.89-32.34,36.71-77.45,59.18-127.03,63.24-5.38.45-10.75.66-16.09.66ZM256.14,966.77c-3.16,0-6.34.13-9.55.39-60.99,5-106.7,56.62-101.91,115.06.17,2.08.38,4.15.68,6.17l1.38,9.14-7,6.04c-36.04,31.09-54.54,75.38-50.75,121.51,3.2,38.99,22.01,74.39,52.98,99.69,31.15,25.44,70.83,37.55,111.71,34.25,40.89-3.35,78.04-21.82,104.61-51.99,26.42-29.99,39.2-67.99,36-107-2.33-28.4-13.08-55.22-31.07-77.54l-5.88-7.29,3.13-8.83c4.82-13.61,6.67-27.83,5.48-42.3-4.54-55.36-52.84-97.3-109.79-97.3Z"/>
    </g>
    <path class="cls-5" d="M275.9,1144.32c-1.74,0-3.5-.1-5.26-.32l-42.86-5.3c-23.06-2.85-39.5-23.94-36.65-47l41.33-334.2c2.85-23.06,23.93-39.52,47-36.65l42.86,5.3c23.06,2.85,39.51,23.93,36.65,46.99l-41.33,334.2c-1.38,11.18-7.03,21.14-15.91,28.06-7.48,5.83-16.49,8.91-25.83,8.91ZM274.25,754.05c-1.91,0-3.75.63-5.28,1.82-1.81,1.41-2.97,3.45-3.25,5.74l-41.33,334.2c-.58,4.71,2.78,9.03,7.5,9.61l42.86,5.3c2.29.28,4.54-.34,6.35-1.75,1.81-1.41,2.97-3.45,3.25-5.74l41.33-334.2c.28-2.29-.34-4.54-1.76-6.36-1.42-1.82-3.45-2.97-5.74-3.25l-42.86-5.3c-.36-.04-.72-.07-1.08-.07Z"/>
    <g>
      <line class="cls-1" x1="217.41" y1="792.84" x2="368.37" y2="811.51"/>
      <rect class="cls-5" x="276.12" y="726.12" width="33.52" height="152.11" transform="translate(-539.17 994.4) rotate(-82.95)"/>
    </g>
    <g>
      <line class="cls-1" x1="209.86" y1="853.89" x2="360.82" y2="872.56"/>
      <rect class="cls-5" x="268.58" y="787.17" width="33.52" height="152.11" transform="translate(-606.38 1040.47) rotate(-82.95)"/>
    </g>
    <g>
      <circle class="cls-8" cx="246.95" cy="1159.6" r="71.64"/>
      <path class="cls-2" d="M246.81,1244.65c-20.11,0-39.37-7.05-54.88-20.21-17.33-14.69-27.89-35.26-29.74-57.9-1.86-22.64,5.21-44.65,19.91-61.97,14.7-17.33,35.26-27.89,57.9-29.75,46.71-3.81,87.88,31.08,91.71,77.81h0c3.83,46.74-31.07,87.88-77.81,91.71-2.37.2-4.74.29-7.09.29ZM246.98,1101.36c-1.59,0-3.19.07-4.8.2-15.5,1.27-29.58,8.51-39.64,20.36-10.06,11.86-14.9,26.93-13.63,42.44,2.63,31.99,30.79,55.86,62.79,53.27,32-2.63,55.89-30.8,53.28-62.8h0c-2.49-30.38-28.03-53.47-58-53.47Z"/>
    </g>
  </g>
  <rect class="cls-2" x="1139.09" y="996.49" width="125.39" height="26.82"/>
  <g>
    <line class="cls-4" x1="1143.13" y1="1047.14" x2="1260.44" y2="1091.42"/>
    <rect class="cls-2" x="1188.38" y="1006.58" width="26.82" height="125.4" transform="translate(-223.02 1815.99) rotate(-69.32)"/>
  </g>
  <g>
    <line class="cls-4" x1="1140.67" y1="1047.14" x2="1262.9" y2="1019.16"/>
    <rect class="cls-2" x="1139.09" y="1019.74" width="125.39" height="26.82" transform="translate(-200.23 294.2) rotate(-12.89)"/>
  </g>
</svg>